<?xml version="1.0" encoding="utf-8"?>
<!-- Generator: Adobe Illustrator 16.0.0, SVG Export Plug-In . SVG Version: 6.00 Build 0)  -->
<!DOCTYPE svg PUBLIC "-//W3C//DTD SVG 1.1//EN" "http://www.w3.org/Graphics/SVG/1.1/DTD/svg11.dtd">
<svg version="1.1" id="Capa_1" xmlns="http://www.w3.org/2000/svg" xmlns:xlink="http://www.w3.org/1999/xlink" x="0px" y="0px"
	 width="64px" height="64px" viewBox="0 0 64 64" enable-background="new 0 0 64 64" xml:space="preserve">
<g id="Capa_2" display="none">
	<g display="inline">
		<g opacity="0.3">
			<path fill="#1D1D1B" d="M42.448,12.329c-2.386-2.2-5.733-3.3-10.045-3.3c-3.939,0-7.184,1.062-9.733,3.185
				c-2.55,2.123-3.792,4.946-3.726,8.47l0.012,0.023c-0.008,0.095-0.014,0.192-0.014,0.29c0,1.806,1.406,3.27,3.142,3.27
				c1.735,0,3.142-1.464,3.142-3.27c0-0.061-0.005-0.12-0.009-0.179c0.015-2.069,0.712-3.642,2.099-4.713
				c1.4-1.083,3.097-1.625,5.088-1.625c2.298,0,4.065,0.624,5.302,1.871c1.235,1.247,1.854,3.031,1.854,5.351
				c0,1.948-0.459,3.611-1.379,4.989c-0.92,1.379-2.463,3.349-4.629,5.911c-2.233,2.014-3.612,3.633-4.137,4.858
				s-0.822,3.539-0.843,6.713c0,1.806,1.456,3.271,3.251,3.271c1.754,0,3.18-1.396,3.246-3.146h0.006
				c0-1.989,0.111-3.696,0.363-4.639c0.252-0.941,0.969-2.004,2.149-3.187c2.538-2.449,4.58-4.846,6.122-7.188
				c1.543-2.341,2.314-4.924,2.314-7.748C46.025,17.597,44.834,14.528,42.448,12.329z"/>
			<circle fill="#1D1D1B" cx="31.396" cy="54.168" r="3.348"/>
		</g>
		<g>
			<g>
				<path fill="#FFFFFF" d="M41.176,11.056c-2.385-2.2-5.734-3.3-10.045-3.3c-3.939,0-7.184,1.062-9.733,3.185
					c-2.55,2.123-3.792,4.946-3.726,8.47l0.012,0.023c-0.008,0.095-0.014,0.192-0.014,0.29c0,1.806,1.406,3.27,3.142,3.27
					c1.735,0,3.142-1.464,3.142-3.27c0-0.061-0.005-0.12-0.009-0.179c0.015-2.069,0.712-3.642,2.099-4.713
					c1.4-1.083,3.097-1.625,5.088-1.625c2.298,0,4.063,0.624,5.302,1.871c1.236,1.247,1.854,3.031,1.854,5.351
					c0,1.948-0.459,3.611-1.379,4.989c-0.919,1.379-2.462,3.349-4.628,5.91c-2.232,2.014-3.611,3.634-4.136,4.857
					c-0.525,1.228-0.822,3.539-0.843,6.713c0,1.806,1.456,3.271,3.251,3.271c1.753,0,3.179-1.396,3.245-3.144h0.007
					c0-1.991,0.112-3.698,0.364-4.641c0.25-0.939,0.968-2.002,2.149-3.186c2.537-2.449,4.58-4.845,6.121-7.188
					c1.543-2.341,2.314-4.924,2.314-7.748C44.754,16.324,43.563,13.255,41.176,11.056z"/>
				<circle fill="#FFFFFF" cx="30.123" cy="52.895" r="3.348"/>
			</g>
		</g>
	</g>
</g>
<g id="Capa_3" display="none">
	<g display="inline">
		<g opacity="0.3">
			<path fill="#1D1D1B" d="M36.613,44.146c0,1.832-1.485,3.315-3.318,3.315l0,0c-1.832,0-3.317-1.483-3.317-3.315V12.37
				c0-1.833,1.485-3.318,3.317-3.318l0,0c1.833,0,3.318,1.485,3.318,3.318V44.146z"/>
			<circle fill="#1D1D1B" cx="33.295" cy="54.227" r="3.409"/>
		</g>
		<g>
			<g>
				<path fill="#FFFFFF" d="M35.318,42.852c0,1.832-1.486,3.316-3.318,3.316l0,0c-1.833,0-3.318-1.484-3.318-3.316V11.075
					c0-1.833,1.485-3.318,3.318-3.318l0,0c1.832,0,3.318,1.485,3.318,3.318V42.852z"/>
				<circle fill="#FFFFFF" cx="32" cy="52.932" r="3.409"/>
			</g>
		</g>
	</g>
</g>
<g id="Capa_4" display="none">
	<g display="inline">
		<g opacity="0.3">
			<path fill="#1D1D1B" d="M34.499,56.361h-2.611c-1.542,0-2.837-1.102-3.082-2.618l-0.604-3.611
				c-1.531-0.446-2.973-1.088-4.303-1.907l-3.129,1.965c-0.498,0.313-1.074,0.479-1.663,0.479c-0.892,0-1.744-0.383-2.338-1.051
				l-1.732-1.951c-1.02-1.147-1.06-2.849-0.095-4.041l2.288-2.834c-0.395-0.83-0.727-1.709-0.995-2.625l-3.644-0.608
				c-1.512-0.25-2.611-1.548-2.611-3.082v-2.61c0-1.537,1.099-2.834,2.614-3.083l3.642-0.609c0.355-1.204,0.837-2.363,1.438-3.462
				l-2.085-2.921c-0.893-1.246-0.754-2.94,0.33-4.026l1.846-1.847c0.592-0.59,1.377-0.915,2.211-0.915
				c0.655,0,1.283,0.201,1.816,0.581l2.914,2.08c1.114-0.611,2.285-1.097,3.498-1.453l0.605-3.621
				c0.243-1.51,1.539-2.611,3.081-2.611h2.611c1.537,0,2.834,1.1,3.084,2.614l0.603,3.616c1.582,0.462,3.076,1.136,4.457,2.01
				l3.067-1.929c0.496-0.314,1.072-0.48,1.662-0.48c0.892,0,1.744,0.382,2.338,1.05l1.735,1.952
				c1.021,1.151,1.061,2.851,0.094,4.042l-2.307,2.859c0.365,0.792,0.676,1.618,0.924,2.47l3.595,0.599
				c1.511,0.248,2.61,1.544,2.612,3.082v2.61c0,1.537-1.1,2.834-2.614,3.082l-3.593,0.601c-0.354,1.207-0.836,2.37-1.442,3.479
				l2.181,3.056c0.895,1.242,0.756,2.936-0.332,4.024l-1.846,1.847c-0.589,0.592-1.375,0.918-2.211,0.918
				c-0.656,0-1.283-0.203-1.816-0.586l-3.063-2.187c-1.098,0.597-2.25,1.072-3.441,1.422l-0.603,3.619
				C37.333,55.264,36.036,56.361,34.499,56.361z M23.91,45.595c0.237,0,0.474,0.07,0.678,0.212c1.486,1.018,3.154,1.756,4.958,2.196
				c0.466,0.115,0.819,0.496,0.898,0.972l0.733,4.379c0.057,0.354,0.355,0.604,0.71,0.604h2.611c0.355,0,0.654-0.252,0.713-0.603
				l0.73-4.383c0.078-0.475,0.433-0.854,0.899-0.971c1.485-0.363,2.91-0.951,4.234-1.75c0.411-0.248,0.929-0.229,1.319,0.051
				l3.691,2.637c0.155,0.111,0.313,0.136,0.417,0.136c0.192,0,0.374-0.076,0.511-0.214l1.846-1.846
				c0.252-0.25,0.285-0.639,0.078-0.926l-2.631-3.688c-0.279-0.394-0.299-0.912-0.049-1.322c0.807-1.33,1.402-2.766,1.77-4.266
				c0.113-0.467,0.496-0.822,0.97-0.9l4.356-0.729c0.352-0.058,0.604-0.357,0.604-0.711v-2.61c0-0.354-0.254-0.655-0.602-0.712
				l-4.359-0.727c-0.475-0.079-0.855-0.433-0.971-0.9c-0.293-1.202-0.725-2.352-1.277-3.416c-0.221-0.424-0.17-0.938,0.131-1.31
				l2.789-3.458c0.225-0.276,0.213-0.669-0.023-0.936l-1.731-1.95c-0.229-0.255-0.634-0.317-0.924-0.133l-3.729,2.343
				c-0.408,0.257-0.932,0.245-1.328-0.032c-1.535-1.074-3.25-1.847-5.095-2.299c-0.468-0.114-0.821-0.496-0.899-0.97l-0.729-4.38
				c-0.059-0.351-0.357-0.604-0.713-0.604h-2.611c-0.355,0-0.653,0.251-0.709,0.598l-0.734,4.389
				c-0.079,0.474-0.433,0.855-0.9,0.969c-1.507,0.369-2.949,0.968-4.285,1.78c-0.411,0.25-0.931,0.231-1.323-0.048l-3.543-2.528
				c-0.28-0.2-0.688-0.166-0.932,0.077l-1.844,1.845c-0.25,0.25-0.282,0.642-0.076,0.93l2.535,3.552
				c0.28,0.391,0.299,0.911,0.049,1.322c-0.8,1.318-1.395,2.75-1.767,4.254c-0.115,0.466-0.496,0.818-0.968,0.897l-4.405,0.736
				c-0.351,0.058-0.604,0.357-0.604,0.712v2.609c0,0.354,0.253,0.654,0.602,0.711l4.408,0.736c0.473,0.08,0.854,0.432,0.968,0.898
				c0.315,1.274,0.769,2.473,1.35,3.555c0.229,0.426,0.18,0.947-0.124,1.322l-2.776,3.438c-0.223,0.275-0.213,0.669,0.023,0.935
				l1.731,1.951c0.228,0.254,0.635,0.315,0.926,0.133l3.781-2.375C23.466,45.657,23.688,45.595,23.91,45.595z M33.24,42.618
				c-5.21,0-9.448-4.238-9.448-9.448c0-5.209,4.238-9.447,9.448-9.447c5.21,0,9.447,4.238,9.447,9.447
				C42.688,38.38,38.45,42.618,33.24,42.618z M33.24,26.126c-3.885,0-7.045,3.16-7.045,7.044c0,3.885,3.16,7.044,7.045,7.044
				c3.885,0,7.045-3.159,7.045-7.044C40.285,29.286,37.125,26.126,33.24,26.126z"/>
		</g>
		<g>
			<g>
				<path fill="#FFFFFF" d="M33.328,55.191h-2.61c-1.542,0-2.837-1.103-3.082-2.619l-0.604-3.611
					c-1.531-0.447-2.973-1.088-4.303-1.908L19.6,49.018c-0.498,0.314-1.074,0.48-1.663,0.48c-0.892,0-1.744-0.383-2.338-1.051
					l-1.732-1.951c-1.02-1.148-1.06-2.848-0.095-4.041l2.288-2.834c-0.395-0.83-0.727-1.709-0.995-2.625l-3.644-0.609
					c-1.512-0.25-2.611-1.547-2.611-3.082v-2.609c0-1.537,1.099-2.834,2.614-3.083l3.642-0.609c0.355-1.204,0.837-2.363,1.438-3.462
					l-2.085-2.921c-0.893-1.246-0.754-2.94,0.33-4.026l1.846-1.847c0.592-0.59,1.377-0.915,2.211-0.915
					c0.655,0,1.283,0.201,1.816,0.581l2.914,2.08c1.114-0.611,2.285-1.097,3.498-1.453l0.605-3.621
					c0.243-1.51,1.539-2.611,3.081-2.611h2.61c1.537,0,2.834,1.1,3.084,2.614l0.602,3.616c1.582,0.462,3.076,1.136,4.457,2.01
					l3.068-1.929c0.496-0.314,1.072-0.48,1.662-0.48c0.893,0,1.744,0.382,2.338,1.05l1.734,1.952
					c1.021,1.151,1.062,2.851,0.095,4.042l-2.306,2.859c0.365,0.792,0.675,1.618,0.922,2.47l3.596,0.599
					c1.511,0.248,2.609,1.544,2.611,3.082v2.611c0,1.537-1.1,2.834-2.613,3.082l-3.594,0.6c-0.353,1.207-0.836,2.371-1.441,3.479
					l2.18,3.056c0.896,1.242,0.758,2.936-0.33,4.024l-1.847,1.847c-0.589,0.592-1.375,0.918-2.211,0.918
					c-0.655,0-1.284-0.203-1.817-0.586l-3.062-2.187c-1.099,0.596-2.25,1.071-3.44,1.422l-0.604,3.619
					C36.162,54.092,34.865,55.191,33.328,55.191z M22.74,44.424c0.237,0,0.474,0.07,0.678,0.211
					c1.486,1.018,3.154,1.756,4.958,2.197c0.466,0.115,0.819,0.496,0.898,0.971l0.733,4.379c0.057,0.354,0.355,0.605,0.71,0.605
					h2.61c0.354,0,0.655-0.252,0.713-0.602l0.729-4.384c0.08-0.475,0.434-0.854,0.9-0.971c1.484-0.363,2.91-0.951,4.234-1.75
					c0.41-0.248,0.929-0.229,1.32,0.051l3.69,2.638c0.155,0.11,0.313,0.135,0.417,0.135c0.191,0,0.374-0.076,0.511-0.213
					l1.847-1.847c0.25-0.25,0.283-0.639,0.078-0.926l-2.632-3.688c-0.278-0.393-0.299-0.912-0.049-1.321
					c0.808-1.33,1.402-2.767,1.771-4.267c0.113-0.467,0.494-0.822,0.969-0.899l4.355-0.729c0.353-0.057,0.604-0.356,0.604-0.711
					v-2.609c0-0.354-0.254-0.655-0.603-0.712l-4.358-0.727c-0.476-0.079-0.854-0.433-0.972-0.9
					c-0.293-1.202-0.724-2.352-1.276-3.416c-0.222-0.424-0.17-0.938,0.131-1.31l2.789-3.458c0.224-0.276,0.213-0.669-0.022-0.936
					l-1.732-1.95c-0.229-0.255-0.635-0.317-0.924-0.133l-3.729,2.343c-0.407,0.257-0.932,0.245-1.327-0.032
					c-1.537-1.074-3.25-1.847-5.096-2.299c-0.468-0.114-0.82-0.496-0.898-0.97l-0.729-4.38c-0.058-0.351-0.356-0.604-0.713-0.604
					h-2.61c-0.355,0-0.653,0.251-0.709,0.598l-0.734,4.389c-0.079,0.474-0.433,0.854-0.9,0.969c-1.507,0.369-2.949,0.968-4.285,1.78
					c-0.411,0.25-0.931,0.231-1.323-0.048l-3.543-2.528c-0.28-0.2-0.688-0.166-0.932,0.077l-1.844,1.845
					c-0.25,0.25-0.282,0.642-0.076,0.93l2.535,3.552c0.28,0.391,0.299,0.911,0.049,1.322c-0.8,1.318-1.395,2.75-1.767,4.254
					c-0.115,0.466-0.496,0.818-0.968,0.897l-4.405,0.736c-0.351,0.058-0.604,0.357-0.604,0.712v2.61
					c0,0.354,0.253,0.653,0.602,0.711l4.408,0.735c0.473,0.08,0.854,0.433,0.968,0.897c0.315,1.275,0.769,2.474,1.35,3.556
					c0.229,0.426,0.18,0.946-0.124,1.321l-2.776,3.439c-0.223,0.275-0.213,0.668,0.023,0.934l1.731,1.951
					c0.228,0.254,0.635,0.316,0.926,0.133l3.781-2.375C22.296,44.486,22.518,44.424,22.74,44.424z M32.069,41.447
					c-5.209,0-9.448-4.238-9.448-9.448s4.238-9.447,9.448-9.447c5.21,0,9.449,4.238,9.449,9.447S37.279,41.447,32.069,41.447z
					 M32.069,24.956c-3.884,0-7.044,3.16-7.044,7.044c0,3.883,3.16,7.043,7.044,7.043c3.885,0,7.045-3.16,7.045-7.043
					C39.114,28.115,35.954,24.956,32.069,24.956z"/>
			</g>
		</g>
	</g>
</g>
<g id="Capa_5" display="none">
	<g display="inline">
		<g>
			<g opacity="0.3">
				<path fill="#1D1D1B" d="M52.342,47.045c-0.189-0.438-4.677-10.791-8.713-14.035c-0.535-0.43-1.307-0.4-1.813,0.061
					c-0.034,0.031-3.49,3.135-8.688,3.135c-5.74,0-8.363-2.898-8.465-3.014c-0.008-0.01-0.018-0.017-0.026-0.024
					c-0.039-0.044-0.083-0.083-0.128-0.122c-0.026-0.021-0.05-0.045-0.077-0.064c-0.047-0.035-0.099-0.064-0.15-0.094
					c-0.029-0.017-0.056-0.035-0.086-0.049c-0.054-0.025-0.111-0.044-0.169-0.063c-0.031-0.01-0.06-0.022-0.091-0.03
					c-0.059-0.015-0.119-0.021-0.18-0.026c-0.029-0.004-0.057-0.012-0.086-0.013c-0.004-0.001-0.008,0-0.013,0
					c-0.034-0.001-0.069,0.004-0.104,0.005c-0.161,0.005-0.317,0.033-0.463,0.092c-0.001,0.002-0.003,0.002-0.005,0.004
					c-0.081,0.032-0.16,0.072-0.234,0.12c-0.077,0.05-0.149,0.107-0.215,0.173c-3.315,3.227-8.471,13.438-8.688,13.873
					c-0.2,0.396-0.198,0.862,0.004,1.258c0.205,0.398,5.163,9.76,19.176,9.76c13.019,0,18.878-9.27,19.121-9.663
					C52.486,47.939,52.521,47.461,52.342,47.045z M16.777,47.543c1.285-2.495,3.835-7.173,5.992-10.227l3.004,16.781
					C20.372,52.325,17.677,48.914,16.777,47.543z M32.161,54.621h-3.468l-0.887-4.954h4.355c0.612,0,2.61,0.183,2.61,2.521
					C34.771,53.393,34.461,54.621,32.161,54.621z M36.963,54.879c0.387-0.751,0.592-1.652,0.592-2.689
					c0-3.646-2.797-5.305-5.394-5.305h-4.853l-1.727-9.643c1.734,0.906,4.231,1.744,7.545,1.744c4.556,0,7.946-1.928,9.552-3.063
					c2.537,2.698,5.477,8.586,6.797,11.517C48.249,49.057,44.215,53.621,36.963,54.879z"/>
			</g>
			<g>
				<path fill="#FFFFFF" d="M51.215,45.918c-0.189-0.438-4.677-10.791-8.713-14.035c-0.535-0.429-1.307-0.401-1.813,0.061
					c-0.035,0.031-3.49,3.133-8.688,3.133c-5.74,0-8.363-2.898-8.465-3.014c-0.008-0.009-0.018-0.015-0.026-0.024
					c-0.039-0.044-0.083-0.083-0.128-0.122c-0.026-0.022-0.05-0.045-0.077-0.065c-0.047-0.035-0.099-0.064-0.15-0.093
					c-0.029-0.016-0.056-0.035-0.086-0.048c-0.054-0.025-0.111-0.044-0.169-0.062c-0.031-0.01-0.06-0.023-0.091-0.031
					c-0.059-0.014-0.119-0.02-0.18-0.027c-0.029-0.003-0.057-0.011-0.086-0.013c-0.004,0-0.008,0-0.013,0
					c-0.034-0.001-0.069,0.003-0.104,0.005c-0.161,0.004-0.317,0.033-0.463,0.092c-0.001,0.001-0.003,0.002-0.005,0.003
					c-0.081,0.033-0.16,0.073-0.234,0.121c-0.077,0.05-0.149,0.107-0.215,0.171c-3.315,3.228-8.471,13.439-8.688,13.873
					c-0.2,0.396-0.198,0.863,0.004,1.259c0.205,0.398,5.163,9.76,19.176,9.76c13.017,0,18.877-9.27,19.121-9.663
					C51.359,46.813,51.395,46.334,51.215,45.918z M15.65,46.416c1.285-2.495,3.835-7.173,5.992-10.227l3.004,16.78
					C19.245,51.198,16.551,47.787,15.65,46.416z M31.034,53.494h-3.468l-0.887-4.954h4.355c0.612,0,2.61,0.183,2.61,2.521
					C33.645,52.266,33.334,53.494,31.034,53.494z M35.836,53.752c0.387-0.751,0.591-1.652,0.591-2.689
					c0-3.646-2.796-5.305-5.393-5.305h-4.853l-1.727-9.643c1.734,0.906,4.231,1.744,7.545,1.744c4.554,0,7.946-1.928,9.551-3.063
					c2.537,2.698,5.478,8.586,6.796,11.517C47.122,47.93,43.088,52.494,35.836,53.752z"/>
			</g>
		</g>
		<g>
			<g opacity="0.3">
				<path fill="#1D1D1B" d="M24.517,30.373c1.11,1.108,2.417,1.988,3.88,2.611c1.465,0.629,3.047,0.947,4.701,0.947
					c1.68,0,3.269-0.317,4.726-0.945c1.44-0.625,2.729-1.504,3.831-2.618c1.088-1.106,1.957-2.412,2.582-3.877
					c0.629-1.465,0.947-3.046,0.947-4.698c0-1.687-0.319-3.277-0.947-4.722c-0.621-1.444-1.491-2.732-2.586-3.83
					c-1.098-1.097-2.387-1.968-3.825-2.587c-1.449-0.63-3.04-0.949-4.728-0.949H22.346c-0.768,0-1.391,0.623-1.391,1.391v10.699
					c0.002,1.646,0.321,3.226,0.947,4.697C22.531,27.96,23.41,29.266,24.517,30.373z M23.738,12.486h9.36
					c1.305,0,2.521,0.242,3.625,0.721c1.118,0.481,2.114,1.154,2.959,2c0.846,0.847,1.519,1.844,2.002,2.967
					c0.478,1.098,0.719,2.315,0.719,3.618c0,1.273-0.242,2.485-0.723,3.604c-0.49,1.147-1.166,2.163-2.007,3.019
					c-0.847,0.857-1.841,1.536-2.952,2.016c-1.104,0.477-2.324,0.718-3.623,0.718c-1.273,0-2.487-0.243-3.606-0.723
					c-1.138-0.485-2.15-1.165-3.007-2.021c-0.854-0.854-1.535-1.866-2.022-3.005c-0.479-1.124-0.723-2.338-0.724-3.607V12.486z"/>
			</g>
			<g>
				<path fill="#FFFFFF" d="M23.391,29.246c1.11,1.108,2.417,1.988,3.88,2.611c1.465,0.628,3.047,0.946,4.701,0.946
					c1.678,0,3.268-0.317,4.725-0.945c1.441-0.624,2.729-1.504,3.83-2.618c1.089-1.106,1.957-2.412,2.584-3.877
					c0.628-1.465,0.945-3.046,0.945-4.698c0-1.687-0.318-3.277-0.947-4.722c-0.62-1.444-1.49-2.732-2.586-3.83
					c-1.097-1.097-2.385-1.968-3.824-2.587c-1.449-0.63-3.04-0.949-4.727-0.949H21.22c-0.768,0-1.391,0.623-1.391,1.391v10.699
					c0.002,1.646,0.321,3.226,0.947,4.697C21.404,26.833,22.284,28.14,23.391,29.246z M22.611,11.36h9.36
					c1.304,0,2.521,0.242,3.623,0.721c1.119,0.481,2.115,1.154,2.961,2c0.844,0.847,1.518,1.844,2,2.967
					c0.479,1.098,0.721,2.315,0.721,3.618c0,1.273-0.243,2.485-0.724,3.604c-0.489,1.147-1.166,2.163-2.007,3.019
					c-0.847,0.857-1.841,1.536-2.952,2.016c-1.104,0.477-2.323,0.718-3.622,0.718c-1.275,0-2.488-0.243-3.607-0.723
					c-1.138-0.485-2.15-1.165-3.007-2.021c-0.854-0.854-1.535-1.866-2.022-3.005c-0.479-1.124-0.723-2.338-0.724-3.607V11.36z"/>
			</g>
		</g>
	</g>
</g>
<g id="Capa_6">
	<g>
		<g>
			<g opacity="0.3">
				<path fill="#1D1D1B" d="M49.926,48.561h5.51v2.454h-5.51v6.337h-2.715v-6.337h-5.549v-2.454h5.549V42.72h2.715V48.561z"/>
			</g>
			<g>
				<g>
					<path fill="#FFFFFF" d="M48.567,47.201h5.51v2.455h-5.51v6.337h-2.715v-6.337h-5.549v-2.455h5.549V41.36h2.715V47.201z"/>
				</g>
			</g>
		</g>
		<g>
			<path fill="none" d="M25.428,49.536h-5.254l1.07,5.974h4.184c2.773,0,3.148-1.483,3.148-2.935
				C28.576,49.755,26.167,49.536,25.428,49.536z"/>
			<path fill="none" d="M6.87,46.972c1.086,1.654,4.336,5.769,10.853,7.908l-3.624-20.244C11.498,38.32,8.42,43.962,6.87,46.972z"/>
			<path fill="none" d="M18.579,23.885c1.035,1.033,2.255,1.853,3.626,2.438c1.351,0.579,2.813,0.872,4.354,0.872
				c1.566,0,3.036-0.291,4.368-0.866c1.342-0.58,2.54-1.398,3.564-2.433c1.014-1.032,1.828-2.257,2.418-3.64
				c0.578-1.351,0.87-2.813,0.87-4.349c0-1.571-0.29-3.04-0.866-4.363c-0.58-1.355-1.393-2.56-2.413-3.58
				c-1.022-1.02-2.222-1.831-3.573-2.412c-1.329-0.579-2.796-0.871-4.368-0.871H15.267v11.225c0.002,1.532,0.296,2.997,0.872,4.352
				C16.729,21.637,17.55,22.855,18.579,23.885z"/>
			<path fill="none" d="M41.426,37.509c-1.094-1.779-2.232-3.408-3.313-4.553c-1.934,1.369-6.023,3.693-11.52,3.693
				c-3.998,0-7.01-1.01-9.102-2.103l2.082,11.632h5.856c3.133,0,6.504,2.002,6.504,6.397c0,1.252-0.247,2.34-0.713,3.248
				c1.765-0.308,3.363-0.78,4.818-1.348c-0.909-1.736-1.423-3.708-1.423-5.8C34.616,43.821,37.384,39.603,41.426,37.509z"/>
			<g>
				<g opacity="0.3">
					<path fill="#1D1D1B" d="M17.566,27.618c1.338,1.338,2.917,2.398,4.681,3.152c1.767,0.756,3.674,1.14,5.671,1.14
						c2.025,0,3.941-0.382,5.699-1.139c1.736-0.753,3.292-1.814,4.621-3.159c1.312-1.335,2.361-2.909,3.116-4.679
						c0.76-1.766,1.141-3.674,1.141-5.666c0-2.034-0.384-3.953-1.144-5.697c-0.747-1.741-1.798-3.295-3.118-4.619
						c-1.324-1.322-2.88-2.373-4.613-3.12c-1.747-0.758-3.669-1.146-5.702-1.146H14.946c-0.926,0-1.678,0.753-1.678,1.679v12.907
						c0.002,1.985,0.388,3.892,1.143,5.666C15.171,24.709,16.23,26.285,17.566,27.618z M16.625,6.042h11.292
						c1.572,0,3.04,0.292,4.367,0.87c1.352,0.581,2.553,1.392,3.574,2.412c1.02,1.02,1.832,2.225,2.412,3.58
						c0.576,1.324,0.868,2.792,0.868,4.364c0,1.535-0.294,2.997-0.872,4.348c-0.59,1.383-1.403,2.609-2.417,3.641
						c-1.026,1.033-2.225,1.852-3.565,2.431c-1.333,0.576-2.801,0.867-4.367,0.867c-1.539,0-3.002-0.294-4.354-0.872
						c-1.372-0.585-2.592-1.406-3.626-2.438c-1.031-1.03-1.851-2.25-2.439-3.626c-0.577-1.355-0.871-2.82-0.873-4.352V6.042z"/>
				</g>
				<g>
					<path fill="#FFFFFF" d="M16.208,26.26c1.338,1.337,2.915,2.397,4.679,3.15c1.768,0.757,3.676,1.141,5.672,1.141
						c2.025,0,3.941-0.383,5.699-1.139c1.737-0.752,3.292-1.813,4.621-3.158c1.313-1.335,2.361-2.909,3.117-4.678
						c0.759-1.768,1.14-3.674,1.14-5.667c0-2.034-0.383-3.953-1.144-5.696c-0.747-1.74-1.797-3.295-3.117-4.619
						c-1.325-1.322-2.88-2.373-4.615-3.122c-1.747-0.758-3.668-1.144-5.701-1.144H13.588c-0.927,0-1.678,0.752-1.678,1.679v12.906
						c0.002,1.986,0.387,3.892,1.143,5.666C13.812,23.351,14.872,24.925,16.208,26.26z M15.267,4.683h11.292
						c1.572,0,3.04,0.292,4.368,0.87c1.352,0.581,2.551,1.393,3.573,2.411c1.021,1.021,1.833,2.225,2.413,3.581
						c0.576,1.324,0.866,2.792,0.866,4.363c0,1.535-0.292,2.998-0.87,4.349c-0.59,1.382-1.404,2.608-2.418,3.64
						c-1.025,1.034-2.223,1.853-3.564,2.433c-1.333,0.574-2.802,0.866-4.368,0.866c-1.538,0-3.002-0.293-4.354-0.873
						c-1.372-0.584-2.592-1.405-3.626-2.438c-1.031-1.03-1.85-2.25-2.44-3.625c-0.576-1.355-0.87-2.82-0.872-4.352V4.683z"/>
				</g>
			</g>
			<g>
				<g opacity="0.3">
					<path fill="#1D1D1B" d="M48.548,37.461c-0.868,0-1.718,0.087-2.535,0.257c-1.674-2.789-3.569-5.453-5.392-6.918
						c-0.646-0.519-1.579-0.485-2.191,0.074c-0.039,0.037-4.209,3.78-10.48,3.78c-6.922,0-10.087-3.498-10.21-3.635
						c-0.01-0.011-0.021-0.021-0.031-0.028c-0.048-0.055-0.102-0.101-0.153-0.148c-0.032-0.026-0.061-0.054-0.093-0.078
						c-0.057-0.042-0.12-0.078-0.181-0.113c-0.036-0.021-0.069-0.042-0.103-0.06c-0.065-0.029-0.134-0.052-0.204-0.075
						c-0.038-0.012-0.073-0.026-0.11-0.037c-0.071-0.016-0.145-0.024-0.218-0.032c-0.035-0.005-0.07-0.014-0.105-0.015
						c-0.005-0.001-0.01,0-0.014,0c-0.041-0.001-0.083,0.003-0.126,0.005c-0.194,0.004-0.382,0.039-0.558,0.111
						c-0.002,0-0.003,0.002-0.006,0.002c-0.098,0.043-0.194,0.088-0.281,0.147c-0.095,0.062-0.181,0.13-0.26,0.208
						C11.297,34.8,5.078,47.118,4.814,47.641c-0.241,0.479-0.239,1.042,0.005,1.52c0.246,0.479,6.227,11.771,23.132,11.771
						c4.525,0,8.33-0.932,11.464-2.264c2.296,2.425,5.54,3.943,9.133,3.943c6.933,0,12.573-5.643,12.573-12.575
						C61.121,43.102,55.48,37.461,48.548,37.461z M8.229,48.329c1.55-3.008,4.628-8.651,7.228-12.335l3.624,20.244
						C12.565,54.101,9.315,49.984,8.229,48.329z M26.788,56.868h-4.185l-1.07-5.974h5.255c0.737,0,3.146,0.22,3.146,3.042
						C29.934,55.388,29.563,56.868,26.788,56.868z M32.58,57.182c0.465-0.907,0.711-1.995,0.711-3.247
						c0-4.396-3.37-6.398-6.502-6.398h-5.855l-2.083-11.631c2.091,1.093,5.104,2.101,9.101,2.101c5.497,0,9.589-2.32,11.521-3.693
						c1.082,1.145,2.218,2.773,3.313,4.554c-4.041,2.093-6.81,6.313-6.81,11.166c0,2.092,0.513,4.063,1.422,5.802
						C35.944,56.402,34.346,56.875,32.58,57.182z M48.548,59.253c-2.269,0-4.343-0.824-5.951-2.188
						c-0.879-0.746-1.615-1.648-2.165-2.668c-0.702-1.3-1.101-2.785-1.101-4.361c0-3.616,2.097-6.745,5.139-8.254
						c1.014-0.506,2.135-0.83,3.318-0.928c0.253-0.02,0.503-0.037,0.76-0.037c5.084,0,9.218,4.135,9.218,9.219
						S53.632,59.253,48.548,59.253z"/>
				</g>
				<g>
					<path fill="#FFFFFF" d="M47.189,36.104c-0.868,0-1.717,0.086-2.535,0.256c-1.674-2.789-3.57-5.454-5.392-6.919
						c-0.646-0.518-1.58-0.483-2.191,0.075c-0.04,0.037-4.209,3.779-10.48,3.779c-6.923,0-10.087-3.497-10.211-3.635
						c-0.01-0.011-0.022-0.02-0.031-0.03c-0.047-0.053-0.1-0.101-0.154-0.147c-0.03-0.026-0.061-0.053-0.093-0.078
						c-0.056-0.042-0.119-0.078-0.181-0.113c-0.035-0.02-0.067-0.043-0.103-0.058c-0.065-0.03-0.134-0.054-0.205-0.076
						c-0.037-0.012-0.072-0.026-0.109-0.037c-0.072-0.016-0.144-0.024-0.217-0.032c-0.036-0.004-0.07-0.014-0.106-0.016
						c-0.004-0.001-0.009,0-0.014,0c-0.042-0.001-0.083,0.004-0.125,0.007c-0.195,0.004-0.383,0.038-0.558,0.109
						c-0.003,0-0.004,0.002-0.006,0.003c-0.098,0.042-0.193,0.087-0.281,0.146c-0.094,0.06-0.182,0.129-0.259,0.206
						C9.938,33.439,3.719,45.759,3.455,46.282c-0.241,0.478-0.238,1.042,0.006,1.519c0.245,0.479,6.227,11.771,23.131,11.771
						c4.525,0,8.331-0.931,11.465-2.265c2.294,2.426,5.539,3.945,9.132,3.945c6.934,0,12.573-5.643,12.573-12.575
						C59.763,41.742,54.123,36.104,47.189,36.104z M6.87,46.972c1.55-3.01,4.628-8.651,7.228-12.336l3.624,20.244
						C11.206,52.742,7.956,48.626,6.87,46.972z M25.428,55.51h-4.184l-1.07-5.974h5.254c0.738,0,3.148,0.219,3.148,3.04
						C28.576,54.028,28.204,55.51,25.428,55.51z M31.221,55.821c0.466-0.905,0.713-1.993,0.713-3.246
						c0-4.396-3.371-6.397-6.504-6.397h-5.856l-2.082-11.631c2.092,1.093,5.104,2.101,9.102,2.101c5.497,0,9.587-2.322,11.52-3.694
						c1.081,1.146,2.219,2.774,3.313,4.555c-4.042,2.093-6.81,6.313-6.81,11.166c0,2.091,0.514,4.062,1.423,5.8
						C34.584,55.044,32.985,55.517,31.221,55.821z M47.189,57.896c-2.27,0-4.343-0.825-5.952-2.19
						c-0.878-0.745-1.616-1.647-2.165-2.667c-0.701-1.3-1.1-2.785-1.1-4.361c0-3.618,2.096-6.745,5.138-8.256
						c1.015-0.504,2.135-0.828,3.319-0.926c0.252-0.021,0.503-0.037,0.76-0.037c5.084,0,9.218,4.135,9.218,9.219
						C56.407,53.76,52.273,57.896,47.189,57.896z"/>
				</g>
			</g>
		</g>
	</g>
</g>
</svg>
