<?xml version="1.0" encoding="utf-8"?>
<!-- Generator: Adobe Illustrator 16.0.0, SVG Export Plug-In . SVG Version: 6.00 Build 0)  -->
<!DOCTYPE svg PUBLIC "-//W3C//DTD SVG 1.1//EN" "http://www.w3.org/Graphics/SVG/1.1/DTD/svg11.dtd">
<svg version="1.1" xmlns="http://www.w3.org/2000/svg" xmlns:xlink="http://www.w3.org/1999/xlink" x="0px" y="0px" width="64px"
	 height="64px" viewBox="0 0 64 64" enable-background="new 0 0 64 64" xml:space="preserve">
<g id="Capa_1">
	<path fill="#0082CA" d="M64,32.077c0-0.028-0.002-0.056-0.002-0.084c0-0.023,0.002-0.047,0.002-0.07
		c0-4.445-0.831-8.634-2.485-12.453c-1.658-3.836-3.962-7.249-6.846-10.136c-2.89-2.888-6.295-5.192-10.131-6.845
		C40.72,0.832,36.523,0,32.086,0h-0.155c-0.005,0-0.011,0-0.016,0s-0.01,0-0.016,0H0v31.923c0,0.028,0.002,0.056,0.002,0.084
		c0,0.023-0.001,0.047-0.001,0.07c0,4.444,0.831,8.634,2.485,12.452c1.658,3.838,3.961,7.25,6.845,10.139
		c2.89,2.887,6.295,5.189,10.131,6.844C23.281,63.168,27.477,64,31.915,64h0.155c0.005,0,0.011,0,0.016,0s0.01,0,0.016,0H64V32.077z
		"/>
	
		<path fill="none" stroke="#FFFFFF" stroke-width="2.2121" stroke-linecap="round" stroke-linejoin="round" stroke-miterlimit="10" d="
		M31.268,33.713"/>
</g>
<g id="Capa_2" display="none">
	<g display="inline">
		<g opacity="0.3">
			<path fill="#1D1D1B" d="M42.448,12.329c-2.386-2.2-5.733-3.3-10.045-3.3c-3.939,0-7.184,1.062-9.733,3.185
				c-2.55,2.123-3.792,4.946-3.726,8.47l0.012,0.023c-0.008,0.095-0.014,0.192-0.014,0.29c0,1.806,1.406,3.27,3.142,3.27
				c1.735,0,3.142-1.464,3.142-3.27c0-0.061-0.005-0.12-0.009-0.179c0.015-2.069,0.712-3.642,2.099-4.713
				c1.4-1.083,3.097-1.625,5.088-1.625c2.298,0,4.065,0.624,5.302,1.871c1.236,1.247,1.854,3.031,1.854,5.351
				c0,1.948-0.459,3.611-1.378,4.989c-0.92,1.379-2.463,3.349-4.629,5.91c-2.233,2.014-3.612,3.633-4.137,4.859
				c-0.525,1.225-0.822,3.539-0.843,6.713c0,1.805,1.456,3.27,3.251,3.27c1.754,0,3.18-1.396,3.246-3.145h0.006
				c0-1.99,0.111-3.697,0.364-4.639c0.251-0.941,0.968-2.004,2.149-3.186c2.538-2.45,4.58-4.846,6.122-7.189
				c1.543-2.341,2.314-4.924,2.314-7.748C46.026,17.597,44.834,14.528,42.448,12.329z"/>
			<circle fill="#1D1D1B" cx="31.396" cy="54.168" r="3.348"/>
		</g>
		<g>
			<g>
				<path fill="#FFFFFF" d="M41.176,11.056c-2.385-2.2-5.734-3.3-10.045-3.3c-3.939,0-7.184,1.062-9.733,3.185
					c-2.55,2.123-3.792,4.946-3.726,8.47l0.012,0.023c-0.008,0.095-0.014,0.192-0.014,0.29c0,1.806,1.406,3.27,3.142,3.27
					c1.735,0,3.142-1.464,3.142-3.27c0-0.061-0.005-0.12-0.009-0.179c0.015-2.069,0.712-3.642,2.099-4.713
					c1.4-1.083,3.097-1.625,5.088-1.625c2.298,0,4.064,0.624,5.302,1.871c1.236,1.247,1.854,3.031,1.854,5.351
					c0,1.948-0.459,3.611-1.379,4.989c-0.919,1.379-2.462,3.349-4.628,5.91c-2.232,2.014-3.611,3.634-4.136,4.858
					c-0.525,1.227-0.822,3.539-0.843,6.713c0,1.805,1.456,3.27,3.251,3.27c1.753,0,3.179-1.396,3.245-3.143h0.007
					c0-1.992,0.112-3.699,0.364-4.641c0.25-0.939,0.968-2.002,2.149-3.186c2.538-2.449,4.58-4.845,6.122-7.188
					c1.543-2.341,2.314-4.924,2.314-7.748C44.754,16.324,43.562,13.255,41.176,11.056z"/>
				<circle fill="#FFFFFF" cx="30.123" cy="52.895" r="3.348"/>
			</g>
		</g>
	</g>
</g>
<g id="Capa_3" display="none">
	<g display="inline">
		<g opacity="0.3">
			<path fill="#1D1D1B" d="M36.613,44.146c0,1.832-1.485,3.316-3.318,3.316l0,0c-1.832,0-3.317-1.484-3.317-3.316V12.37
				c0-1.833,1.485-3.318,3.317-3.318l0,0c1.833,0,3.318,1.485,3.318,3.318V44.146z"/>
			<circle fill="#1D1D1B" cx="33.295" cy="54.227" r="3.409"/>
		</g>
		<g>
			<g>
				<path fill="#FFFFFF" d="M35.318,42.852c0,1.832-1.486,3.316-3.318,3.316l0,0c-1.833,0-3.318-1.484-3.318-3.316V11.075
					c0-1.833,1.485-3.318,3.318-3.318l0,0c1.832,0,3.318,1.485,3.318,3.318V42.852z"/>
				<circle fill="#FFFFFF" cx="32" cy="52.932" r="3.409"/>
			</g>
		</g>
	</g>
</g>
<g id="Capa_4" display="none">
	<g display="inline">
		<g opacity="0.3">
			<path fill="#1D1D1B" d="M34.499,56.362h-2.611c-1.542,0-2.837-1.102-3.082-2.619l-0.604-3.611
				c-1.531-0.447-2.973-1.088-4.303-1.908l-3.129,1.965c-0.498,0.314-1.074,0.48-1.663,0.48c-0.892,0-1.744-0.383-2.338-1.051
				l-1.732-1.951c-1.02-1.148-1.06-2.848-0.095-4.041l2.288-2.834c-0.395-0.83-0.727-1.709-0.995-2.625l-3.644-0.609
				c-1.512-0.25-2.611-1.547-2.611-3.082v-2.61c0-1.537,1.099-2.834,2.614-3.083l3.642-0.609c0.355-1.204,0.837-2.363,1.438-3.462
				l-2.085-2.921c-0.893-1.246-0.754-2.94,0.33-4.026l1.846-1.847c0.592-0.59,1.377-0.915,2.211-0.915
				c0.655,0,1.283,0.201,1.816,0.581l2.914,2.08c1.114-0.611,2.285-1.097,3.498-1.453l0.605-3.621
				c0.243-1.51,1.539-2.611,3.081-2.611h2.611c1.537,0,2.834,1.1,3.084,2.614l0.602,3.616c1.582,0.462,3.076,1.136,4.457,2.01
				l3.068-1.929c0.496-0.314,1.072-0.48,1.662-0.48c0.892,0,1.744,0.382,2.338,1.05l1.735,1.952
				c1.021,1.151,1.061,2.851,0.094,4.042l-2.306,2.859c0.365,0.792,0.675,1.618,0.923,2.47l3.595,0.599
				c1.511,0.248,2.61,1.544,2.612,3.082v2.611c0,1.537-1.1,2.834-2.614,3.082l-3.593,0.6c-0.353,1.207-0.836,2.371-1.442,3.479
				l2.18,3.055c0.895,1.242,0.757,2.936-0.331,4.025l-1.846,1.846c-0.589,0.592-1.375,0.918-2.211,0.918
				c-0.656,0-1.284-0.203-1.817-0.586l-3.062-2.186c-1.098,0.596-2.25,1.072-3.441,1.422l-0.603,3.619
				C37.333,55.263,36.036,56.362,34.499,56.362z M23.91,45.595c0.237,0,0.474,0.07,0.678,0.211c1.486,1.018,3.154,1.756,4.958,2.197
				c0.466,0.115,0.819,0.496,0.898,0.971l0.733,4.379c0.057,0.354,0.355,0.605,0.71,0.605h2.611c0.355,0,0.655-0.252,0.713-0.602
				l0.73-4.383c0.079-0.475,0.433-0.855,0.9-0.971c1.485-0.363,2.91-0.951,4.234-1.75c0.411-0.248,0.929-0.229,1.32,0.051
				l3.691,2.637c0.155,0.111,0.313,0.135,0.417,0.135c0.192,0,0.374-0.076,0.511-0.213l1.846-1.846
				c0.251-0.25,0.284-0.639,0.078-0.926l-2.631-3.688c-0.279-0.393-0.299-0.912-0.049-1.322c0.807-1.33,1.402-2.766,1.77-4.266
				c0.113-0.467,0.495-0.822,0.969-0.9l4.356-0.729c0.352-0.057,0.604-0.357,0.604-0.711v-2.61c0-0.354-0.254-0.655-0.602-0.712
				l-4.359-0.727c-0.475-0.079-0.855-0.433-0.971-0.9c-0.293-1.202-0.724-2.352-1.277-3.416c-0.221-0.424-0.17-0.938,0.131-1.31
				l2.789-3.458c0.224-0.276,0.213-0.669-0.023-0.936l-1.732-1.95c-0.229-0.255-0.634-0.317-0.924-0.133l-3.729,2.343
				c-0.408,0.257-0.932,0.245-1.328-0.032c-1.536-1.074-3.25-1.847-5.095-2.299c-0.468-0.114-0.821-0.496-0.899-0.97l-0.729-4.38
				c-0.058-0.351-0.357-0.604-0.713-0.604h-2.611c-0.355,0-0.653,0.251-0.709,0.598l-0.734,4.389
				c-0.079,0.474-0.433,0.855-0.9,0.969c-1.507,0.369-2.949,0.968-4.285,1.78c-0.411,0.25-0.931,0.231-1.323-0.048l-3.543-2.528
				c-0.28-0.2-0.688-0.166-0.932,0.077l-1.844,1.845c-0.25,0.25-0.282,0.642-0.076,0.93l2.535,3.552
				c0.28,0.391,0.299,0.911,0.049,1.322c-0.8,1.318-1.395,2.75-1.767,4.254c-0.115,0.466-0.496,0.818-0.968,0.897l-4.405,0.736
				c-0.351,0.058-0.604,0.357-0.604,0.712v2.61c0,0.354,0.253,0.654,0.602,0.711l4.408,0.736c0.473,0.08,0.854,0.432,0.968,0.898
				c0.315,1.275,0.769,2.473,1.35,3.555c0.229,0.426,0.18,0.947-0.124,1.322l-2.776,3.439c-0.223,0.275-0.213,0.668,0.023,0.934
				l1.731,1.951c0.228,0.254,0.635,0.316,0.926,0.133l3.781-2.375C23.466,45.657,23.688,45.595,23.91,45.595z M33.24,42.618
				c-5.21,0-9.448-4.238-9.448-9.448c0-5.209,4.238-9.447,9.448-9.447s9.448,4.238,9.448,9.447
				C42.688,38.38,38.45,42.618,33.24,42.618z M33.24,26.126c-3.885,0-7.045,3.16-7.045,7.044c0,3.884,3.16,7.044,7.045,7.044
				s7.045-3.16,7.045-7.044C40.285,29.286,37.125,26.126,33.24,26.126z"/>
		</g>
		<g>
			<g>
				<path fill="#FFFFFF" d="M33.328,55.191h-2.61c-1.542,0-2.837-1.102-3.082-2.619l-0.604-3.611
					c-1.531-0.447-2.973-1.088-4.303-1.908l-3.129,1.965c-0.498,0.314-1.074,0.48-1.663,0.48c-0.892,0-1.744-0.383-2.338-1.051
					l-1.732-1.951c-1.02-1.148-1.06-2.848-0.095-4.041l2.288-2.834c-0.395-0.83-0.727-1.709-0.995-2.625l-3.644-0.609
					c-1.512-0.25-2.611-1.547-2.611-3.082v-2.609c0-1.537,1.099-2.834,2.614-3.083l3.642-0.609c0.355-1.204,0.837-2.363,1.438-3.462
					l-2.085-2.921c-0.893-1.246-0.754-2.94,0.33-4.026l1.846-1.847c0.592-0.59,1.377-0.915,2.211-0.915
					c0.655,0,1.283,0.201,1.816,0.581l2.914,2.08c1.114-0.611,2.285-1.097,3.498-1.453l0.605-3.621
					c0.243-1.51,1.539-2.611,3.081-2.611h2.61c1.537,0,2.834,1.1,3.084,2.614l0.602,3.616c1.582,0.462,3.076,1.136,4.457,2.01
					l3.068-1.929c0.496-0.314,1.072-0.48,1.662-0.48c0.892,0,1.744,0.382,2.338,1.05l1.735,1.952
					c1.021,1.151,1.061,2.851,0.094,4.042l-2.306,2.859c0.365,0.792,0.675,1.618,0.923,2.47l3.595,0.599
					c1.511,0.248,2.61,1.544,2.612,3.082v2.611c0,1.537-1.1,2.834-2.614,3.082l-3.593,0.6c-0.353,1.207-0.836,2.371-1.442,3.479
					l2.18,3.055c0.895,1.242,0.757,2.936-0.331,4.025l-1.846,1.846c-0.589,0.592-1.375,0.918-2.211,0.918
					c-0.656,0-1.284-0.203-1.817-0.586l-3.062-2.186c-1.098,0.596-2.25,1.072-3.441,1.422l-0.603,3.619
					C36.162,54.092,34.865,55.191,33.328,55.191z M22.74,44.424c0.237,0,0.474,0.07,0.678,0.211
					c1.486,1.018,3.154,1.756,4.958,2.197c0.466,0.115,0.819,0.496,0.898,0.971l0.733,4.379c0.057,0.354,0.355,0.605,0.71,0.605
					h2.61c0.355,0,0.655-0.252,0.713-0.602l0.73-4.383c0.079-0.475,0.433-0.855,0.9-0.971c1.485-0.363,2.91-0.951,4.234-1.75
					c0.411-0.248,0.929-0.229,1.32,0.051l3.691,2.637c0.155,0.111,0.313,0.135,0.417,0.135c0.192,0,0.374-0.076,0.511-0.213
					l1.846-1.846c0.251-0.25,0.284-0.639,0.078-0.926l-2.631-3.688c-0.279-0.393-0.299-0.912-0.049-1.322
					c0.807-1.33,1.402-2.766,1.77-4.266c0.113-0.467,0.495-0.822,0.969-0.9l4.356-0.729c0.352-0.057,0.604-0.357,0.604-0.711v-2.609
					c0-0.354-0.254-0.655-0.602-0.712l-4.359-0.727c-0.475-0.079-0.855-0.433-0.971-0.9c-0.293-1.202-0.724-2.352-1.277-3.416
					c-0.221-0.424-0.17-0.938,0.131-1.31l2.789-3.458c0.224-0.276,0.213-0.669-0.023-0.936l-1.732-1.95
					c-0.229-0.255-0.634-0.317-0.924-0.133l-3.729,2.343c-0.408,0.257-0.932,0.245-1.328-0.032c-1.536-1.074-3.25-1.847-5.095-2.299
					c-0.468-0.114-0.821-0.496-0.899-0.97l-0.729-4.38c-0.058-0.351-0.357-0.604-0.713-0.604h-2.61
					c-0.355,0-0.653,0.251-0.709,0.598l-0.734,4.389c-0.079,0.474-0.433,0.855-0.9,0.969c-1.507,0.369-2.949,0.968-4.285,1.78
					c-0.411,0.25-0.931,0.231-1.323-0.048l-3.543-2.528c-0.28-0.2-0.688-0.166-0.932,0.077l-1.844,1.845
					c-0.25,0.25-0.282,0.642-0.076,0.93l2.535,3.552c0.28,0.391,0.299,0.911,0.049,1.322c-0.8,1.318-1.395,2.75-1.767,4.254
					c-0.115,0.466-0.496,0.818-0.968,0.897l-4.405,0.736c-0.351,0.058-0.604,0.357-0.604,0.712v2.609
					c0,0.354,0.253,0.654,0.602,0.711l4.408,0.736c0.473,0.08,0.854,0.432,0.968,0.898c0.315,1.275,0.769,2.473,1.35,3.555
					c0.229,0.426,0.18,0.947-0.124,1.322l-2.776,3.439c-0.223,0.275-0.213,0.668,0.023,0.934l1.731,1.951
					c0.228,0.254,0.635,0.316,0.926,0.133l3.781-2.375C22.296,44.486,22.518,44.424,22.74,44.424z M32.069,41.447
					c-5.209,0-9.448-4.238-9.448-9.448s4.238-9.447,9.448-9.447c5.21,0,9.448,4.238,9.448,9.447S37.279,41.447,32.069,41.447z
					 M32.069,24.956c-3.884,0-7.044,3.16-7.044,7.044c0,3.883,3.16,7.043,7.044,7.043c3.885,0,7.045-3.16,7.045-7.043
					C39.114,28.115,35.954,24.956,32.069,24.956z"/>
			</g>
		</g>
	</g>
</g>
<g id="Capa_5" display="none">
	<g display="inline">
		<g>
			<g opacity="0.3">
				<path fill="#1D1D1B" d="M52.342,47.045c-0.189-0.438-4.677-10.791-8.713-14.035c-0.535-0.43-1.307-0.401-1.813,0.061
					c-0.034,0.031-3.49,3.134-8.688,3.134c-5.74,0-8.363-2.898-8.465-3.014c-0.008-0.009-0.018-0.016-0.026-0.024
					c-0.039-0.044-0.083-0.083-0.128-0.122c-0.026-0.021-0.05-0.045-0.077-0.065c-0.047-0.035-0.099-0.064-0.15-0.093
					c-0.029-0.017-0.056-0.035-0.086-0.049c-0.054-0.025-0.111-0.044-0.169-0.062c-0.031-0.011-0.06-0.023-0.091-0.031
					c-0.059-0.014-0.119-0.02-0.18-0.026c-0.029-0.004-0.057-0.012-0.086-0.013c-0.004-0.001-0.008,0-0.013,0
					c-0.034-0.001-0.069,0.004-0.104,0.005c-0.161,0.005-0.317,0.033-0.463,0.092c-0.001,0.001-0.003,0.002-0.005,0.003
					c-0.081,0.033-0.16,0.073-0.234,0.121c-0.077,0.05-0.149,0.107-0.215,0.172c-3.315,3.227-8.471,13.439-8.688,13.873
					c-0.2,0.396-0.198,0.863,0.004,1.259c0.205,0.398,5.163,9.759,19.176,9.759c13.018,0,18.878-9.269,19.121-9.663
					C52.486,47.939,52.521,47.461,52.342,47.045z M16.777,47.543c1.285-2.495,3.835-7.173,5.992-10.227l3.004,16.781
					C20.372,52.325,17.677,48.914,16.777,47.543z M32.161,54.621h-3.468l-0.887-4.954h4.355c0.612,0,2.611,0.182,2.611,2.521
					C34.771,53.392,34.461,54.621,32.161,54.621z M36.963,54.879c0.386-0.751,0.591-1.653,0.591-2.69
					c0-3.645-2.796-5.304-5.393-5.304h-4.853l-1.727-9.643c1.734,0.907,4.231,1.744,7.545,1.744c4.555,0,7.946-1.927,9.552-3.063
					c2.537,2.698,5.477,8.586,6.796,11.516C48.249,49.057,44.215,53.621,36.963,54.879z"/>
			</g>
			<g>
				<path fill="#FFFFFF" d="M51.215,45.918c-0.189-0.438-4.677-10.791-8.713-14.035c-0.535-0.429-1.307-0.401-1.813,0.061
					c-0.034,0.031-3.49,3.133-8.688,3.133c-5.74,0-8.363-2.898-8.465-3.014c-0.008-0.009-0.018-0.015-0.026-0.024
					c-0.039-0.044-0.083-0.083-0.128-0.122c-0.026-0.022-0.05-0.045-0.077-0.065c-0.047-0.035-0.099-0.064-0.15-0.093
					c-0.029-0.016-0.056-0.035-0.086-0.048c-0.054-0.025-0.111-0.044-0.169-0.062c-0.031-0.01-0.06-0.023-0.091-0.031
					c-0.059-0.014-0.119-0.02-0.18-0.027c-0.029-0.003-0.057-0.011-0.086-0.013c-0.004,0-0.008,0-0.013,0
					c-0.034-0.001-0.069,0.003-0.104,0.005c-0.161,0.004-0.317,0.033-0.463,0.092c-0.001,0.001-0.003,0.002-0.005,0.003
					c-0.081,0.033-0.16,0.073-0.234,0.121c-0.077,0.05-0.149,0.107-0.215,0.171c-3.315,3.227-8.471,13.439-8.688,13.873
					c-0.2,0.396-0.198,0.863,0.004,1.259c0.205,0.398,5.163,9.759,19.176,9.759c13.017,0,18.877-9.269,19.121-9.663
					C51.359,46.813,51.395,46.334,51.215,45.918z M15.65,46.416c1.285-2.495,3.835-7.173,5.992-10.227l3.004,16.781
					C19.245,51.198,16.551,47.787,15.65,46.416z M31.034,53.494h-3.468l-0.887-4.954h4.355c0.612,0,2.61,0.182,2.61,2.521
					C33.645,52.265,33.334,53.494,31.034,53.494z M35.836,53.752c0.386-0.751,0.591-1.653,0.591-2.69
					c0-3.645-2.796-5.304-5.393-5.304h-4.853l-1.727-9.643c1.734,0.907,4.231,1.744,7.545,1.744c4.554,0,7.946-1.927,9.551-3.063
					c2.537,2.698,5.477,8.586,6.796,11.516C47.122,47.93,43.088,52.494,35.836,53.752z"/>
			</g>
		</g>
		<g>
			<g opacity="0.3">
				<path fill="#1D1D1B" d="M24.517,30.373c1.11,1.108,2.417,1.988,3.88,2.612c1.465,0.628,3.047,0.946,4.7,0.946
					c1.68,0,3.269-0.317,4.726-0.945c1.441-0.624,2.73-1.504,3.831-2.618c1.088-1.106,1.957-2.412,2.583-3.877
					c0.628-1.465,0.946-3.046,0.946-4.698c0-1.687-0.319-3.277-0.947-4.722c-0.621-1.444-1.491-2.732-2.586-3.83
					c-1.097-1.097-2.386-1.968-3.825-2.587c-1.449-0.63-3.04-0.949-4.728-0.949H22.346c-0.768,0-1.391,0.623-1.391,1.391v10.699
					c0.002,1.646,0.321,3.226,0.947,4.697C22.531,27.96,23.41,29.266,24.517,30.373z M23.738,12.486h9.36
					c1.304,0,2.521,0.242,3.624,0.721c1.119,0.481,2.115,1.154,2.96,2c0.845,0.847,1.518,1.844,2.001,2.967
					c0.478,1.098,0.72,2.315,0.72,3.618c0,1.273-0.243,2.485-0.723,3.604c-0.49,1.147-1.166,2.163-2.007,3.019
					c-0.847,0.857-1.841,1.536-2.952,2.016c-1.105,0.477-2.324,0.718-3.623,0.718c-1.274,0-2.487-0.243-3.607-0.723
					c-1.138-0.485-2.15-1.165-3.007-2.021c-0.854-0.854-1.535-1.866-2.022-3.005c-0.479-1.124-0.723-2.338-0.724-3.607V12.486z"/>
			</g>
			<g>
				<path fill="#FFFFFF" d="M23.391,29.246c1.11,1.108,2.417,1.988,3.88,2.611c1.465,0.628,3.047,0.946,4.701,0.946
					c1.679,0,3.268-0.317,4.725-0.945c1.441-0.624,2.73-1.504,3.831-2.618c1.088-1.106,1.957-2.412,2.583-3.877
					c0.628-1.465,0.946-3.046,0.946-4.698c0-1.687-0.319-3.277-0.947-4.722c-0.621-1.444-1.491-2.732-2.586-3.83
					c-1.097-1.097-2.386-1.968-3.825-2.587c-1.449-0.63-3.04-0.949-4.727-0.949H21.22c-0.768,0-1.391,0.623-1.391,1.391v10.699
					c0.002,1.646,0.321,3.226,0.947,4.697C21.404,26.833,22.284,28.14,23.391,29.246z M22.611,11.36h9.36
					c1.304,0,2.521,0.242,3.623,0.721c1.119,0.481,2.115,1.154,2.96,2c0.845,0.847,1.518,1.844,2.001,2.967
					c0.478,1.098,0.72,2.315,0.72,3.618c0,1.273-0.243,2.485-0.723,3.604c-0.49,1.147-1.166,2.163-2.007,3.019
					c-0.847,0.857-1.841,1.536-2.952,2.016c-1.105,0.477-2.324,0.718-3.622,0.718c-1.275,0-2.488-0.243-3.607-0.723
					c-1.138-0.485-2.15-1.165-3.007-2.021c-0.854-0.854-1.535-1.866-2.022-3.005c-0.479-1.124-0.723-2.338-0.724-3.607V11.36z"/>
			</g>
		</g>
	</g>
</g>
<g id="Capa_6" display="none">
	<g display="inline">
		<g>
			<g opacity="0.3">
				<path fill="#1D1D1B" d="M51.296,47.85h4.562v2.032h-4.562v5.247h-2.248v-5.247h-4.595V47.85h4.595v-4.836h2.248V47.85z"/>
			</g>
			<g>
				<g>
					<path fill="#FFFFFF" d="M50.171,46.725h4.562v2.032h-4.562v5.247h-2.248v-5.247h-4.595v-2.032h4.595v-4.836h2.248V46.725z"/>
				</g>
			</g>
		</g>
		<g>
			<path fill="none" d="M31.012,48.657h-4.35l0.886,4.947h3.464c2.297,0,2.606-1.228,2.606-2.43
				C33.618,48.839,31.624,48.657,31.012,48.657z"/>
			<path fill="none" d="M15.647,46.534c0.899,1.37,3.59,4.777,8.985,6.548l-3-16.762C19.478,39.371,16.93,44.043,15.647,46.534z"/>
			<path fill="none" d="M25.342,27.42c0.856,0.855,1.866,1.534,3.002,2.019c1.119,0.479,2.33,0.722,3.604,0.722
				c1.297,0,2.514-0.241,3.617-0.717c1.11-0.48,2.103-1.158,2.95-2.014c0.84-0.854,1.514-1.869,2.003-3.014
				c0.478-1.118,0.721-2.329,0.721-3.6c0-1.301-0.241-2.517-0.717-3.613c-0.482-1.122-1.155-2.119-1.999-2.964
				c-0.845-0.844-1.84-1.516-2.958-1.997c-1.1-0.479-2.315-0.72-3.617-0.72h-9.349v9.294c0.002,1.268,0.245,2.481,0.723,3.603
				C23.809,25.558,24.489,26.567,25.342,27.42z"/>
			<path fill="none" d="M44.257,38.699c-0.905-1.473-1.848-2.821-2.741-3.77c-1.602,1.136-4.989,3.059-9.539,3.059
				c-3.31,0-5.804-0.835-7.536-1.741l1.724,9.631h4.848c2.594,0,5.385,1.657,5.385,5.297c0,1.036-0.205,1.937-0.589,2.688
				c1.46-0.253,2.785-0.646,3.988-1.115c-0.752-1.438-1.178-3.07-1.178-4.802C38.619,43.926,40.911,40.433,44.257,38.699z"/>
			<g>
				<g opacity="0.3">
					<path fill="#1D1D1B" d="M24.503,30.511c1.108,1.107,2.414,1.985,3.875,2.609c1.463,0.627,3.043,0.944,4.695,0.944
						c1.677,0,3.264-0.316,4.72-0.943c1.438-0.623,2.725-1.502,3.825-2.615c1.086-1.105,1.955-2.409,2.58-3.873
						c0.629-1.463,0.944-3.042,0.944-4.692c0-1.684-0.317-3.273-0.946-4.717c-0.619-1.441-1.488-2.728-2.582-3.824
						c-1.097-1.095-2.383-1.965-3.82-2.584c-1.447-0.628-3.037-0.948-4.721-0.948H22.334c-0.767,0-1.389,0.623-1.389,1.39v10.686
						c0.002,1.644,0.32,3.222,0.946,4.691C22.519,28.102,23.397,29.406,24.503,30.511z M23.724,12.646h9.349
						c1.302,0,2.518,0.242,3.617,0.72c1.118,0.481,2.113,1.153,2.958,1.997c0.844,0.845,1.517,1.842,1.999,2.964
						c0.476,1.096,0.717,2.312,0.717,3.613c0,1.271-0.243,2.482-0.721,3.6c-0.489,1.145-1.163,2.16-2.003,3.014
						c-0.848,0.856-1.84,1.534-2.95,2.014c-1.104,0.476-2.32,0.717-3.617,0.717c-1.273,0-2.485-0.243-3.604-0.722
						c-1.136-0.484-2.146-1.164-3.002-2.019c-0.854-0.853-1.533-1.863-2.02-3.002c-0.478-1.122-0.721-2.335-0.723-3.603V12.646z"/>
				</g>
				<g>
					<path fill="#FFFFFF" d="M23.378,29.386c1.108,1.107,2.414,1.985,3.875,2.608c1.463,0.627,3.043,0.945,4.695,0.945
						c1.677,0,3.264-0.317,4.72-0.943c1.438-0.623,2.725-1.502,3.825-2.615c1.086-1.105,1.955-2.409,2.58-3.873
						c0.629-1.463,0.944-3.042,0.944-4.692c0-1.684-0.317-3.273-0.946-4.717c-0.619-1.441-1.488-2.728-2.582-3.824
						c-1.097-1.095-2.383-1.965-3.82-2.584c-1.447-0.628-3.037-0.948-4.721-0.948H21.209c-0.767,0-1.389,0.623-1.389,1.39v10.686
						c0.002,1.644,0.32,3.222,0.946,4.691C21.394,26.977,22.272,28.281,23.378,29.386z M22.599,11.521h9.349
						c1.302,0,2.518,0.242,3.617,0.72c1.118,0.481,2.113,1.153,2.958,1.997c0.844,0.845,1.517,1.842,1.999,2.964
						c0.476,1.096,0.717,2.312,0.717,3.613c0,1.271-0.243,2.482-0.721,3.6c-0.489,1.145-1.163,2.16-2.003,3.014
						c-0.848,0.856-1.84,1.534-2.95,2.014c-1.104,0.476-2.32,0.717-3.617,0.717c-1.273,0-2.485-0.243-3.604-0.722
						c-1.136-0.484-2.146-1.164-3.002-2.019c-0.854-0.853-1.533-1.863-2.02-3.002c-0.478-1.122-0.721-2.335-0.723-3.603V11.521z"/>
				</g>
			</g>
			<g>
				<g opacity="0.3">
					<path fill="#1D1D1B" d="M50.154,38.66c-0.719,0-1.421,0.073-2.099,0.213c-1.385-2.31-2.956-4.516-4.464-5.728
						c-0.535-0.429-1.308-0.402-1.813,0.061c-0.034,0.03-3.486,3.129-8.678,3.129c-5.732,0-8.352-2.895-8.454-3.01
						c-0.008-0.009-0.018-0.016-0.026-0.023c-0.039-0.045-0.083-0.083-0.127-0.122c-0.025-0.022-0.05-0.045-0.077-0.065
						c-0.047-0.034-0.099-0.064-0.15-0.093c-0.029-0.017-0.056-0.035-0.085-0.049c-0.054-0.025-0.111-0.044-0.169-0.063
						c-0.031-0.01-0.06-0.022-0.091-0.03c-0.059-0.014-0.119-0.02-0.18-0.027c-0.029-0.003-0.058-0.011-0.087-0.012
						c-0.004-0.001-0.008,0-0.012,0c-0.034-0.001-0.069,0.003-0.104,0.005c-0.161,0.004-0.317,0.032-0.462,0.091
						c-0.002,0-0.003,0.002-0.005,0.003c-0.081,0.034-0.16,0.072-0.233,0.121c-0.078,0.05-0.15,0.107-0.215,0.172
						c-3.311,3.223-8.46,13.423-8.678,13.855c-0.2,0.396-0.198,0.863,0.004,1.258c0.204,0.397,5.156,9.746,19.152,9.746
						c3.747,0,6.897-0.771,9.493-1.875c1.899,2.008,4.585,3.265,7.56,3.265c5.74,0,10.411-4.671,10.411-10.412
						C60.565,43.33,55.895,38.66,50.154,38.66z M16.772,47.659c1.283-2.491,3.831-7.163,5.984-10.214l3,16.762
						C20.362,52.437,17.671,49.029,16.772,47.659z M32.137,54.729h-3.464l-0.886-4.947h4.35c0.611,0,2.606,0.182,2.606,2.518
						C34.743,53.502,34.435,54.729,32.137,54.729z M36.934,54.987c0.384-0.751,0.589-1.651,0.589-2.688
						c0-3.64-2.791-5.297-5.385-5.297H27.29l-1.724-9.631c1.732,0.906,4.226,1.741,7.536,1.741c4.55,0,7.938-1.923,9.539-3.059
						c0.894,0.948,1.836,2.297,2.741,3.77c-3.346,1.733-5.638,5.227-5.638,9.246c0,1.731,0.426,3.363,1.178,4.802
						C39.719,54.342,38.394,54.734,36.934,54.987z M50.154,56.703c-1.878,0-3.595-0.684-4.928-1.813
						c-0.727-0.617-1.337-1.364-1.792-2.208c-0.581-1.076-0.911-2.306-0.911-3.612c0-2.994,1.736-5.584,4.255-6.834
						c0.839-0.417,1.767-0.686,2.747-0.767c0.209-0.017,0.416-0.031,0.629-0.031c4.209,0,7.632,3.424,7.632,7.632
						C57.786,53.279,54.363,56.703,50.154,56.703z"/>
				</g>
				<g>
					<path fill="#FFFFFF" d="M49.029,37.535c-0.719,0-1.421,0.073-2.099,0.213c-1.385-2.31-2.956-4.516-4.464-5.728
						c-0.535-0.429-1.308-0.401-1.813,0.061c-0.034,0.031-3.486,3.129-8.678,3.129c-5.732,0-8.352-2.895-8.454-3.01
						c-0.008-0.009-0.018-0.016-0.026-0.024c-0.039-0.044-0.083-0.083-0.127-0.122c-0.025-0.022-0.05-0.044-0.077-0.065
						c-0.047-0.035-0.099-0.064-0.15-0.093c-0.029-0.016-0.056-0.035-0.085-0.048c-0.054-0.025-0.111-0.044-0.169-0.063
						c-0.031-0.01-0.06-0.022-0.091-0.03c-0.059-0.014-0.119-0.02-0.18-0.027c-0.029-0.003-0.058-0.011-0.087-0.012
						c-0.004-0.001-0.008,0-0.012,0c-0.034-0.001-0.069,0.003-0.104,0.005c-0.161,0.004-0.317,0.032-0.462,0.091
						c-0.002,0-0.003,0.002-0.005,0.003c-0.081,0.034-0.16,0.072-0.233,0.121c-0.078,0.05-0.15,0.107-0.215,0.171
						c-3.311,3.223-8.46,13.423-8.678,13.856c-0.2,0.396-0.198,0.863,0.004,1.258c0.204,0.397,5.156,9.746,19.152,9.746
						c3.747,0,6.897-0.771,9.493-1.875c1.899,2.008,4.585,3.265,7.56,3.265c5.74,0,10.411-4.671,10.411-10.412
						C59.44,42.205,54.77,37.535,49.029,37.535z M15.647,46.534c1.283-2.491,3.831-7.163,5.984-10.214l3,16.762
						C19.237,51.312,16.546,47.904,15.647,46.534z M31.012,53.604h-3.464l-0.886-4.947h4.35c0.611,0,2.606,0.182,2.606,2.518
						C33.618,52.377,33.31,53.604,31.012,53.604z M35.809,53.862c0.384-0.751,0.589-1.651,0.589-2.688
						c0-3.64-2.791-5.297-5.385-5.297h-4.848l-1.724-9.631c1.732,0.906,4.226,1.741,7.536,1.741c4.55,0,7.938-1.923,9.539-3.059
						c0.894,0.948,1.836,2.297,2.741,3.77c-3.346,1.733-5.638,5.227-5.638,9.246c0,1.731,0.426,3.363,1.178,4.802
						C38.594,53.217,37.269,53.609,35.809,53.862z M49.029,55.578c-1.878,0-3.595-0.684-4.928-1.813
						c-0.727-0.617-1.337-1.364-1.792-2.208c-0.581-1.076-0.911-2.306-0.911-3.612c0-2.994,1.736-5.584,4.255-6.834
						c0.839-0.417,1.767-0.686,2.747-0.767c0.209-0.017,0.416-0.031,0.629-0.031c4.209,0,7.632,3.424,7.632,7.632
						C56.661,52.154,53.238,55.578,49.029,55.578z"/>
				</g>
			</g>
		</g>
	</g>
</g>
<g id="Capa_7" display="none">
	<g display="inline">
		<g>
			<g opacity="0.3">
				<path fill="#1D1D1B" d="M21.656,52.541c-1.495,0-2.711-1.217-2.711-2.711V17.234c0-1.495,1.216-2.711,2.711-2.711h1.687v0.284
					c0,1.201,0.978,2.178,2.18,2.178h12.631c1.201,0,2.18-0.977,2.18-2.178v-0.284h1.695c1.494,0,2.711,1.216,2.711,2.711v28.869
					l2.727-2.596V17.234c0-3-2.439-5.439-5.438-5.439h-1.695v-1.063c0-1.202-0.979-2.179-2.18-2.179H25.522
					c-1.202,0-2.18,0.978-2.18,2.179v1.063h-1.687c-3,0-5.439,2.439-5.439,5.439V49.83c0,2.998,2.439,5.438,5.439,5.438h9.191
					l-2.086-2.727H21.656z"/>
			</g>
			<g>
				<g>
					<path fill="#FFFFFF" d="M20.551,51.437c-1.495,0-2.711-1.217-2.711-2.711V16.129c0-1.495,1.216-2.711,2.711-2.711h1.687v0.284
						c0,1.201,0.978,2.178,2.18,2.178h12.631c1.201,0,2.18-0.977,2.18-2.178v-0.284h1.695c1.494,0,2.711,1.216,2.711,2.711v28.87
						l2.727-2.596V16.129c0-3-2.439-5.439-5.438-5.439h-1.695V9.627c0-1.202-0.979-2.179-2.18-2.179H24.417
						c-1.202,0-2.18,0.978-2.18,2.179v1.063h-1.687c-3,0-5.439,2.439-5.439,5.439v32.596c0,2.998,2.439,5.438,5.439,5.438h9.191
						l-2.086-2.727H20.551z"/>
				</g>
			</g>
		</g>
		<g>
			<g opacity="0.3">
				<path fill="#1D1D1B" d="M57.859,37.328c-0.15-0.143-0.344-0.214-0.537-0.214s-0.387,0.072-0.537,0.215L38.467,54.761
					l-7.798-5.438c-0.135-0.094-0.291-0.141-0.445-0.141c-0.207,0-0.412,0.082-0.564,0.242c-0.266,0.277-0.289,0.707-0.056,1.012
					l7.906,10.34c0.145,0.188,0.363,0.301,0.598,0.307c0.008,0,0.016,0,0.021,0c0.229,0,0.445-0.1,0.594-0.271l19.193-22.41
					C58.186,38.085,58.16,37.614,57.859,37.328z"/>
			</g>
			<g>
				<path fill="#FFFFFF" d="M56.756,36.223c-0.15-0.143-0.344-0.213-0.537-0.213s-0.387,0.072-0.537,0.215L37.363,53.655
					l-7.799-5.438c-0.135-0.094-0.291-0.141-0.445-0.141c-0.207,0-0.412,0.082-0.564,0.242c-0.266,0.277-0.289,0.707-0.056,1.012
					l7.907,10.34c0.145,0.188,0.363,0.301,0.598,0.307c0.008,0,0.016,0,0.021,0c0.229,0,0.445-0.1,0.594-0.271l19.193-22.41
					C57.082,36.981,57.057,36.509,56.756,36.223z"/>
			</g>
		</g>
		<g>
			<g opacity="0.3">
				<path fill="#1D1D1B" d="M28.971,24.909c0.634,0,1.232,0.078,1.795,0.233s1.058,0.396,1.485,0.719s0.767,0.737,1.019,1.242
					c0.252,0.505,0.379,1.113,0.379,1.824c0,1.049-0.262,1.883-0.786,2.504c-0.524,0.621-1.194,1.061-2.009,1.32l4.069,4.892
					c0.038,0.077,0.058,0.147,0.058,0.212c0,0.117-0.041,0.217-0.125,0.303c-0.085,0.082-0.186,0.125-0.301,0.125h-0.836
					c-0.258,0-0.449-0.064-0.572-0.193c-0.123-0.131-0.21-0.24-0.261-0.33l-3.953-4.737h-3.339v4.95
					c0,0.143-0.052,0.266-0.155,0.369s-0.227,0.154-0.369,0.154h-0.796c-0.143,0-0.265-0.051-0.369-0.154s-0.155-0.227-0.155-0.369
					V25.433c0-0.142,0.052-0.265,0.155-0.369c0.104-0.103,0.226-0.155,0.369-0.155H28.971z M25.593,31.275h3.28
					c0.932,0,1.653-0.184,2.164-0.553c0.511-0.369,0.767-0.967,0.767-1.796c0-0.828-0.256-1.413-0.767-1.756
					c-0.511-0.342-1.232-0.514-2.164-0.514h-3.28V31.275z"/>
				<path fill="#1D1D1B" d="M37.895,38.757l-2.213,2.777c-0.042,0.053-0.102,0.115-0.181,0.188
					c-0.078,0.074-0.187,0.111-0.321,0.111h-0.723c-0.105,0-0.193-0.037-0.268-0.111c-0.072-0.072-0.109-0.156-0.109-0.25
					c0-0.084,0.021-0.156,0.063-0.221l2.872-3.594l-2.715-3.405c-0.043-0.063-0.063-0.137-0.063-0.221
					c0-0.094,0.036-0.178,0.109-0.25c0.072-0.073,0.162-0.11,0.267-0.11h0.753c0.137,0,0.243,0.037,0.322,0.11
					c0.078,0.072,0.139,0.135,0.18,0.188l2.088,2.621l2.07-2.621c0.043-0.053,0.104-0.115,0.182-0.188
					c0.078-0.073,0.186-0.11,0.322-0.11h0.721c0.105,0,0.193,0.037,0.268,0.11c0.072,0.072,0.109,0.156,0.109,0.25
					c0,0.084-0.021,0.157-0.063,0.221l-2.73,3.437l2.84,3.563c0.043,0.064,0.063,0.137,0.063,0.221c0,0.094-0.035,0.178-0.109,0.25
					c-0.072,0.074-0.162,0.111-0.266,0.111h-0.754c-0.137,0-0.244-0.037-0.322-0.111c-0.078-0.072-0.139-0.135-0.18-0.188
					L37.895,38.757z"/>
			</g>
			<g>
				<g>
					<path fill="#FFFFFF" d="M27.866,23.804c0.634,0,1.232,0.078,1.795,0.233s1.058,0.396,1.485,0.719s0.767,0.737,1.019,1.242
						c0.252,0.505,0.378,1.113,0.378,1.824c0,1.049-0.262,1.883-0.786,2.504c-0.524,0.621-1.194,1.061-2.009,1.32l4.07,4.893
						c0.038,0.076,0.058,0.148,0.058,0.213c0,0.115-0.042,0.217-0.126,0.301s-0.186,0.125-0.301,0.125h-0.835
						c-0.259,0-0.45-0.064-0.572-0.193c-0.124-0.129-0.21-0.24-0.262-0.33l-3.953-4.736h-3.339v4.949
						c0,0.143-0.052,0.266-0.155,0.369s-0.227,0.154-0.369,0.154h-0.796c-0.143,0-0.265-0.051-0.369-0.154s-0.155-0.227-0.155-0.369
						V24.328c0-0.142,0.052-0.265,0.155-0.369c0.104-0.103,0.226-0.155,0.369-0.155H27.866z M24.488,30.17h3.28
						c0.932,0,1.653-0.184,2.164-0.553c0.511-0.369,0.767-0.967,0.767-1.796c0-0.828-0.256-1.413-0.767-1.756
						c-0.511-0.342-1.232-0.514-2.164-0.514h-3.28V30.17z"/>
					<path fill="#FFFFFF" d="M36.791,37.651l-2.215,2.777c-0.041,0.053-0.102,0.115-0.18,0.188
						c-0.078,0.074-0.187,0.111-0.322,0.111h-0.723c-0.104,0-0.193-0.037-0.267-0.111c-0.073-0.072-0.109-0.156-0.109-0.25
						c0-0.084,0.021-0.156,0.063-0.221l2.871-3.594l-2.715-3.405c-0.042-0.063-0.063-0.136-0.063-0.22
						c0-0.094,0.037-0.178,0.109-0.251c0.073-0.073,0.162-0.11,0.268-0.11h0.752c0.137,0,0.244,0.037,0.322,0.11
						c0.078,0.073,0.139,0.136,0.181,0.188l2.089,2.62l2.07-2.62c0.043-0.053,0.104-0.115,0.182-0.188
						c0.078-0.073,0.186-0.11,0.322-0.11h0.721c0.105,0,0.193,0.037,0.268,0.11c0.072,0.073,0.109,0.157,0.109,0.251
						c0,0.084-0.021,0.157-0.063,0.22l-2.73,3.437l2.84,3.563c0.043,0.064,0.063,0.137,0.063,0.221c0,0.094-0.035,0.178-0.109,0.25
						c-0.072,0.074-0.162,0.111-0.266,0.111h-0.754c-0.137,0-0.244-0.037-0.322-0.111c-0.078-0.072-0.139-0.135-0.18-0.188
						L36.791,37.651z"/>
				</g>
			</g>
		</g>
	</g>
</g>
<g id="Capa_8" display="none">
	<g display="inline">
		<g opacity="0.3">
			<path fill="#1D1D1B" d="M53.881,49.766h-3.096c0.025-0.156,0.043-0.315,0.043-0.478V22.039c0-1.611-1.311-2.921-2.922-2.921
				h-7.832c-1.611,0-2.922,1.31-2.922,2.921v6.835c-0.092-0.008-0.186-0.014-0.279-0.014h-7.834c-0.094,0-0.187,0.005-0.279,0.014
				V11.143c0-1.61-1.311-2.92-2.922-2.92h-7.833c-1.61,0-2.92,1.311-2.92,2.92v38.145c0,0.163,0.017,0.321,0.042,0.479h-3.095
				c-0.748,0-1.354,0.606-1.354,1.354c0,0.747,0.606,1.354,1.354,1.354h41.849c0.748,0,1.354-0.607,1.354-1.354
				C55.234,50.372,54.629,49.766,53.881,49.766z M39.861,22.039c0-0.112,0.1-0.212,0.213-0.212h7.832c0.113,0,0.213,0.1,0.213,0.212
				v27.249c0,0.112-0.1,0.211-0.213,0.211h-7.832c-0.113,0-0.213-0.099-0.213-0.211V22.039z M28.828,31.781
				c0-0.113,0.099-0.212,0.211-0.212h7.834c0.113,0,0.211,0.099,0.211,0.212v17.506c0,0.112-0.098,0.212-0.211,0.212h-7.834
				c-0.112,0-0.211-0.1-0.211-0.212V31.781z M17.794,11.143c0-0.113,0.098-0.211,0.211-0.211h7.833c0.113,0,0.213,0.099,0.213,0.211
				v38.145c0,0.112-0.1,0.212-0.213,0.212h-7.833c-0.113,0-0.211-0.1-0.211-0.212V11.143z"/>
		</g>
		<g>
			<path fill="#FFFFFF" d="M52.924,48.809h-3.096c0.025-0.156,0.043-0.315,0.043-0.478V21.082c0-1.611-1.311-2.921-2.922-2.921
				h-7.832c-1.611,0-2.922,1.31-2.922,2.921v6.835c-0.092-0.008-0.186-0.014-0.279-0.014h-7.834c-0.094,0-0.187,0.005-0.279,0.014
				V10.186c0-1.61-1.311-2.92-2.922-2.92h-7.833c-1.61,0-2.92,1.311-2.92,2.92V48.33c0,0.163,0.017,0.321,0.042,0.479h-3.095
				c-0.748,0-1.354,0.606-1.354,1.354c0,0.747,0.606,1.354,1.354,1.354h41.849c0.748,0,1.354-0.607,1.354-1.354
				C54.277,49.415,53.672,48.809,52.924,48.809z M38.904,21.082c0-0.112,0.1-0.212,0.213-0.212h7.832c0.113,0,0.213,0.1,0.213,0.212
				v27.249c0,0.112-0.1,0.211-0.213,0.211h-7.832c-0.113,0-0.213-0.099-0.213-0.211V21.082z M27.871,30.824
				c0-0.113,0.099-0.212,0.211-0.212h7.834c0.113,0,0.211,0.099,0.211,0.212V48.33c0,0.112-0.098,0.212-0.211,0.212h-7.834
				c-0.112,0-0.211-0.1-0.211-0.212V30.824z M16.837,10.186c0-0.113,0.098-0.211,0.211-0.211h7.833c0.113,0,0.213,0.099,0.213,0.211
				V48.33c0,0.112-0.1,0.212-0.213,0.212h-7.833c-0.113,0-0.211-0.1-0.211-0.212V10.186z"/>
		</g>
	</g>
</g>
<g id="Capa_9">
	<g>
		<g>
			<g opacity="0.3">
				<path fill="#1D1D1B" d="M33.125,51.971c-11.283,0-20.463-9.18-20.463-20.464c0-7.186,5.803-15.361,12.419-17.495
					c0.939-0.303,1.946,0.213,2.249,1.152c0.303,0.939-0.212,1.946-1.152,2.249c-5.203,1.678-9.942,8.396-9.942,14.093
					c0,9.314,7.577,16.89,16.889,16.89c9.313,0,16.891-7.576,16.891-16.89c0-6.362-5.218-12.43-10.09-14.104
					c-0.934-0.32-1.43-1.337-1.109-2.271c0.321-0.933,1.338-1.428,2.271-1.109c6.894,2.369,12.502,10.212,12.502,17.484
					C53.589,42.791,44.409,51.971,33.125,51.971z"/>
			</g>
			<g>
				<path fill="#FFFFFF" d="M32,50.844c-11.284,0-20.463-9.18-20.463-20.463c0-7.186,5.803-15.361,12.419-17.495
					c0.939-0.303,1.946,0.213,2.249,1.152c0.303,0.939-0.212,1.946-1.152,2.249c-5.203,1.678-9.942,8.396-9.942,14.093
					c0,9.313,7.577,16.891,16.89,16.891c9.313,0,16.891-7.578,16.891-16.891c0-6.362-5.219-12.43-10.09-14.104
					c-0.934-0.32-1.43-1.337-1.109-2.271s1.338-1.428,2.27-1.109c6.895,2.369,12.502,10.212,12.502,17.484
					C52.463,41.664,43.283,50.844,32,50.844z"/>
			</g>
		</g>
		<g>
			<g opacity="0.3">
				<path fill="#1D1D1B" d="M33.125,36.553c-0.986,0-1.787-0.801-1.787-1.787V13.818c0-0.987,0.8-1.787,1.787-1.787
					c0.987,0,1.787,0.8,1.787,1.787v20.947C34.912,35.752,34.112,36.553,33.125,36.553z"/>
			</g>
			<g>
				<path fill="#FFFFFF" d="M32,35.428c-0.987,0-1.787-0.801-1.787-1.787V12.693c0-0.987,0.8-1.787,1.787-1.787
					s1.787,0.8,1.787,1.787v20.948C33.787,34.627,32.987,35.428,32,35.428z"/>
			</g>
		</g>
	</g>
	<g>
	</g>
	<g>
	</g>
	<g>
	</g>
	<g>
	</g>
	<g>
	</g>
	<g>
	</g>
	<g>
	</g>
	<g>
	</g>
	<g>
	</g>
	<g>
	</g>
	<g>
	</g>
	<g>
	</g>
	<g>
	</g>
	<g>
	</g>
	<g>
	</g>
</g>
</svg>
