<?xml version="1.0" encoding="utf-8"?>
<!-- Generator: Adobe Illustrator 16.0.0, SVG Export Plug-In . SVG Version: 6.00 Build 0)  -->
<!DOCTYPE svg PUBLIC "-//W3C//DTD SVG 1.1//EN" "http://www.w3.org/Graphics/SVG/1.1/DTD/svg11.dtd">
<svg version="1.1" id="Capa_1" xmlns="http://www.w3.org/2000/svg" xmlns:xlink="http://www.w3.org/1999/xlink" x="0px" y="0px"
	 width="128px" height="128px" viewBox="0 0 128 128" enable-background="new 0 0 128 128" xml:space="preserve">
<path fill="#FFFFFF" d="M0,0v128h128V0H0z M125.685,125.683H64.146c-8.386,0-16.423-1.613-23.879-4.797
	c-7.493-3.191-14.16-7.679-19.809-13.339c-5.652-5.656-10.148-12.315-13.343-19.809c-3.184-7.455-4.8-15.488-4.8-23.882
	c0-8.585,1.616-16.664,4.796-24.016c3.191-7.379,7.668-13.944,13.32-19.505c5.656-5.564,12.335-10.011,19.835-13.218
	c7.463-3.18,15.5-4.8,23.879-4.8c8.574,0,16.649,1.613,24.013,4.793c7.395,3.194,13.97,7.641,19.53,13.202
	c5.564,5.564,10.016,12.138,13.202,19.528c3.177,7.364,4.793,15.446,4.793,24.016V125.683z"/>
</svg>
