<?xml version="1.0" encoding="utf-8"?>
<!-- Generator: Adobe Illustrator 16.0.0, SVG Export Plug-In . SVG Version: 6.00 Build 0)  -->
<!DOCTYPE svg PUBLIC "-//W3C//DTD SVG 1.1//EN" "http://www.w3.org/Graphics/SVG/1.1/DTD/svg11.dtd">
<svg version="1.1" id="Capa_1" xmlns="http://www.w3.org/2000/svg" xmlns:xlink="http://www.w3.org/1999/xlink" x="0px" y="0px"
	 width="64px" height="64px" viewBox="0 0 64 64" enable-background="new 0 0 64 64" xml:space="preserve">
<g id="Capa_2" display="none">
	<g display="inline">
		<g opacity="0.3">
			<path fill="#1D1D1B" d="M42.448,12.329c-2.386-2.2-5.733-3.3-10.045-3.3c-3.939,0-7.184,1.062-9.733,3.185
				c-2.55,2.123-3.792,4.946-3.726,8.47l0.012,0.023c-0.008,0.095-0.014,0.192-0.014,0.29c0,1.806,1.406,3.27,3.142,3.27
				c1.735,0,3.142-1.464,3.142-3.27c0-0.061-0.005-0.12-0.009-0.179c0.015-2.069,0.712-3.642,2.099-4.713
				c1.4-1.083,3.097-1.625,5.088-1.625c2.298,0,4.065,0.624,5.302,1.871c1.235,1.247,1.854,3.031,1.854,5.351
				c0,1.948-0.459,3.611-1.379,4.989c-0.92,1.379-2.463,3.349-4.629,5.911c-2.233,2.014-3.612,3.633-4.137,4.858
				s-0.822,3.539-0.843,6.713c0,1.806,1.456,3.271,3.251,3.271c1.754,0,3.18-1.396,3.246-3.146h0.006
				c0-1.989,0.111-3.696,0.363-4.639c0.252-0.941,0.969-2.004,2.149-3.187c2.538-2.449,4.58-4.846,6.122-7.188
				c1.543-2.341,2.314-4.924,2.314-7.748C46.025,17.597,44.834,14.528,42.448,12.329z"/>
			<circle fill="#1D1D1B" cx="31.396" cy="54.168" r="3.348"/>
		</g>
		<g>
			<g>
				<path fill="#FFFFFF" d="M41.176,11.056c-2.385-2.2-5.734-3.3-10.045-3.3c-3.939,0-7.184,1.062-9.733,3.185
					c-2.55,2.123-3.792,4.946-3.726,8.47l0.012,0.023c-0.008,0.095-0.014,0.192-0.014,0.29c0,1.806,1.406,3.27,3.142,3.27
					c1.735,0,3.142-1.464,3.142-3.27c0-0.061-0.005-0.12-0.009-0.179c0.015-2.069,0.712-3.642,2.099-4.713
					c1.4-1.083,3.097-1.625,5.088-1.625c2.298,0,4.063,0.624,5.302,1.871c1.236,1.247,1.854,3.031,1.854,5.351
					c0,1.948-0.459,3.611-1.379,4.989c-0.919,1.379-2.462,3.349-4.628,5.91c-2.232,2.014-3.611,3.634-4.136,4.857
					c-0.525,1.228-0.822,3.539-0.843,6.713c0,1.806,1.456,3.271,3.251,3.271c1.753,0,3.179-1.396,3.245-3.144h0.007
					c0-1.991,0.112-3.698,0.364-4.641c0.25-0.939,0.968-2.002,2.149-3.186c2.537-2.449,4.58-4.845,6.121-7.188
					c1.543-2.341,2.314-4.924,2.314-7.748C44.754,16.324,43.563,13.255,41.176,11.056z"/>
				<circle fill="#FFFFFF" cx="30.123" cy="52.895" r="3.348"/>
			</g>
		</g>
	</g>
</g>
<g id="Capa_3" display="none">
	<g display="inline">
		<g opacity="0.3">
			<path fill="#1D1D1B" d="M36.613,44.146c0,1.832-1.485,3.315-3.318,3.315l0,0c-1.832,0-3.317-1.483-3.317-3.315V12.37
				c0-1.833,1.485-3.318,3.317-3.318l0,0c1.833,0,3.318,1.485,3.318,3.318V44.146z"/>
			<circle fill="#1D1D1B" cx="33.295" cy="54.227" r="3.409"/>
		</g>
		<g>
			<g>
				<path fill="#FFFFFF" d="M35.318,42.852c0,1.832-1.486,3.316-3.318,3.316l0,0c-1.833,0-3.318-1.484-3.318-3.316V11.075
					c0-1.833,1.485-3.318,3.318-3.318l0,0c1.832,0,3.318,1.485,3.318,3.318V42.852z"/>
				<circle fill="#FFFFFF" cx="32" cy="52.932" r="3.409"/>
			</g>
		</g>
	</g>
</g>
<g id="Capa_4" display="none">
	<g display="inline">
		<g opacity="0.3">
			<path fill="#1D1D1B" d="M34.499,56.361h-2.611c-1.542,0-2.837-1.102-3.082-2.618l-0.604-3.611
				c-1.531-0.446-2.973-1.088-4.303-1.907l-3.129,1.965c-0.498,0.313-1.074,0.479-1.663,0.479c-0.892,0-1.744-0.383-2.338-1.051
				l-1.732-1.951c-1.02-1.147-1.06-2.849-0.095-4.041l2.288-2.834c-0.395-0.83-0.727-1.709-0.995-2.625l-3.644-0.608
				c-1.512-0.25-2.611-1.548-2.611-3.082v-2.61c0-1.537,1.099-2.834,2.614-3.083l3.642-0.609c0.355-1.204,0.837-2.363,1.438-3.462
				l-2.085-2.921c-0.893-1.246-0.754-2.94,0.33-4.026l1.846-1.847c0.592-0.59,1.377-0.915,2.211-0.915
				c0.655,0,1.283,0.201,1.816,0.581l2.914,2.08c1.114-0.611,2.285-1.097,3.498-1.453l0.605-3.621
				c0.243-1.51,1.539-2.611,3.081-2.611h2.611c1.537,0,2.834,1.1,3.084,2.614l0.603,3.616c1.582,0.462,3.076,1.136,4.457,2.01
				l3.067-1.929c0.496-0.314,1.072-0.48,1.662-0.48c0.892,0,1.744,0.382,2.338,1.05l1.735,1.952
				c1.021,1.151,1.061,2.851,0.094,4.042l-2.307,2.859c0.365,0.792,0.676,1.618,0.924,2.47l3.595,0.599
				c1.511,0.248,2.61,1.544,2.612,3.082v2.61c0,1.537-1.1,2.834-2.614,3.082l-3.593,0.601c-0.354,1.207-0.836,2.37-1.442,3.479
				l2.181,3.056c0.895,1.242,0.756,2.936-0.332,4.024l-1.846,1.847c-0.589,0.592-1.375,0.918-2.211,0.918
				c-0.656,0-1.283-0.203-1.816-0.586l-3.063-2.187c-1.098,0.597-2.25,1.072-3.441,1.422l-0.603,3.619
				C37.333,55.264,36.036,56.361,34.499,56.361z M23.91,45.595c0.237,0,0.474,0.07,0.678,0.212c1.486,1.018,3.154,1.756,4.958,2.196
				c0.466,0.115,0.819,0.496,0.898,0.972l0.733,4.379c0.057,0.354,0.355,0.604,0.71,0.604h2.611c0.355,0,0.654-0.252,0.713-0.603
				l0.73-4.383c0.078-0.475,0.433-0.854,0.899-0.971c1.485-0.363,2.91-0.951,4.234-1.75c0.411-0.248,0.929-0.229,1.319,0.051
				l3.691,2.637c0.155,0.111,0.313,0.136,0.417,0.136c0.192,0,0.374-0.076,0.511-0.214l1.846-1.846
				c0.252-0.25,0.285-0.639,0.078-0.926l-2.631-3.688c-0.279-0.394-0.299-0.912-0.049-1.322c0.807-1.33,1.402-2.766,1.77-4.266
				c0.113-0.467,0.496-0.822,0.97-0.9l4.356-0.729c0.352-0.058,0.604-0.357,0.604-0.711v-2.61c0-0.354-0.254-0.655-0.602-0.712
				l-4.359-0.727c-0.475-0.079-0.855-0.433-0.971-0.9c-0.293-1.202-0.725-2.352-1.277-3.416c-0.221-0.424-0.17-0.938,0.131-1.31
				l2.789-3.458c0.225-0.276,0.213-0.669-0.023-0.936l-1.731-1.95c-0.229-0.255-0.634-0.317-0.924-0.133l-3.729,2.343
				c-0.408,0.257-0.932,0.245-1.328-0.032c-1.535-1.074-3.25-1.847-5.095-2.299c-0.468-0.114-0.821-0.496-0.899-0.97l-0.729-4.38
				c-0.059-0.351-0.357-0.604-0.713-0.604h-2.611c-0.355,0-0.653,0.251-0.709,0.598l-0.734,4.389
				c-0.079,0.474-0.433,0.855-0.9,0.969c-1.507,0.369-2.949,0.968-4.285,1.78c-0.411,0.25-0.931,0.231-1.323-0.048l-3.543-2.528
				c-0.28-0.2-0.688-0.166-0.932,0.077l-1.844,1.845c-0.25,0.25-0.282,0.642-0.076,0.93l2.535,3.552
				c0.28,0.391,0.299,0.911,0.049,1.322c-0.8,1.318-1.395,2.75-1.767,4.254c-0.115,0.466-0.496,0.818-0.968,0.897l-4.405,0.736
				c-0.351,0.058-0.604,0.357-0.604,0.712v2.609c0,0.354,0.253,0.654,0.602,0.711l4.408,0.736c0.473,0.08,0.854,0.432,0.968,0.898
				c0.315,1.274,0.769,2.473,1.35,3.555c0.229,0.426,0.18,0.947-0.124,1.322l-2.776,3.438c-0.223,0.275-0.213,0.669,0.023,0.935
				l1.731,1.951c0.228,0.254,0.635,0.315,0.926,0.133l3.781-2.375C23.466,45.657,23.688,45.595,23.91,45.595z M33.24,42.618
				c-5.21,0-9.448-4.238-9.448-9.448c0-5.209,4.238-9.447,9.448-9.447c5.21,0,9.447,4.238,9.447,9.447
				C42.688,38.38,38.45,42.618,33.24,42.618z M33.24,26.126c-3.885,0-7.045,3.16-7.045,7.044c0,3.885,3.16,7.044,7.045,7.044
				c3.885,0,7.045-3.159,7.045-7.044C40.285,29.286,37.125,26.126,33.24,26.126z"/>
		</g>
		<g>
			<g>
				<path fill="#FFFFFF" d="M33.328,55.191h-2.61c-1.542,0-2.837-1.103-3.082-2.619l-0.604-3.611
					c-1.531-0.447-2.973-1.088-4.303-1.908L19.6,49.018c-0.498,0.314-1.074,0.48-1.663,0.48c-0.892,0-1.744-0.383-2.338-1.051
					l-1.732-1.951c-1.02-1.148-1.06-2.848-0.095-4.041l2.288-2.834c-0.395-0.83-0.727-1.709-0.995-2.625l-3.644-0.609
					c-1.512-0.25-2.611-1.547-2.611-3.082v-2.609c0-1.537,1.099-2.834,2.614-3.083l3.642-0.609c0.355-1.204,0.837-2.363,1.438-3.462
					l-2.085-2.921c-0.893-1.246-0.754-2.94,0.33-4.026l1.846-1.847c0.592-0.59,1.377-0.915,2.211-0.915
					c0.655,0,1.283,0.201,1.816,0.581l2.914,2.08c1.114-0.611,2.285-1.097,3.498-1.453l0.605-3.621
					c0.243-1.51,1.539-2.611,3.081-2.611h2.61c1.537,0,2.834,1.1,3.084,2.614l0.602,3.616c1.582,0.462,3.076,1.136,4.457,2.01
					l3.068-1.929c0.496-0.314,1.072-0.48,1.662-0.48c0.893,0,1.744,0.382,2.338,1.05l1.734,1.952
					c1.021,1.151,1.062,2.851,0.095,4.042l-2.306,2.859c0.365,0.792,0.675,1.618,0.922,2.47l3.596,0.599
					c1.511,0.248,2.609,1.544,2.611,3.082v2.611c0,1.537-1.1,2.834-2.613,3.082l-3.594,0.6c-0.353,1.207-0.836,2.371-1.441,3.479
					l2.18,3.056c0.896,1.242,0.758,2.936-0.33,4.024l-1.847,1.847c-0.589,0.592-1.375,0.918-2.211,0.918
					c-0.655,0-1.284-0.203-1.817-0.586l-3.062-2.187c-1.099,0.596-2.25,1.071-3.44,1.422l-0.604,3.619
					C36.162,54.092,34.865,55.191,33.328,55.191z M22.74,44.424c0.237,0,0.474,0.07,0.678,0.211
					c1.486,1.018,3.154,1.756,4.958,2.197c0.466,0.115,0.819,0.496,0.898,0.971l0.733,4.379c0.057,0.354,0.355,0.605,0.71,0.605
					h2.61c0.354,0,0.655-0.252,0.713-0.602l0.729-4.384c0.08-0.475,0.434-0.854,0.9-0.971c1.484-0.363,2.91-0.951,4.234-1.75
					c0.41-0.248,0.929-0.229,1.32,0.051l3.69,2.638c0.155,0.11,0.313,0.135,0.417,0.135c0.191,0,0.374-0.076,0.511-0.213
					l1.847-1.847c0.25-0.25,0.283-0.639,0.078-0.926l-2.632-3.688c-0.278-0.393-0.299-0.912-0.049-1.321
					c0.808-1.33,1.402-2.767,1.771-4.267c0.113-0.467,0.494-0.822,0.969-0.899l4.355-0.729c0.353-0.057,0.604-0.356,0.604-0.711
					v-2.609c0-0.354-0.254-0.655-0.603-0.712l-4.358-0.727c-0.476-0.079-0.854-0.433-0.972-0.9
					c-0.293-1.202-0.724-2.352-1.276-3.416c-0.222-0.424-0.17-0.938,0.131-1.31l2.789-3.458c0.224-0.276,0.213-0.669-0.022-0.936
					l-1.732-1.95c-0.229-0.255-0.635-0.317-0.924-0.133l-3.729,2.343c-0.407,0.257-0.932,0.245-1.327-0.032
					c-1.537-1.074-3.25-1.847-5.096-2.299c-0.468-0.114-0.82-0.496-0.898-0.97l-0.729-4.38c-0.058-0.351-0.356-0.604-0.713-0.604
					h-2.61c-0.355,0-0.653,0.251-0.709,0.598l-0.734,4.389c-0.079,0.474-0.433,0.854-0.9,0.969c-1.507,0.369-2.949,0.968-4.285,1.78
					c-0.411,0.25-0.931,0.231-1.323-0.048l-3.543-2.528c-0.28-0.2-0.688-0.166-0.932,0.077l-1.844,1.845
					c-0.25,0.25-0.282,0.642-0.076,0.93l2.535,3.552c0.28,0.391,0.299,0.911,0.049,1.322c-0.8,1.318-1.395,2.75-1.767,4.254
					c-0.115,0.466-0.496,0.818-0.968,0.897l-4.405,0.736c-0.351,0.058-0.604,0.357-0.604,0.712v2.61
					c0,0.354,0.253,0.653,0.602,0.711l4.408,0.735c0.473,0.08,0.854,0.433,0.968,0.897c0.315,1.275,0.769,2.474,1.35,3.556
					c0.229,0.426,0.18,0.946-0.124,1.321l-2.776,3.439c-0.223,0.275-0.213,0.668,0.023,0.934l1.731,1.951
					c0.228,0.254,0.635,0.316,0.926,0.133l3.781-2.375C22.296,44.486,22.518,44.424,22.74,44.424z M32.069,41.447
					c-5.209,0-9.448-4.238-9.448-9.448s4.238-9.447,9.448-9.447c5.21,0,9.449,4.238,9.449,9.447S37.279,41.447,32.069,41.447z
					 M32.069,24.956c-3.884,0-7.044,3.16-7.044,7.044c0,3.883,3.16,7.043,7.044,7.043c3.885,0,7.045-3.16,7.045-7.043
					C39.114,28.115,35.954,24.956,32.069,24.956z"/>
			</g>
		</g>
	</g>
</g>
<g id="Capa_5">
	<g>
		<g>
			<g opacity="0.3">
				<path fill="#1D1D1B" d="M56.311,49.295c-0.237-0.546-5.836-13.466-10.874-17.514c-0.667-0.537-1.63-0.5-2.261,0.075
					c-0.043,0.04-4.355,3.912-10.843,3.912c-7.162,0-10.436-3.617-10.563-3.761c-0.011-0.012-0.023-0.021-0.032-0.031
					c-0.049-0.055-0.104-0.104-0.161-0.152c-0.032-0.027-0.062-0.056-0.096-0.08c-0.059-0.044-0.124-0.081-0.187-0.117
					c-0.037-0.021-0.07-0.044-0.108-0.061c-0.067-0.032-0.139-0.055-0.211-0.078c-0.039-0.012-0.075-0.028-0.114-0.038
					c-0.074-0.019-0.148-0.025-0.225-0.033c-0.036-0.005-0.07-0.015-0.107-0.016c-0.005-0.001-0.01,0-0.016,0
					c-0.042-0.001-0.086,0.005-0.129,0.006c-0.202,0.006-0.396,0.042-0.579,0.114c-0.001,0.002-0.003,0.002-0.006,0.005
					c-0.101,0.04-0.2,0.09-0.292,0.15c-0.097,0.062-0.186,0.134-0.269,0.215c-4.137,4.026-10.571,16.77-10.842,17.313
					c-0.25,0.492-0.247,1.075,0.005,1.568c0.256,0.498,6.443,12.18,23.93,12.18c16.245,0,23.558-11.568,23.861-12.059
					C56.491,50.411,56.534,49.814,56.311,49.295z M11.929,49.917c1.604-3.113,4.785-8.95,7.478-12.762l3.749,20.941
					C16.415,55.885,13.052,51.628,11.929,49.917z M31.127,58.749h-4.328l-1.106-6.182h5.435c0.764,0,3.257,0.229,3.257,3.146
					C34.384,57.217,33.996,58.749,31.127,58.749z M37.119,59.071c0.482-0.937,0.738-2.062,0.738-3.356
					c0-4.549-3.49-6.619-6.73-6.619H25.07l-2.155-12.033c2.164,1.131,5.28,2.177,9.415,2.177c5.685,0,9.916-2.405,11.92-3.823
					c3.166,3.368,6.834,10.715,8.481,14.372C51.203,51.806,46.169,57.502,37.119,59.071z"/>
			</g>
			<g>
				<path fill="#FFFFFF" d="M54.904,47.889c-0.237-0.546-5.836-13.466-10.873-17.514c-0.669-0.535-1.631-0.5-2.262,0.076
					c-0.045,0.039-4.355,3.91-10.842,3.91c-7.164,0-10.437-3.616-10.564-3.761c-0.01-0.011-0.022-0.019-0.032-0.03
					c-0.048-0.055-0.104-0.104-0.16-0.152c-0.032-0.028-0.062-0.056-0.095-0.082c-0.06-0.043-0.124-0.08-0.188-0.116
					c-0.036-0.02-0.07-0.043-0.107-0.06c-0.067-0.031-0.138-0.055-0.211-0.077c-0.038-0.012-0.075-0.029-0.113-0.039
					c-0.074-0.018-0.148-0.025-0.225-0.034c-0.036-0.004-0.071-0.013-0.107-0.016c-0.005,0-0.01,0-0.017,0
					c-0.042-0.001-0.085,0.004-0.129,0.006c-0.2,0.005-0.396,0.042-0.578,0.115c-0.001,0.001-0.003,0.002-0.005,0.004
					c-0.102,0.041-0.2,0.091-0.292,0.15c-0.096,0.063-0.186,0.135-0.269,0.214C13.697,34.511,7.263,47.255,6.992,47.795
					c-0.249,0.495-0.247,1.077,0.005,1.571c0.256,0.497,6.443,12.18,23.93,12.18c16.243,0,23.556-11.568,23.861-12.059
					C55.084,49.005,55.128,48.408,54.904,47.889z M10.522,48.51c1.604-3.112,4.786-8.949,7.477-12.762l3.75,20.941
					C15.009,54.479,11.646,50.222,10.522,48.51z M29.721,57.343h-4.329l-1.106-6.182h5.435c0.763,0,3.257,0.229,3.257,3.146
					C32.978,55.811,32.59,57.343,29.721,57.343z M35.713,57.665c0.482-0.937,0.737-2.062,0.737-3.356
					c0-4.549-3.489-6.619-6.729-6.619h-6.057l-2.155-12.033c2.164,1.131,5.279,2.177,9.415,2.177c5.683,0,9.916-2.405,11.918-3.823
					c3.167,3.367,6.835,10.714,8.481,14.372C49.797,50.399,44.763,56.096,35.713,57.665z"/>
			</g>
		</g>
		<g>
			<g opacity="0.3">
				<path fill="#1D1D1B" d="M21.588,28.491c1.385,1.382,3.016,2.48,4.841,3.258c1.828,0.785,3.802,1.183,5.866,1.183
					c2.096,0,4.079-0.396,5.897-1.18c1.797-0.78,3.406-1.878,4.78-3.268c1.357-1.38,2.443-3.01,3.223-4.838
					c0.785-1.829,1.182-3.801,1.182-5.863c0-2.105-0.397-4.089-1.182-5.893c-0.775-1.802-1.86-3.409-3.227-4.779
					c-1.37-1.369-2.979-2.456-4.774-3.229c-1.809-0.786-3.793-1.184-5.899-1.184H18.878c-0.958,0-1.736,0.777-1.736,1.736v13.351
					c0.003,2.054,0.4,4.026,1.182,5.862C19.109,25.479,20.206,27.109,21.588,28.491z M20.615,6.169h11.68
					c1.628,0,3.146,0.303,4.524,0.9c1.395,0.6,2.638,1.44,3.691,2.496c1.056,1.057,1.896,2.301,2.499,3.702
					c0.596,1.371,0.896,2.89,0.896,4.516c0,1.588-0.302,3.101-0.901,4.497c-0.612,1.431-1.455,2.699-2.505,3.767
					c-1.057,1.07-2.297,1.917-3.684,2.516c-1.378,0.595-2.9,0.896-4.521,0.896c-1.589,0-3.103-0.303-4.5-0.902
					c-1.42-0.605-2.684-1.454-3.753-2.522c-1.065-1.066-1.915-2.329-2.523-3.75c-0.598-1.403-0.902-2.917-0.904-4.501V6.169z"/>
			</g>
			<g>
				<path fill="#FFFFFF" d="M20.183,27.084c1.385,1.383,3.016,2.481,4.842,3.259c1.828,0.783,3.802,1.18,5.867,1.18
					c2.094,0,4.079-0.395,5.896-1.179c1.799-0.779,3.406-1.877,4.779-3.267c1.358-1.381,2.442-3.01,3.225-4.839
					c0.784-1.828,1.18-3.801,1.18-5.862c0-2.105-0.396-4.089-1.182-5.893c-0.774-1.802-1.859-3.409-3.228-4.779
					c-1.368-1.368-2.976-2.455-4.771-3.228c-1.81-0.786-3.794-1.184-5.899-1.184H17.474c-0.958,0-1.736,0.777-1.736,1.735v13.352
					c0.003,2.054,0.4,4.026,1.182,5.862C17.702,24.073,18.801,25.704,20.183,27.084z M19.209,4.764H30.89
					c1.627,0,3.146,0.303,4.521,0.9c1.396,0.6,2.641,1.44,3.694,2.496c1.054,1.057,1.895,2.301,2.496,3.703
					c0.597,1.371,0.899,2.889,0.899,4.515c0,1.588-0.304,3.101-0.902,4.498c-0.61,1.431-1.455,2.699-2.504,3.767
					c-1.058,1.069-2.298,1.917-3.685,2.516c-1.379,0.596-2.899,0.896-4.52,0.896c-1.592,0-3.105-0.303-4.501-0.902
					c-1.42-0.605-2.683-1.454-3.752-2.522c-1.066-1.066-1.916-2.328-2.523-3.75c-0.598-1.403-0.903-2.917-0.904-4.501V4.764z"/>
			</g>
		</g>
	</g>
</g>
</svg>
