<?xml version="1.0" encoding="utf-8"?>
<!-- Generator: Adobe Illustrator 16.0.0, SVG Export Plug-In . SVG Version: 6.00 Build 0)  -->
<!DOCTYPE svg PUBLIC "-//W3C//DTD SVG 1.1//EN" "http://www.w3.org/Graphics/SVG/1.1/DTD/svg11.dtd">
<svg version="1.1" id="Capa_1" xmlns="http://www.w3.org/2000/svg" xmlns:xlink="http://www.w3.org/1999/xlink" x="0px" y="0px"
	 width="64px" height="64px" viewBox="0 0 64 64" enable-background="new 0 0 64 64" xml:space="preserve">
<g id="Capa_2" display="none">
	<g display="inline">
		<g opacity="0.3">
			<path fill="#1D1D1B" d="M42.448,12.329c-2.386-2.2-5.733-3.3-10.045-3.3c-3.939,0-7.184,1.062-9.733,3.185
				c-2.55,2.123-3.792,4.946-3.726,8.47l0.012,0.023c-0.008,0.095-0.014,0.192-0.014,0.29c0,1.806,1.406,3.27,3.142,3.27
				c1.735,0,3.142-1.464,3.142-3.27c0-0.061-0.005-0.12-0.009-0.179c0.015-2.069,0.712-3.642,2.099-4.713
				c1.4-1.083,3.097-1.625,5.088-1.625c2.298,0,4.065,0.624,5.302,1.871c1.235,1.247,1.854,3.031,1.854,5.351
				c0,1.948-0.459,3.611-1.379,4.989c-0.921,1.379-2.464,3.349-4.63,5.911c-2.233,2.015-3.612,3.633-4.137,4.858
				s-0.822,3.539-0.843,6.713c0,1.806,1.456,3.271,3.251,3.271c1.754,0,3.18-1.396,3.245-3.146h0.007
				c0-1.989,0.11-3.696,0.362-4.639c0.252-0.941,0.97-2.004,2.149-3.187c2.538-2.449,4.58-4.847,6.122-7.188
				c1.543-2.341,2.314-4.924,2.314-7.748C46.025,17.597,44.834,14.528,42.448,12.329z"/>
			<circle fill="#1D1D1B" cx="31.396" cy="54.168" r="3.348"/>
		</g>
		<g>
			<g>
				<path fill="#FFFFFF" d="M41.176,11.056c-2.385-2.2-5.734-3.3-10.045-3.3c-3.939,0-7.184,1.062-9.733,3.185
					c-2.55,2.123-3.792,4.946-3.726,8.47l0.012,0.023c-0.008,0.095-0.014,0.192-0.014,0.29c0,1.806,1.406,3.27,3.142,3.27
					c1.735,0,3.142-1.464,3.142-3.27c0-0.061-0.005-0.12-0.009-0.179c0.015-2.069,0.712-3.642,2.099-4.713
					c1.4-1.083,3.097-1.625,5.088-1.625c2.298,0,4.063,0.624,5.302,1.871c1.236,1.247,1.854,3.031,1.854,5.351
					c0,1.948-0.459,3.611-1.379,4.989c-0.919,1.379-2.462,3.349-4.628,5.91c-2.232,2.014-3.611,3.634-4.136,4.857
					c-0.525,1.228-0.822,3.539-0.843,6.713c0,1.806,1.456,3.271,3.251,3.271c1.753,0,3.179-1.396,3.245-3.144h0.007
					c0-1.991,0.112-3.698,0.364-4.642c0.25-0.938,0.968-2.002,2.149-3.186c2.537-2.449,4.58-4.845,6.121-7.188
					c1.543-2.341,2.313-4.924,2.313-7.748C44.754,16.324,43.563,13.255,41.176,11.056z"/>
				<circle fill="#FFFFFF" cx="30.123" cy="52.895" r="3.348"/>
			</g>
		</g>
	</g>
</g>
<g id="Capa_3" display="none">
	<g display="inline">
		<g opacity="0.3">
			<path fill="#1D1D1B" d="M36.613,44.146c0,1.832-1.485,3.314-3.318,3.314l0,0c-1.832,0-3.317-1.482-3.317-3.314V12.37
				c0-1.833,1.485-3.318,3.317-3.318l0,0c1.833,0,3.318,1.485,3.318,3.318V44.146z"/>
			<circle fill="#1D1D1B" cx="33.295" cy="54.227" r="3.409"/>
		</g>
		<g>
			<g>
				<path fill="#FFFFFF" d="M35.318,42.852c0,1.832-1.486,3.316-3.318,3.316l0,0c-1.833,0-3.318-1.484-3.318-3.316V11.075
					c0-1.833,1.485-3.318,3.318-3.318l0,0c1.832,0,3.318,1.485,3.318,3.318V42.852z"/>
				<circle fill="#FFFFFF" cx="32" cy="52.932" r="3.409"/>
			</g>
		</g>
	</g>
</g>
<g id="Capa_4" display="none">
	<g display="inline">
		<g opacity="0.3">
			<path fill="#1D1D1B" d="M34.499,56.361h-2.611c-1.542,0-2.837-1.103-3.082-2.618l-0.604-3.611
				c-1.531-0.446-2.973-1.088-4.303-1.907l-3.129,1.965c-0.498,0.313-1.074,0.479-1.663,0.479c-0.892,0-1.744-0.383-2.338-1.051
				l-1.732-1.951c-1.02-1.147-1.06-2.849-0.095-4.041l2.288-2.834c-0.395-0.83-0.727-1.709-0.995-2.625l-3.644-0.608
				c-1.512-0.25-2.611-1.548-2.611-3.082v-2.609c0-1.537,1.099-2.834,2.614-3.083l3.642-0.609c0.355-1.204,0.837-2.363,1.438-3.462
				l-2.085-2.921c-0.893-1.246-0.754-2.94,0.33-4.026l1.846-1.847c0.592-0.59,1.377-0.915,2.211-0.915
				c0.655,0,1.283,0.201,1.816,0.581l2.914,2.08c1.114-0.611,2.285-1.097,3.498-1.453l0.605-3.621
				c0.243-1.51,1.539-2.611,3.081-2.611h2.611c1.537,0,2.834,1.1,3.084,2.614l0.603,3.616c1.582,0.462,3.076,1.136,4.457,2.01
				l3.067-1.929c0.496-0.314,1.072-0.48,1.662-0.48c0.892,0,1.744,0.382,2.338,1.05l1.735,1.952
				c1.021,1.151,1.061,2.851,0.094,4.042l-2.307,2.859c0.365,0.792,0.676,1.618,0.924,2.47l3.595,0.599
				c1.511,0.248,2.61,1.544,2.612,3.082v2.609c0,1.537-1.1,2.834-2.614,3.082l-3.593,0.602c-0.354,1.207-0.836,2.369-1.442,3.479
				l2.181,3.057c0.896,1.242,0.756,2.936-0.332,4.023l-1.846,1.848c-0.589,0.592-1.375,0.918-2.211,0.918
				c-0.656,0-1.283-0.203-1.816-0.586l-3.063-2.188c-1.098,0.598-2.25,1.072-3.441,1.422l-0.603,3.619
				C37.333,55.264,36.036,56.361,34.499,56.361z M23.91,45.595c0.237,0,0.474,0.07,0.678,0.212c1.486,1.019,3.154,1.756,4.958,2.196
				c0.466,0.115,0.819,0.496,0.898,0.972l0.733,4.379c0.057,0.354,0.355,0.604,0.71,0.604h2.611c0.355,0,0.654-0.252,0.713-0.603
				l0.73-4.383c0.078-0.476,0.433-0.854,0.898-0.972c1.485-0.362,2.91-0.951,4.234-1.75c0.41-0.248,0.929-0.229,1.318,0.051
				l3.691,2.638c0.155,0.11,0.313,0.136,0.417,0.136c0.192,0,0.374-0.076,0.511-0.214l1.846-1.846
				c0.252-0.25,0.285-0.64,0.078-0.927L46.305,42.4c-0.279-0.394-0.299-0.911-0.049-1.321c0.807-1.33,1.402-2.767,1.77-4.267
				c0.113-0.467,0.496-0.821,0.971-0.899l4.355-0.729c0.353-0.058,0.604-0.356,0.604-0.711v-2.609c0-0.354-0.254-0.655-0.603-0.712
				l-4.358-0.727c-0.476-0.079-0.854-0.433-0.972-0.9c-0.293-1.202-0.725-2.352-1.276-3.416c-0.222-0.424-0.17-0.938,0.131-1.31
				l2.789-3.458c0.226-0.276,0.213-0.669-0.022-0.936l-1.731-1.95c-0.229-0.255-0.634-0.317-0.924-0.133l-3.729,2.343
				c-0.408,0.257-0.932,0.245-1.328-0.032c-1.535-1.074-3.25-1.847-5.095-2.299c-0.468-0.114-0.821-0.496-0.899-0.97l-0.729-4.38
				c-0.059-0.351-0.357-0.604-0.713-0.604h-2.611c-0.355,0-0.653,0.251-0.709,0.598l-0.734,4.389
				c-0.079,0.474-0.433,0.855-0.9,0.969c-1.507,0.369-2.949,0.968-4.285,1.78c-0.411,0.25-0.931,0.231-1.323-0.048l-3.543-2.528
				c-0.28-0.2-0.688-0.166-0.932,0.077l-1.844,1.845c-0.25,0.25-0.282,0.642-0.076,0.93l2.535,3.552
				c0.28,0.391,0.299,0.911,0.049,1.322c-0.8,1.318-1.395,2.75-1.767,4.254c-0.115,0.466-0.496,0.818-0.968,0.897l-4.405,0.736
				c-0.351,0.058-0.604,0.357-0.604,0.712v2.608c0,0.354,0.253,0.654,0.602,0.711l4.408,0.736c0.473,0.08,0.854,0.432,0.968,0.898
				c0.315,1.273,0.769,2.473,1.35,3.555c0.229,0.426,0.18,0.947-0.124,1.322l-2.776,3.438c-0.223,0.275-0.213,0.669,0.023,0.936
				l1.731,1.951c0.228,0.254,0.635,0.314,0.926,0.133l3.781-2.375C23.466,45.657,23.688,45.595,23.91,45.595z M33.24,42.618
				c-5.21,0-9.448-4.238-9.448-9.448c0-5.209,4.238-9.447,9.448-9.447c5.21,0,9.447,4.238,9.447,9.447
				C42.688,38.38,38.45,42.618,33.24,42.618z M33.24,26.126c-3.885,0-7.045,3.16-7.045,7.044c0,3.885,3.16,7.044,7.045,7.044
				c3.885,0,7.045-3.159,7.045-7.044C40.285,29.286,37.125,26.126,33.24,26.126z"/>
		</g>
		<g>
			<g>
				<path fill="#FFFFFF" d="M33.328,55.191h-2.61c-1.542,0-2.837-1.104-3.082-2.619l-0.604-3.611
					c-1.531-0.447-2.973-1.088-4.303-1.908L19.6,49.018c-0.498,0.314-1.074,0.48-1.663,0.48c-0.892,0-1.744-0.383-2.338-1.051
					l-1.732-1.951c-1.02-1.148-1.06-2.848-0.095-4.041l2.288-2.834c-0.395-0.83-0.727-1.709-0.995-2.625l-3.644-0.609
					c-1.512-0.25-2.611-1.547-2.611-3.082v-2.609c0-1.537,1.099-2.834,2.614-3.083l3.642-0.609c0.355-1.204,0.837-2.363,1.438-3.462
					l-2.085-2.921c-0.893-1.246-0.754-2.94,0.33-4.026l1.846-1.847c0.592-0.59,1.377-0.915,2.211-0.915
					c0.655,0,1.283,0.201,1.816,0.581l2.914,2.08c1.114-0.611,2.285-1.097,3.498-1.453l0.605-3.621
					c0.243-1.51,1.539-2.611,3.081-2.611h2.61c1.537,0,2.834,1.1,3.084,2.614l0.602,3.616c1.582,0.462,3.076,1.136,4.457,2.01
					l3.068-1.929c0.496-0.314,1.072-0.48,1.662-0.48c0.893,0,1.744,0.382,2.338,1.05l1.734,1.952
					c1.021,1.151,1.062,2.851,0.095,4.042l-2.306,2.859c0.365,0.792,0.675,1.618,0.922,2.47l3.596,0.599
					c1.511,0.248,2.609,1.544,2.611,3.082v2.611c0,1.537-1.101,2.834-2.613,3.082l-3.594,0.6c-0.354,1.207-0.836,2.371-1.441,3.479
					l2.18,3.056c0.896,1.242,0.758,2.937-0.33,4.024l-1.847,1.847c-0.589,0.592-1.375,0.918-2.211,0.918
					c-0.655,0-1.284-0.203-1.817-0.586l-3.062-2.187c-1.099,0.596-2.25,1.071-3.44,1.422l-0.604,3.619
					C36.162,54.092,34.865,55.191,33.328,55.191z M22.74,44.424c0.237,0,0.474,0.07,0.678,0.211
					c1.486,1.018,3.154,1.756,4.958,2.197c0.466,0.115,0.819,0.496,0.898,0.971l0.733,4.379c0.057,0.354,0.355,0.605,0.71,0.605
					h2.61c0.354,0,0.655-0.252,0.713-0.602l0.729-4.385c0.08-0.475,0.434-0.854,0.899-0.971c1.483-0.363,2.91-0.951,4.233-1.75
					c0.41-0.248,0.93-0.229,1.32,0.051l3.69,2.639c0.155,0.109,0.313,0.135,0.417,0.135c0.191,0,0.374-0.076,0.511-0.213
					l1.847-1.848c0.25-0.25,0.283-0.639,0.078-0.926l-2.632-3.688c-0.278-0.394-0.299-0.912-0.049-1.321
					c0.808-1.33,1.401-2.767,1.771-4.267c0.113-0.468,0.494-0.822,0.97-0.899l4.354-0.729c0.354-0.057,0.604-0.355,0.604-0.711
					v-2.609c0-0.354-0.255-0.655-0.603-0.712l-4.358-0.727c-0.476-0.079-0.854-0.433-0.972-0.9
					c-0.293-1.202-0.725-2.352-1.276-3.416c-0.222-0.424-0.171-0.938,0.131-1.31l2.789-3.458c0.224-0.276,0.213-0.669-0.022-0.936
					l-1.731-1.95c-0.229-0.255-0.636-0.317-0.925-0.133l-3.729,2.343c-0.406,0.257-0.932,0.245-1.326-0.032
					c-1.537-1.074-3.25-1.847-5.097-2.299c-0.468-0.114-0.819-0.496-0.897-0.97l-0.729-4.38c-0.058-0.351-0.356-0.604-0.713-0.604
					h-2.61c-0.355,0-0.653,0.251-0.709,0.598l-0.734,4.389c-0.079,0.474-0.433,0.854-0.9,0.969c-1.507,0.369-2.949,0.968-4.285,1.78
					c-0.411,0.25-0.931,0.231-1.323-0.048l-3.543-2.528c-0.28-0.2-0.688-0.166-0.932,0.077l-1.844,1.845
					c-0.25,0.25-0.282,0.642-0.076,0.93l2.535,3.552c0.28,0.391,0.299,0.911,0.049,1.322c-0.8,1.318-1.395,2.75-1.767,4.254
					c-0.115,0.466-0.496,0.818-0.968,0.897l-4.405,0.736c-0.351,0.058-0.604,0.357-0.604,0.712v2.61
					c0,0.354,0.253,0.653,0.602,0.711l4.408,0.735c0.473,0.08,0.854,0.433,0.968,0.897c0.315,1.274,0.769,2.474,1.35,3.556
					c0.229,0.426,0.18,0.946-0.124,1.321l-2.776,3.438c-0.223,0.275-0.213,0.668,0.023,0.935l1.731,1.951
					c0.228,0.254,0.635,0.315,0.926,0.133l3.781-2.375C22.296,44.486,22.518,44.424,22.74,44.424z M32.069,41.447
					c-5.209,0-9.448-4.238-9.448-9.448s4.238-9.447,9.448-9.447c5.21,0,9.449,4.238,9.449,9.447S37.279,41.447,32.069,41.447z
					 M32.069,24.956c-3.884,0-7.044,3.16-7.044,7.044c0,3.883,3.16,7.043,7.044,7.043c3.885,0,7.045-3.16,7.045-7.043
					C39.114,28.115,35.954,24.956,32.069,24.956z"/>
			</g>
		</g>
	</g>
</g>
<g id="Capa_5" display="none">
	<g display="inline">
		<g>
			<g opacity="0.3">
				<path fill="#1D1D1B" d="M52.342,47.045c-0.189-0.438-4.677-10.791-8.713-14.035c-0.535-0.43-1.307-0.4-1.813,0.061
					c-0.034,0.031-3.49,3.136-8.688,3.136c-5.74,0-8.363-2.897-8.465-3.015c-0.008-0.01-0.018-0.017-0.026-0.023
					c-0.039-0.044-0.083-0.083-0.128-0.122c-0.026-0.021-0.05-0.045-0.077-0.063c-0.047-0.035-0.099-0.064-0.15-0.094
					c-0.029-0.018-0.056-0.035-0.086-0.05c-0.054-0.024-0.111-0.044-0.169-0.063c-0.031-0.01-0.06-0.021-0.091-0.029
					c-0.059-0.016-0.119-0.021-0.18-0.026c-0.029-0.004-0.057-0.012-0.086-0.013c-0.004-0.001-0.008,0-0.013,0
					c-0.034-0.001-0.069,0.004-0.104,0.005c-0.161,0.005-0.317,0.033-0.463,0.093c-0.001,0.002-0.003,0.002-0.005,0.004
					c-0.081,0.031-0.16,0.071-0.234,0.119c-0.077,0.051-0.149,0.107-0.215,0.174c-3.315,3.227-8.471,13.438-8.688,13.873
					c-0.2,0.396-0.198,0.861,0.004,1.258c0.205,0.397,5.163,9.76,19.176,9.76c13.019,0,18.878-9.27,19.121-9.663
					C52.486,47.939,52.521,47.461,52.342,47.045z M16.777,47.543c1.285-2.495,3.835-7.173,5.992-10.227l3.004,16.781
					C20.372,52.325,17.677,48.914,16.777,47.543z M32.161,54.621h-3.468l-0.887-4.954h4.355c0.612,0,2.61,0.183,2.61,2.521
					C34.771,53.393,34.461,54.621,32.161,54.621z M36.963,54.879c0.387-0.751,0.592-1.652,0.592-2.689
					c0-3.646-2.797-5.305-5.394-5.305h-4.853l-1.727-9.643c1.734,0.906,4.231,1.744,7.545,1.744c4.556,0,7.946-1.928,9.552-3.063
					c2.537,2.698,5.477,8.586,6.797,11.517C48.249,49.057,44.215,53.621,36.963,54.879z"/>
			</g>
			<g>
				<path fill="#FFFFFF" d="M51.215,45.918c-0.189-0.438-4.677-10.791-8.713-14.035c-0.535-0.429-1.307-0.401-1.813,0.061
					c-0.035,0.031-3.49,3.133-8.688,3.133c-5.74,0-8.363-2.898-8.465-3.014c-0.008-0.009-0.018-0.015-0.026-0.024
					c-0.039-0.044-0.083-0.083-0.128-0.122c-0.026-0.022-0.05-0.045-0.077-0.065c-0.047-0.035-0.099-0.064-0.15-0.093
					c-0.029-0.016-0.056-0.035-0.086-0.048c-0.054-0.025-0.111-0.044-0.169-0.062c-0.031-0.01-0.06-0.023-0.091-0.031
					c-0.059-0.014-0.119-0.02-0.18-0.027c-0.029-0.003-0.057-0.011-0.086-0.013c-0.004,0-0.008,0-0.013,0
					c-0.034-0.001-0.069,0.003-0.104,0.005c-0.161,0.004-0.317,0.033-0.463,0.092c-0.001,0.001-0.003,0.002-0.005,0.003
					c-0.081,0.033-0.16,0.073-0.234,0.121c-0.077,0.05-0.149,0.107-0.215,0.171c-3.315,3.229-8.471,13.439-8.688,13.873
					c-0.2,0.396-0.198,0.863,0.004,1.259c0.205,0.398,5.163,9.76,19.176,9.76c13.017,0,18.877-9.27,19.121-9.662
					C51.359,46.813,51.395,46.334,51.215,45.918z M15.65,46.416c1.285-2.495,3.835-7.173,5.992-10.227l3.004,16.779
					C19.245,51.198,16.551,47.787,15.65,46.416z M31.034,53.494h-3.468l-0.887-4.954h4.355c0.612,0,2.61,0.183,2.61,2.521
					C33.645,52.266,33.334,53.494,31.034,53.494z M35.836,53.752c0.387-0.751,0.591-1.652,0.591-2.689
					c0-3.646-2.796-5.305-5.393-5.305h-4.853l-1.727-9.643c1.734,0.906,4.231,1.744,7.545,1.744c4.554,0,7.946-1.928,9.551-3.063
					c2.537,2.698,5.478,8.586,6.796,11.517C47.122,47.93,43.088,52.494,35.836,53.752z"/>
			</g>
		</g>
		<g>
			<g opacity="0.3">
				<path fill="#1D1D1B" d="M24.517,30.373c1.11,1.108,2.417,1.988,3.88,2.611c1.465,0.629,3.047,0.947,4.701,0.947
					c1.68,0,3.27-0.317,4.727-0.945c1.439-0.625,2.729-1.504,3.83-2.618c1.089-1.106,1.957-2.412,2.582-3.877
					c0.63-1.465,0.947-3.046,0.947-4.698c0-1.687-0.318-3.277-0.947-4.722c-0.62-1.444-1.49-2.732-2.586-3.83
					c-1.098-1.097-2.387-1.968-3.824-2.587c-1.449-0.63-3.04-0.949-4.729-0.949H22.346c-0.768,0-1.391,0.623-1.391,1.391v10.699
					c0.002,1.646,0.321,3.226,0.947,4.697C22.531,27.96,23.41,29.266,24.517,30.373z M23.738,12.486h9.36
					c1.305,0,2.521,0.242,3.625,0.721c1.118,0.481,2.114,1.154,2.959,2c0.846,0.847,1.52,1.844,2.002,2.967
					c0.479,1.098,0.719,2.315,0.719,3.618c0,1.273-0.241,2.485-0.723,3.604c-0.49,1.147-1.166,2.163-2.007,3.019
					c-0.847,0.857-1.841,1.536-2.952,2.016c-1.104,0.477-2.324,0.718-3.623,0.718c-1.272,0-2.487-0.243-3.605-0.723
					c-1.138-0.485-2.15-1.165-3.007-2.021c-0.854-0.854-1.535-1.866-2.022-3.005c-0.479-1.124-0.723-2.338-0.724-3.607v-9.307
					H23.738z"/>
			</g>
			<g>
				<path fill="#FFFFFF" d="M23.391,29.246c1.11,1.108,2.417,1.988,3.88,2.611c1.465,0.628,3.047,0.946,4.701,0.946
					c1.678,0,3.268-0.317,4.725-0.945c1.441-0.624,2.729-1.504,3.83-2.618c1.089-1.106,1.957-2.412,2.584-3.877
					c0.628-1.465,0.945-3.046,0.945-4.698c0-1.687-0.318-3.277-0.947-4.722c-0.62-1.444-1.49-2.732-2.586-3.83
					c-1.098-1.097-2.385-1.968-3.824-2.587c-1.449-0.63-3.04-0.949-4.727-0.949H21.22c-0.768,0-1.391,0.623-1.391,1.391v10.699
					c0.002,1.646,0.321,3.226,0.947,4.697C21.404,26.833,22.284,28.14,23.391,29.246z M22.611,11.36h9.36
					c1.304,0,2.521,0.242,3.623,0.721c1.119,0.481,2.115,1.154,2.961,2c0.844,0.847,1.519,1.844,2,2.967
					c0.479,1.098,0.721,2.315,0.721,3.618c0,1.273-0.242,2.485-0.724,3.604c-0.489,1.147-1.166,2.163-2.007,3.019
					c-0.847,0.857-1.841,1.536-2.952,2.016c-1.104,0.477-2.323,0.718-3.622,0.718c-1.275,0-2.488-0.243-3.607-0.723
					c-1.138-0.485-2.15-1.165-3.007-2.021c-0.854-0.854-1.535-1.866-2.022-3.005c-0.479-1.124-0.723-2.338-0.724-3.607V11.36z"/>
			</g>
		</g>
	</g>
</g>
<g id="Capa_6" display="none">
	<g display="inline">
		<g>
			<g opacity="0.3">
				<path fill="#1D1D1B" d="M51.296,47.85h4.562v2.032h-4.562v5.247h-2.248v-5.247h-4.595V47.85h4.595v-4.836h2.248V47.85z"/>
			</g>
			<g>
				<g>
					<path fill="#FFFFFF" d="M50.171,46.725h4.562v2.032h-4.562v5.247h-2.248v-5.247h-4.595v-2.032h4.595v-4.836h2.248V46.725z"/>
				</g>
			</g>
		</g>
		<g>
			<path fill="none" d="M31.012,48.657h-4.35l0.886,4.946h3.464c2.296,0,2.606-1.229,2.606-2.431
				C33.618,48.839,31.624,48.657,31.012,48.657z"/>
			<path fill="none" d="M15.647,46.534c0.899,1.37,3.59,4.776,8.985,6.548l-3-16.762C19.478,39.371,16.93,44.043,15.647,46.534z"/>
			<path fill="none" d="M25.342,27.42c0.856,0.855,1.866,1.534,3.002,2.019c1.119,0.479,2.33,0.722,3.604,0.722
				c1.297,0,2.514-0.241,3.616-0.717c1.109-0.48,2.104-1.158,2.951-2.014c0.84-0.854,1.514-1.869,2.002-3.014
				c0.479-1.118,0.722-2.329,0.722-3.6c0-1.301-0.241-2.517-0.718-3.613c-0.481-1.122-1.154-2.119-1.998-2.964
				c-0.847-0.844-1.84-1.516-2.959-1.997c-1.101-0.479-2.314-0.72-3.616-0.72h-9.349v9.294c0.002,1.268,0.245,2.481,0.723,3.603
				C23.809,25.558,24.489,26.567,25.342,27.42z"/>
			<path fill="none" d="M44.257,38.699c-0.905-1.473-1.848-2.821-2.741-3.77c-1.602,1.135-4.988,3.059-9.539,3.059
				c-3.31,0-5.804-0.836-7.536-1.741l1.724,9.631h4.848c2.594,0,5.385,1.657,5.385,5.297c0,1.036-0.205,1.937-0.59,2.688
				c1.461-0.254,2.784-0.646,3.987-1.115c-0.752-1.438-1.178-3.07-1.178-4.803C38.619,43.926,40.911,40.434,44.257,38.699z"/>
			<g>
				<g opacity="0.3">
					<path fill="#1D1D1B" d="M24.503,30.511c1.108,1.107,2.414,1.985,3.875,2.609c1.463,0.627,3.043,0.944,4.695,0.944
						c1.677,0,3.264-0.316,4.72-0.943c1.438-0.623,2.725-1.502,3.825-2.615c1.086-1.105,1.955-2.409,2.58-3.873
						c0.629-1.463,0.944-3.042,0.944-4.692c0-1.684-0.317-3.273-0.947-4.717c-0.618-1.441-1.487-2.728-2.581-3.824
						c-1.097-1.095-2.384-1.965-3.82-2.584c-1.446-0.628-3.037-0.948-4.721-0.948H22.334c-0.767,0-1.389,0.623-1.389,1.39v10.686
						c0.002,1.644,0.32,3.222,0.946,4.691C22.519,28.102,23.397,29.406,24.503,30.511z M23.724,12.646h9.349
						c1.302,0,2.518,0.242,3.616,0.72c1.119,0.481,2.112,1.153,2.959,1.997c0.844,0.845,1.517,1.842,1.998,2.964
						c0.477,1.096,0.718,2.312,0.718,3.613c0,1.271-0.243,2.482-0.722,3.6c-0.488,1.145-1.162,2.16-2.002,3.014
						c-0.85,0.856-1.842,1.534-2.951,2.014c-1.104,0.476-2.319,0.717-3.616,0.717c-1.273,0-2.485-0.243-3.604-0.722
						c-1.136-0.484-2.146-1.164-3.002-2.019c-0.854-0.853-1.533-1.863-2.02-3.002c-0.478-1.122-0.721-2.335-0.723-3.603V12.646z"/>
				</g>
				<g>
					<path fill="#FFFFFF" d="M23.378,29.386c1.108,1.107,2.414,1.985,3.875,2.608c1.463,0.627,3.043,0.945,4.695,0.945
						c1.677,0,3.264-0.317,4.72-0.943c1.438-0.623,2.725-1.502,3.825-2.615c1.086-1.105,1.955-2.409,2.58-3.873
						c0.629-1.463,0.944-3.042,0.944-4.692c0-1.684-0.317-3.273-0.947-4.717c-0.618-1.441-1.487-2.728-2.581-3.824
						c-1.097-1.095-2.384-1.965-3.82-2.584c-1.446-0.628-3.037-0.948-4.721-0.948H21.209c-0.767,0-1.389,0.623-1.389,1.39v10.686
						c0.002,1.644,0.32,3.222,0.946,4.691C21.394,26.977,22.272,28.281,23.378,29.386z M22.599,11.521h9.349
						c1.302,0,2.518,0.242,3.616,0.72c1.119,0.481,2.112,1.153,2.959,1.997c0.844,0.845,1.517,1.842,1.998,2.964
						c0.477,1.096,0.718,2.312,0.718,3.613c0,1.271-0.243,2.482-0.722,3.6c-0.488,1.145-1.162,2.16-2.002,3.014
						c-0.85,0.856-1.842,1.534-2.951,2.014c-1.104,0.476-2.319,0.717-3.616,0.717c-1.273,0-2.485-0.243-3.604-0.722
						c-1.136-0.484-2.146-1.164-3.002-2.019c-0.854-0.853-1.533-1.863-2.02-3.002c-0.478-1.122-0.721-2.335-0.723-3.603V11.521z"/>
				</g>
			</g>
			<g>
				<g opacity="0.3">
					<path fill="#1D1D1B" d="M50.154,38.66c-0.719,0-1.422,0.072-2.1,0.213c-1.386-2.311-2.955-4.516-4.465-5.729
						c-0.533-0.43-1.308-0.401-1.813,0.062c-0.033,0.03-3.485,3.129-8.678,3.129c-5.731,0-8.353-2.896-8.455-3.01
						c-0.008-0.009-0.018-0.017-0.026-0.023c-0.039-0.045-0.083-0.083-0.127-0.122c-0.025-0.021-0.05-0.045-0.077-0.063
						c-0.047-0.034-0.099-0.064-0.15-0.095c-0.029-0.017-0.056-0.035-0.085-0.049c-0.054-0.023-0.111-0.043-0.169-0.063
						c-0.031-0.01-0.06-0.021-0.091-0.03c-0.059-0.014-0.119-0.021-0.18-0.026c-0.029-0.004-0.058-0.012-0.087-0.013
						c-0.004-0.001-0.008,0-0.012,0c-0.034-0.001-0.069,0.003-0.104,0.005c-0.161,0.004-0.317,0.032-0.462,0.092
						c-0.002,0-0.003,0.002-0.005,0.002c-0.081,0.035-0.16,0.072-0.233,0.121c-0.078,0.051-0.15,0.107-0.215,0.172
						c-3.311,3.225-8.46,13.425-8.678,13.855c-0.2,0.396-0.198,0.863,0.004,1.258c0.204,0.397,5.156,9.746,19.151,9.746
						c3.746,0,6.896-0.771,9.492-1.875c1.899,2.008,4.586,3.266,7.561,3.266c5.74,0,10.41-4.672,10.41-10.412
						C60.563,43.331,55.895,38.66,50.154,38.66z M16.772,47.659c1.283-2.491,3.831-7.163,5.984-10.214l3,16.762
						C20.362,52.438,17.671,49.029,16.772,47.659z M32.137,54.729h-3.464l-0.886-4.945h4.35c0.611,0,2.606,0.182,2.606,2.518
						C34.743,53.502,34.436,54.729,32.137,54.729z M36.934,54.986c0.385-0.75,0.59-1.65,0.59-2.688c0-3.64-2.791-5.297-5.384-5.297
						H27.29l-1.724-9.631c1.732,0.905,4.226,1.739,7.536,1.739c4.551,0,7.938-1.922,9.539-3.059
						c0.896,0.948,1.836,2.297,2.741,3.771c-3.346,1.732-5.638,5.227-5.638,9.244c0,1.731,0.426,3.363,1.178,4.804
						C39.719,54.342,38.395,54.734,36.934,54.986z M50.154,56.703c-1.879,0-3.596-0.684-4.928-1.813
						c-0.729-0.617-1.338-1.365-1.793-2.209c-0.58-1.076-0.91-2.307-0.91-3.611c0-2.994,1.734-5.584,4.254-6.834
						c0.84-0.418,1.768-0.688,2.748-0.769c0.209-0.017,0.416-0.03,0.629-0.03c4.209,0,7.632,3.424,7.632,7.633
						S54.363,56.703,50.154,56.703z"/>
				</g>
				<g>
					<path fill="#FFFFFF" d="M49.029,37.535c-0.719,0-1.422,0.072-2.1,0.213c-1.386-2.311-2.955-4.516-4.465-5.728
						c-0.533-0.429-1.308-0.401-1.813,0.061c-0.033,0.031-3.485,3.129-8.677,3.129c-5.732,0-8.352-2.895-8.454-3.01
						c-0.008-0.009-0.018-0.016-0.026-0.024c-0.039-0.044-0.083-0.083-0.127-0.122c-0.025-0.022-0.05-0.044-0.077-0.065
						c-0.047-0.035-0.099-0.064-0.15-0.093c-0.029-0.016-0.056-0.035-0.085-0.048c-0.054-0.025-0.111-0.044-0.169-0.063
						c-0.031-0.01-0.06-0.022-0.091-0.03c-0.059-0.014-0.119-0.02-0.18-0.027c-0.029-0.003-0.058-0.011-0.087-0.012
						c-0.004-0.001-0.008,0-0.012,0c-0.034-0.001-0.069,0.003-0.104,0.005c-0.161,0.004-0.317,0.032-0.462,0.091
						c-0.002,0-0.003,0.002-0.005,0.003c-0.081,0.034-0.16,0.072-0.233,0.121c-0.078,0.05-0.15,0.107-0.215,0.171
						c-3.311,3.223-8.46,13.423-8.678,13.856c-0.2,0.396-0.198,0.863,0.004,1.258c0.204,0.397,5.156,9.746,19.152,9.746
						c3.747,0,6.897-0.771,9.493-1.875c1.899,2.008,4.586,3.266,7.561,3.266c5.74,0,10.41-4.672,10.41-10.412
						C59.439,42.206,54.77,37.535,49.029,37.535z M15.647,46.534c1.283-2.491,3.831-7.163,5.984-10.214l3,16.762
						C19.237,51.313,16.546,47.904,15.647,46.534z M31.012,53.604h-3.464l-0.886-4.945h4.35c0.611,0,2.606,0.182,2.606,2.518
						C33.618,52.377,33.311,53.604,31.012,53.604z M35.809,53.861c0.385-0.75,0.59-1.65,0.59-2.688c0-3.64-2.791-5.297-5.384-5.297
						h-4.848l-1.724-9.631c1.732,0.905,4.226,1.739,7.536,1.739c4.549,0,7.938-1.922,9.54-3.059c0.895,0.948,1.836,2.297,2.74,3.771
						c-3.346,1.732-5.638,5.227-5.638,9.244c0,1.731,0.426,3.363,1.178,4.804C38.594,53.217,37.27,53.609,35.809,53.861z
						 M49.029,55.578c-1.879,0-3.596-0.684-4.928-1.813c-0.729-0.617-1.338-1.365-1.793-2.209c-0.58-1.076-0.91-2.307-0.91-3.611
						c0-2.994,1.734-5.584,4.254-6.834c0.84-0.418,1.768-0.688,2.748-0.769c0.209-0.017,0.416-0.03,0.629-0.03
						c4.209,0,7.632,3.424,7.632,7.633S53.238,55.578,49.029,55.578z"/>
				</g>
			</g>
		</g>
	</g>
</g>
<g id="Capa_7" display="none">
	<g display="inline">
		<g>
			<g opacity="0.3">
				<path fill="#1D1D1B" d="M21.656,52.541c-1.495,0-2.711-1.217-2.711-2.711V17.234c0-1.495,1.216-2.711,2.711-2.711h1.687v0.284
					c0,1.201,0.978,2.178,2.18,2.178h12.631c1.201,0,2.18-0.977,2.18-2.178v-0.284h1.695c1.494,0,2.711,1.216,2.711,2.711v28.87
					l2.727-2.597V17.234c0-3-2.439-5.439-5.438-5.439h-1.695v-1.063c0-1.202-0.979-2.179-2.18-2.179H25.522
					c-1.202,0-2.18,0.979-2.18,2.179v1.063h-1.687c-3,0-5.439,2.439-5.439,5.439V49.83c0,2.998,2.439,5.438,5.439,5.438h9.191
					l-2.086-2.727H21.656z"/>
			</g>
			<g>
				<g>
					<path fill="#FFFFFF" d="M20.551,51.438c-1.495,0-2.711-1.218-2.711-2.711V16.129c0-1.495,1.216-2.711,2.711-2.711h1.687v0.284
						c0,1.201,0.978,2.178,2.18,2.178h12.631c1.201,0,2.18-0.977,2.18-2.178v-0.284h1.695c1.494,0,2.711,1.216,2.711,2.711v28.87
						l2.727-2.597V16.129c0-3-2.438-5.439-5.438-5.439h-1.695V9.627c0-1.202-0.979-2.179-2.18-2.179H24.417
						c-1.202,0-2.18,0.978-2.18,2.179v1.063H20.55c-3,0-5.439,2.439-5.439,5.439v32.596c0,2.998,2.439,5.438,5.439,5.438h9.191
						l-2.086-2.728h-7.104V51.438z"/>
				</g>
			</g>
		</g>
		<g>
			<g opacity="0.3">
				<path fill="#1D1D1B" d="M57.859,37.328c-0.15-0.143-0.344-0.214-0.537-0.214s-0.387,0.071-0.537,0.215L38.467,54.761
					l-7.798-5.438c-0.135-0.095-0.291-0.142-0.445-0.142c-0.207,0-0.412,0.082-0.564,0.241c-0.266,0.277-0.289,0.707-0.056,1.013
					l7.906,10.34c0.145,0.188,0.363,0.302,0.598,0.308c0.01,0,0.018,0,0.021,0c0.229,0,0.445-0.101,0.594-0.271l19.193-22.41
					C58.186,38.085,58.16,37.614,57.859,37.328z"/>
			</g>
			<g>
				<path fill="#FFFFFF" d="M56.756,36.223c-0.15-0.143-0.344-0.213-0.537-0.213s-0.387,0.072-0.537,0.215L37.363,53.655
					l-7.799-5.438c-0.135-0.094-0.291-0.141-0.445-0.141c-0.207,0-0.412,0.082-0.564,0.242c-0.266,0.275-0.289,0.707-0.056,1.012
					l7.907,10.34c0.145,0.188,0.363,0.301,0.598,0.307c0.008,0,0.016,0,0.021,0c0.229,0,0.445-0.1,0.594-0.271l19.193-22.41
					C57.082,36.98,57.057,36.509,56.756,36.223z"/>
			</g>
		</g>
		<g>
			<g opacity="0.3">
				<path fill="#1D1D1B" d="M28.971,24.909c0.634,0,1.232,0.078,1.795,0.233c0.563,0.155,1.058,0.396,1.485,0.719
					c0.427,0.323,0.767,0.737,1.019,1.242s0.379,1.113,0.379,1.824c0,1.049-0.262,1.883-0.784,2.504
					c-0.524,0.621-1.194,1.061-2.009,1.32l4.069,4.892c0.038,0.077,0.059,0.147,0.059,0.213c0,0.117-0.041,0.218-0.125,0.304
					c-0.084,0.082-0.187,0.125-0.301,0.125h-0.836c-0.259,0-0.449-0.064-0.572-0.193c-0.123-0.131-0.209-0.239-0.262-0.33
					l-3.953-4.735h-3.339v4.949c0,0.144-0.052,0.267-0.155,0.368c-0.103,0.104-0.227,0.154-0.369,0.154h-0.796
					c-0.143,0-0.265-0.052-0.369-0.154c-0.104-0.103-0.155-0.227-0.155-0.368V25.434c0-0.142,0.052-0.265,0.155-0.369
					c0.104-0.103,0.226-0.155,0.369-0.155L28.971,24.909L28.971,24.909z M25.593,31.275h3.28c0.932,0,1.653-0.184,2.164-0.553
					c0.511-0.369,0.767-0.967,0.767-1.796c0-0.828-0.256-1.413-0.767-1.756c-0.511-0.342-1.232-0.514-2.164-0.514h-3.28V31.275z"/>
				<path fill="#1D1D1B" d="M37.895,38.757l-2.213,2.777c-0.041,0.053-0.102,0.114-0.181,0.188
					c-0.078,0.072-0.187,0.109-0.321,0.109h-0.723c-0.105,0-0.193-0.037-0.268-0.109c-0.072-0.072-0.109-0.156-0.109-0.25
					c0-0.084,0.021-0.156,0.063-0.223l2.873-3.594L34.3,34.252c-0.043-0.063-0.063-0.137-0.063-0.221
					c0-0.094,0.037-0.178,0.109-0.25c0.072-0.073,0.162-0.11,0.269-0.11h0.753c0.137,0,0.242,0.037,0.32,0.11
					c0.078,0.072,0.141,0.135,0.182,0.188l2.088,2.621l2.068-2.621c0.043-0.053,0.104-0.115,0.184-0.188
					c0.078-0.073,0.188-0.11,0.32-0.11h0.723c0.104,0,0.191,0.037,0.27,0.11c0.07,0.072,0.107,0.156,0.107,0.25
					c0,0.084-0.021,0.156-0.063,0.221l-2.729,3.438l2.84,3.563c0.044,0.063,0.063,0.138,0.063,0.222c0,0.094-0.035,0.178-0.109,0.25
					c-0.072,0.073-0.162,0.11-0.266,0.11h-0.754c-0.137,0-0.244-0.037-0.322-0.11c-0.078-0.072-0.139-0.136-0.18-0.188
					L37.895,38.757z"/>
			</g>
			<g>
				<g>
					<path fill="#FFFFFF" d="M27.866,23.804c0.634,0,1.232,0.078,1.795,0.233c0.563,0.155,1.058,0.396,1.485,0.719
						c0.427,0.323,0.767,0.737,1.019,1.242s0.378,1.113,0.378,1.824c0,1.049-0.262,1.883-0.786,2.504
						c-0.524,0.621-1.194,1.061-2.009,1.32l4.07,4.893c0.037,0.076,0.058,0.148,0.058,0.213c0,0.115-0.042,0.217-0.126,0.301
						s-0.186,0.125-0.301,0.125h-0.835c-0.259,0-0.45-0.063-0.572-0.193c-0.124-0.129-0.21-0.238-0.262-0.328l-3.953-4.736h-3.339
						v4.949c0,0.143-0.052,0.266-0.155,0.367c-0.103,0.104-0.227,0.154-0.369,0.154h-0.796c-0.143,0-0.265-0.051-0.369-0.154
						c-0.104-0.103-0.155-0.227-0.155-0.367v-12.54c0-0.142,0.052-0.265,0.155-0.369c0.104-0.103,0.226-0.155,0.369-0.155
						L27.866,23.804L27.866,23.804z M24.488,30.17h3.28c0.932,0,1.653-0.184,2.164-0.553c0.511-0.369,0.767-0.967,0.767-1.796
						c0-0.828-0.256-1.413-0.767-1.756c-0.511-0.342-1.232-0.514-2.164-0.514h-3.28V30.17z"/>
					<path fill="#FFFFFF" d="M36.791,37.65l-2.215,2.776c-0.041,0.054-0.102,0.115-0.18,0.188c-0.078,0.072-0.188,0.109-0.322,0.109
						h-0.723c-0.104,0-0.193-0.037-0.269-0.109c-0.073-0.072-0.108-0.156-0.108-0.25c0-0.084,0.021-0.156,0.063-0.223l2.871-3.594
						l-2.717-3.404c-0.041-0.063-0.063-0.137-0.063-0.221c0-0.094,0.037-0.178,0.109-0.251s0.162-0.11,0.268-0.11h0.752
						c0.137,0,0.244,0.037,0.322,0.11s0.139,0.136,0.182,0.188l2.088,2.619l2.07-2.619c0.043-0.053,0.104-0.115,0.182-0.188
						s0.188-0.11,0.322-0.11h0.721c0.105,0,0.193,0.037,0.27,0.11c0.07,0.073,0.107,0.157,0.107,0.251
						c0,0.084-0.021,0.157-0.063,0.221l-2.73,3.438l2.84,3.563c0.045,0.063,0.063,0.138,0.063,0.222c0,0.094-0.034,0.178-0.108,0.25
						c-0.071,0.073-0.162,0.11-0.267,0.11h-0.754c-0.137,0-0.244-0.037-0.321-0.11c-0.078-0.072-0.14-0.136-0.181-0.188
						L36.791,37.65z"/>
				</g>
			</g>
		</g>
	</g>
</g>
<g>
	<g opacity="0.3">
		
			<path fill-rule="evenodd" clip-rule="evenodd" fill="none" stroke="#000000" stroke-width="3.8614" stroke-linecap="round" stroke-linejoin="round" stroke-miterlimit="22.9256" d="
			M60.789,59.167l-4.412-25.632L26.97,5.604C21.319,2.048,13.192,3.395,7.961,8.904c-5.233,5.51-6.356,13.725-2.514,19.185
			l29.225,27.536L60.789,59.167L60.789,59.167z"/>
		
			<path fill="none" stroke="#000000" stroke-width="3.8614" stroke-linecap="round" stroke-linejoin="round" stroke-miterlimit="22.9256" d="
			M56.377,33.535l-21.705,22.09 M26.97,5.604L5.447,28.089"/>
	</g>
	<g>
		<g>
			
				<path fill-rule="evenodd" clip-rule="evenodd" fill="none" stroke="#FFFFFF" stroke-width="3.8614" stroke-linecap="round" stroke-linejoin="round" stroke-miterlimit="22.9256" d="
				M60.789,58.167l-4.412-25.632L26.97,4.604C21.319,1.048,13.192,2.395,7.961,7.904c-5.233,5.51-6.356,13.725-2.514,19.185
				l29.225,27.536L60.789,58.167L60.789,58.167z"/>
			
				<path fill="none" stroke="#FFFFFF" stroke-width="3.8614" stroke-linecap="round" stroke-linejoin="round" stroke-miterlimit="22.9256" d="
				M56.377,32.535l-21.705,22.09 M26.97,4.604L5.447,27.089"/>
		</g>
	</g>
</g>
</svg>
