<?xml version="1.0" encoding="utf-8"?>
<!-- Generator: Adobe Illustrator 16.0.0, SVG Export Plug-In . SVG Version: 6.00 Build 0)  -->
<!DOCTYPE svg PUBLIC "-//W3C//DTD SVG 1.1//EN" "http://www.w3.org/Graphics/SVG/1.1/DTD/svg11.dtd">
<svg version="1.1" id="Capa_1" xmlns="http://www.w3.org/2000/svg" xmlns:xlink="http://www.w3.org/1999/xlink" x="0px" y="0px"
	 width="64px" height="64px" viewBox="0 0 64 64" enable-background="new 0 0 64 64" xml:space="preserve">
<g id="Capa_1_1_">
	<path fill="#57C9E8" d="M64,32.077c0-0.028-0.002-0.056-0.002-0.084c0-0.023,0.002-0.047,0.002-0.07
		c0-4.445-0.831-8.634-2.484-12.453c-1.658-3.836-3.963-7.249-6.847-10.136c-2.89-2.888-6.295-5.192-10.131-6.845
		C40.721,0.832,36.523,0,32.086,0h-0.155c-0.005,0-0.011,0-0.016,0s-0.01,0-0.016,0H0v31.923c0,0.028,0.002,0.056,0.002,0.084
		c0,0.023-0.001,0.047-0.001,0.07c0,4.444,0.831,8.634,2.485,12.452c1.658,3.838,3.961,7.25,6.845,10.139
		c2.89,2.887,6.295,5.189,10.131,6.844C23.281,63.168,27.477,64,31.915,64h0.155c0.005,0,0.011,0,0.016,0s0.01,0,0.016,0H64V32.077z
		"/>
	<path fill="#57C9E8" d="M31.268,33.713"/>
</g>
<g id="Capa_2" display="none">
	<g display="inline">
		<g opacity="0.3">
			<path fill="#1D1D1B" d="M42.448,12.329c-2.386-2.2-5.733-3.3-10.045-3.3c-3.939,0-7.184,1.062-9.733,3.185
				c-2.55,2.123-3.792,4.946-3.726,8.47l0.012,0.023c-0.008,0.095-0.014,0.192-0.014,0.29c0,1.806,1.406,3.27,3.142,3.27
				c1.735,0,3.142-1.464,3.142-3.27c0-0.061-0.005-0.12-0.009-0.179c0.015-2.069,0.712-3.642,2.099-4.713
				c1.4-1.083,3.097-1.625,5.088-1.625c2.298,0,4.065,0.624,5.302,1.871c1.235,1.247,1.854,3.031,1.854,5.351
				c0,1.948-0.459,3.611-1.379,4.989c-0.92,1.379-2.463,3.349-4.629,5.911c-2.233,2.014-3.612,3.633-4.137,4.858
				s-0.822,3.539-0.843,6.713c0,1.806,1.456,3.271,3.251,3.271c1.754,0,3.18-1.396,3.246-3.146h0.006
				c0-1.989,0.111-3.696,0.363-4.639c0.252-0.941,0.969-2.004,2.149-3.187c2.538-2.449,4.58-4.846,6.122-7.188
				c1.543-2.341,2.314-4.924,2.314-7.748C46.025,17.597,44.834,14.528,42.448,12.329z"/>
			<circle fill="#1D1D1B" cx="31.396" cy="54.168" r="3.348"/>
		</g>
		<g>
			<g>
				<path fill="#FFFFFF" d="M41.176,11.056c-2.385-2.2-5.734-3.3-10.045-3.3c-3.939,0-7.184,1.062-9.733,3.185
					c-2.55,2.123-3.792,4.946-3.726,8.47l0.012,0.023c-0.008,0.095-0.014,0.192-0.014,0.29c0,1.806,1.406,3.27,3.142,3.27
					c1.735,0,3.142-1.464,3.142-3.27c0-0.061-0.005-0.12-0.009-0.179c0.015-2.069,0.712-3.642,2.099-4.713
					c1.4-1.083,3.097-1.625,5.088-1.625c2.298,0,4.063,0.624,5.302,1.871c1.236,1.247,1.854,3.031,1.854,5.351
					c0,1.948-0.459,3.611-1.379,4.989c-0.919,1.379-2.462,3.349-4.628,5.91c-2.232,2.014-3.611,3.634-4.136,4.857
					c-0.525,1.228-0.822,3.539-0.843,6.713c0,1.806,1.456,3.271,3.251,3.271c1.753,0,3.179-1.396,3.245-3.144h0.007
					c0-1.991,0.112-3.698,0.364-4.641c0.25-0.939,0.968-2.002,2.149-3.186c2.537-2.449,4.58-4.845,6.121-7.188
					c1.543-2.341,2.314-4.924,2.314-7.748C44.754,16.324,43.563,13.255,41.176,11.056z"/>
				<circle fill="#FFFFFF" cx="30.123" cy="52.895" r="3.348"/>
			</g>
		</g>
	</g>
</g>
<g id="Capa_3">
	<g>
		<g opacity="0.3">
			<path fill="#1D1D1B" d="M36.613,44.146c0,1.832-1.485,3.315-3.318,3.315l0,0c-1.832,0-3.317-1.483-3.317-3.315V12.37
				c0-1.833,1.485-3.318,3.317-3.318l0,0c1.833,0,3.318,1.485,3.318,3.318V44.146z"/>
			<circle fill="#1D1D1B" cx="33.295" cy="54.227" r="3.409"/>
		</g>
		<g>
			<g>
				<path fill="#FFFFFF" d="M35.318,42.852c0,1.832-1.486,3.316-3.318,3.316l0,0c-1.833,0-3.318-1.484-3.318-3.316V11.075
					c0-1.833,1.485-3.318,3.318-3.318l0,0c1.832,0,3.318,1.485,3.318,3.318V42.852z"/>
				<circle fill="#FFFFFF" cx="32" cy="52.932" r="3.409"/>
			</g>
		</g>
	</g>
</g>
<g id="Capa_4" display="none">
	<g display="inline">
		<g opacity="0.3">
			<path fill="#1D1D1B" d="M34.499,56.361h-2.611c-1.542,0-2.837-1.102-3.082-2.618l-0.604-3.611
				c-1.531-0.446-2.973-1.088-4.303-1.907l-3.129,1.965c-0.498,0.313-1.074,0.479-1.663,0.479c-0.892,0-1.744-0.383-2.338-1.051
				l-1.732-1.951c-1.02-1.147-1.06-2.849-0.095-4.041l2.288-2.834c-0.395-0.83-0.727-1.709-0.995-2.625l-3.644-0.608
				c-1.512-0.25-2.611-1.548-2.611-3.082v-2.61c0-1.537,1.099-2.834,2.614-3.083l3.642-0.609c0.355-1.204,0.837-2.363,1.438-3.462
				l-2.085-2.921c-0.893-1.246-0.754-2.94,0.33-4.026l1.846-1.847c0.592-0.59,1.377-0.915,2.211-0.915
				c0.655,0,1.283,0.201,1.816,0.581l2.914,2.08c1.114-0.611,2.285-1.097,3.498-1.453l0.605-3.621
				c0.243-1.51,1.539-2.611,3.081-2.611h2.611c1.537,0,2.834,1.1,3.084,2.614l0.603,3.616c1.582,0.462,3.076,1.136,4.457,2.01
				l3.067-1.929c0.496-0.314,1.072-0.48,1.662-0.48c0.892,0,1.744,0.382,2.338,1.05l1.735,1.952
				c1.021,1.151,1.061,2.851,0.094,4.042l-2.307,2.859c0.365,0.792,0.676,1.618,0.924,2.47l3.595,0.599
				c1.511,0.248,2.61,1.544,2.612,3.082v2.61c0,1.537-1.1,2.834-2.614,3.082l-3.593,0.601c-0.354,1.207-0.836,2.37-1.442,3.479
				l2.181,3.056c0.895,1.242,0.756,2.936-0.332,4.024l-1.846,1.847c-0.589,0.592-1.375,0.918-2.211,0.918
				c-0.656,0-1.283-0.203-1.816-0.586l-3.063-2.187c-1.098,0.597-2.25,1.072-3.441,1.422l-0.603,3.619
				C37.333,55.264,36.036,56.361,34.499,56.361z M23.91,45.595c0.237,0,0.474,0.07,0.678,0.212c1.486,1.018,3.154,1.756,4.958,2.196
				c0.466,0.115,0.819,0.496,0.898,0.972l0.733,4.379c0.057,0.354,0.355,0.604,0.71,0.604h2.611c0.355,0,0.654-0.252,0.713-0.603
				l0.73-4.383c0.078-0.475,0.433-0.854,0.899-0.971c1.485-0.363,2.91-0.951,4.234-1.75c0.411-0.248,0.929-0.229,1.319,0.051
				l3.691,2.637c0.155,0.111,0.313,0.136,0.417,0.136c0.192,0,0.374-0.076,0.511-0.214l1.846-1.846
				c0.252-0.25,0.285-0.639,0.078-0.926l-2.631-3.688c-0.279-0.394-0.299-0.912-0.049-1.322c0.807-1.33,1.402-2.766,1.77-4.266
				c0.113-0.467,0.496-0.822,0.97-0.9l4.356-0.729c0.352-0.058,0.604-0.357,0.604-0.711v-2.61c0-0.354-0.254-0.655-0.602-0.712
				l-4.359-0.727c-0.475-0.079-0.855-0.433-0.971-0.9c-0.293-1.202-0.725-2.352-1.277-3.416c-0.221-0.424-0.17-0.938,0.131-1.31
				l2.789-3.458c0.225-0.276,0.213-0.669-0.023-0.936l-1.731-1.95c-0.229-0.255-0.634-0.317-0.924-0.133l-3.729,2.343
				c-0.408,0.257-0.932,0.245-1.328-0.032c-1.535-1.074-3.25-1.847-5.095-2.299c-0.468-0.114-0.821-0.496-0.899-0.97l-0.729-4.38
				c-0.059-0.351-0.357-0.604-0.713-0.604h-2.611c-0.355,0-0.653,0.251-0.709,0.598l-0.734,4.389
				c-0.079,0.474-0.433,0.855-0.9,0.969c-1.507,0.369-2.949,0.968-4.285,1.78c-0.411,0.25-0.931,0.231-1.323-0.048l-3.543-2.528
				c-0.28-0.2-0.688-0.166-0.932,0.077l-1.844,1.845c-0.25,0.25-0.282,0.642-0.076,0.93l2.535,3.552
				c0.28,0.391,0.299,0.911,0.049,1.322c-0.8,1.318-1.395,2.75-1.767,4.254c-0.115,0.466-0.496,0.818-0.968,0.897l-4.405,0.736
				c-0.351,0.058-0.604,0.357-0.604,0.712v2.609c0,0.354,0.253,0.654,0.602,0.711l4.408,0.736c0.473,0.08,0.854,0.432,0.968,0.898
				c0.315,1.274,0.769,2.473,1.35,3.555c0.229,0.426,0.18,0.947-0.124,1.322l-2.776,3.438c-0.223,0.275-0.213,0.669,0.023,0.935
				l1.731,1.951c0.228,0.254,0.635,0.315,0.926,0.133l3.781-2.375C23.466,45.657,23.688,45.595,23.91,45.595z M33.24,42.618
				c-5.21,0-9.448-4.238-9.448-9.448c0-5.209,4.238-9.447,9.448-9.447c5.21,0,9.447,4.238,9.447,9.447
				C42.688,38.38,38.45,42.618,33.24,42.618z M33.24,26.126c-3.885,0-7.045,3.16-7.045,7.044c0,3.885,3.16,7.044,7.045,7.044
				c3.885,0,7.045-3.159,7.045-7.044C40.285,29.286,37.125,26.126,33.24,26.126z"/>
		</g>
		<g>
			<g>
				<path fill="#FFFFFF" d="M33.328,55.191h-2.61c-1.542,0-2.837-1.103-3.082-2.619l-0.604-3.611
					c-1.531-0.447-2.973-1.088-4.303-1.908L19.6,49.018c-0.498,0.314-1.074,0.48-1.663,0.48c-0.892,0-1.744-0.383-2.338-1.051
					l-1.732-1.951c-1.02-1.148-1.06-2.848-0.095-4.041l2.288-2.834c-0.395-0.83-0.727-1.709-0.995-2.625l-3.644-0.609
					c-1.512-0.25-2.611-1.547-2.611-3.082v-2.609c0-1.537,1.099-2.834,2.614-3.083l3.642-0.609c0.355-1.204,0.837-2.363,1.438-3.462
					l-2.085-2.921c-0.893-1.246-0.754-2.94,0.33-4.026l1.846-1.847c0.592-0.59,1.377-0.915,2.211-0.915
					c0.655,0,1.283,0.201,1.816,0.581l2.914,2.08c1.114-0.611,2.285-1.097,3.498-1.453l0.605-3.621
					c0.243-1.51,1.539-2.611,3.081-2.611h2.61c1.537,0,2.834,1.1,3.084,2.614l0.602,3.616c1.582,0.462,3.076,1.136,4.457,2.01
					l3.068-1.929c0.496-0.314,1.072-0.48,1.662-0.48c0.893,0,1.744,0.382,2.338,1.05l1.734,1.952
					c1.021,1.151,1.062,2.851,0.095,4.042l-2.306,2.859c0.365,0.792,0.675,1.618,0.922,2.47l3.596,0.599
					c1.511,0.248,2.609,1.544,2.611,3.082v2.611c0,1.537-1.1,2.834-2.613,3.082l-3.594,0.6c-0.353,1.207-0.836,2.371-1.441,3.479
					l2.18,3.056c0.896,1.242,0.758,2.936-0.33,4.024l-1.847,1.847c-0.589,0.592-1.375,0.918-2.211,0.918
					c-0.655,0-1.284-0.203-1.817-0.586l-3.062-2.187c-1.099,0.596-2.25,1.071-3.44,1.422l-0.604,3.619
					C36.162,54.092,34.865,55.191,33.328,55.191z M22.74,44.424c0.237,0,0.474,0.07,0.678,0.211
					c1.486,1.018,3.154,1.756,4.958,2.197c0.466,0.115,0.819,0.496,0.898,0.971l0.733,4.379c0.057,0.354,0.355,0.605,0.71,0.605
					h2.61c0.354,0,0.655-0.252,0.713-0.602l0.729-4.384c0.08-0.475,0.434-0.854,0.9-0.971c1.484-0.363,2.91-0.951,4.234-1.75
					c0.41-0.248,0.929-0.229,1.32,0.051l3.69,2.638c0.155,0.11,0.313,0.135,0.417,0.135c0.191,0,0.374-0.076,0.511-0.213
					l1.847-1.847c0.25-0.25,0.283-0.639,0.078-0.926l-2.632-3.688c-0.278-0.393-0.299-0.912-0.049-1.321
					c0.808-1.33,1.402-2.767,1.771-4.267c0.113-0.467,0.494-0.822,0.969-0.899l4.355-0.729c0.353-0.057,0.604-0.356,0.604-0.711
					v-2.609c0-0.354-0.254-0.655-0.603-0.712l-4.358-0.727c-0.476-0.079-0.854-0.433-0.972-0.9
					c-0.293-1.202-0.724-2.352-1.276-3.416c-0.222-0.424-0.17-0.938,0.131-1.31l2.789-3.458c0.224-0.276,0.213-0.669-0.022-0.936
					l-1.732-1.95c-0.229-0.255-0.635-0.317-0.924-0.133l-3.729,2.343c-0.407,0.257-0.932,0.245-1.327-0.032
					c-1.537-1.074-3.25-1.847-5.096-2.299c-0.468-0.114-0.82-0.496-0.898-0.97l-0.729-4.38c-0.058-0.351-0.356-0.604-0.713-0.604
					h-2.61c-0.355,0-0.653,0.251-0.709,0.598l-0.734,4.389c-0.079,0.474-0.433,0.854-0.9,0.969c-1.507,0.369-2.949,0.968-4.285,1.78
					c-0.411,0.25-0.931,0.231-1.323-0.048l-3.543-2.528c-0.28-0.2-0.688-0.166-0.932,0.077l-1.844,1.845
					c-0.25,0.25-0.282,0.642-0.076,0.93l2.535,3.552c0.28,0.391,0.299,0.911,0.049,1.322c-0.8,1.318-1.395,2.75-1.767,4.254
					c-0.115,0.466-0.496,0.818-0.968,0.897l-4.405,0.736c-0.351,0.058-0.604,0.357-0.604,0.712v2.61
					c0,0.354,0.253,0.653,0.602,0.711l4.408,0.735c0.473,0.08,0.854,0.433,0.968,0.897c0.315,1.275,0.769,2.474,1.35,3.556
					c0.229,0.426,0.18,0.946-0.124,1.321l-2.776,3.439c-0.223,0.275-0.213,0.668,0.023,0.934l1.731,1.951
					c0.228,0.254,0.635,0.316,0.926,0.133l3.781-2.375C22.296,44.486,22.518,44.424,22.74,44.424z M32.069,41.447
					c-5.209,0-9.448-4.238-9.448-9.448s4.238-9.447,9.448-9.447c5.21,0,9.449,4.238,9.449,9.447S37.279,41.447,32.069,41.447z
					 M32.069,24.956c-3.884,0-7.044,3.16-7.044,7.044c0,3.883,3.16,7.043,7.044,7.043c3.885,0,7.045-3.16,7.045-7.043
					C39.114,28.115,35.954,24.956,32.069,24.956z"/>
			</g>
		</g>
	</g>
</g>
</svg>
