<?xml version="1.0" encoding="utf-8"?>
<!-- Generator: Adobe Illustrator 16.0.0, SVG Export Plug-In . SVG Version: 6.00 Build 0)  -->
<!DOCTYPE svg PUBLIC "-//W3C//DTD SVG 1.1//EN" "http://www.w3.org/Graphics/SVG/1.1/DTD/svg11.dtd">
<svg version="1.1" id="Capa_1" xmlns="http://www.w3.org/2000/svg" xmlns:xlink="http://www.w3.org/1999/xlink" x="0px" y="0px"
	 width="64px" height="64px" viewBox="0 0 64 64" enable-background="new 0 0 64 64" xml:space="preserve">
<g id="Capa_2" display="none">
	<g display="inline">
		<g opacity="0.3">
			<path fill="#1D1D1B" d="M42.447,12.329c-2.385-2.2-5.732-3.3-10.044-3.3c-3.939,0-7.184,1.062-9.733,3.185
				c-2.55,2.123-3.792,4.946-3.726,8.47l0.012,0.023c-0.008,0.095-0.014,0.192-0.014,0.29c0,1.806,1.406,3.27,3.142,3.27
				c1.735,0,3.142-1.464,3.142-3.27c0-0.061-0.005-0.12-0.009-0.179c0.015-2.069,0.712-3.642,2.099-4.713
				c1.4-1.083,3.097-1.625,5.088-1.625c2.298,0,4.065,0.624,5.302,1.871c1.235,1.247,1.854,3.031,1.854,5.351
				c0,1.948-0.459,3.611-1.379,4.989c-0.922,1.379-2.465,3.349-4.631,5.911c-2.233,2.016-3.612,3.633-4.137,4.858
				s-0.822,3.539-0.843,6.713c0,1.806,1.456,3.271,3.251,3.271c1.754,0,3.18-1.396,3.245-3.146h0.008
				c0-1.989,0.109-3.696,0.361-4.639c0.252-0.941,0.971-2.004,2.149-3.187c2.538-2.449,4.58-4.848,6.122-7.188
				c1.543-2.341,2.314-4.924,2.314-7.748C46.025,17.597,44.834,14.528,42.447,12.329z"/>
			<circle fill="#1D1D1B" cx="31.396" cy="54.168" r="3.348"/>
		</g>
		<g>
			<g>
				<path fill="#FFFFFF" d="M41.176,11.056c-2.385-2.2-5.734-3.3-10.045-3.3c-3.939,0-7.184,1.062-9.733,3.185
					c-2.55,2.123-3.792,4.946-3.726,8.47l0.012,0.023c-0.008,0.095-0.014,0.192-0.014,0.29c0,1.806,1.406,3.27,3.142,3.27
					c1.735,0,3.142-1.464,3.142-3.27c0-0.061-0.005-0.12-0.009-0.179c0.015-2.069,0.712-3.642,2.099-4.713
					c1.4-1.083,3.097-1.625,5.088-1.625c2.298,0,4.063,0.624,5.302,1.871c1.236,1.247,1.854,3.031,1.854,5.351
					c0,1.948-0.459,3.611-1.379,4.989c-0.919,1.379-2.462,3.349-4.628,5.91c-2.232,2.014-3.611,3.634-4.136,4.857
					c-0.525,1.228-0.822,3.539-0.843,6.713c0,1.806,1.456,3.271,3.251,3.271c1.753,0,3.179-1.396,3.245-3.144h0.007
					c0-1.991,0.112-3.698,0.364-4.643c0.25-0.938,0.968-2.002,2.149-3.186c2.537-2.449,4.58-4.845,6.121-7.188
					c1.543-2.341,2.313-4.924,2.313-7.748C44.754,16.324,43.563,13.255,41.176,11.056z"/>
				<circle fill="#FFFFFF" cx="30.123" cy="52.895" r="3.348"/>
			</g>
		</g>
	</g>
</g>
<g id="Capa_3" display="none">
	<g display="inline">
		<g opacity="0.3">
			<path fill="#1D1D1B" d="M34.773,44.146c0,1.832-1.485,3.313-3.318,3.313l0,0c-1.833,0-3.318-1.481-3.318-3.313V12.37
				c0-1.833,1.485-3.318,3.318-3.318l0,0c1.833,0,3.318,1.485,3.318,3.318V44.146z"/>
			<circle fill="#1D1D1B" cx="31.456" cy="54.227" r="3.409"/>
		</g>
		<g>
			<g>
				<path fill="#FFFFFF" d="M33.479,42.852c0,1.832-1.483,3.316-3.315,3.316l0,0c-1.833,0-3.318-1.484-3.318-3.316V11.075
					c0-1.833,1.485-3.318,3.318-3.318l0,0c1.833,0,3.315,1.485,3.315,3.318V42.852z"/>
				<circle fill="#FFFFFF" cx="30.16" cy="52.932" r="3.409"/>
			</g>
		</g>
	</g>
</g>
<g>
	<path fill="#57C9E8" d="M55.051,603.633c0-0.015,0-0.027,0-0.042c0-0.012,0-0.023,0-0.036c0-2.229-0.416-4.333-1.246-6.249
		c-0.834-1.926-1.988-3.638-3.436-5.088c-1.453-1.447-3.158-2.604-5.085-3.436c-1.916-0.831-4.022-1.248-6.25-1.248h-0.078
		c-0.001,0-0.005,0-0.008,0s-0.005,0-0.009,0H22.933v16.021c0,0.016,0,0.029,0,0.043c0,0.013,0,0.022,0,0.035
		c0,2.23,0.414,4.333,1.247,6.251c0.833,1.924,1.988,3.638,3.436,5.086c1.451,1.449,3.158,2.605,5.084,3.437
		c1.916,0.83,4.021,1.25,6.249,1.25h0.076c0.004,0,0.008,0,0.01,0s0.005,0,0.008,0h16.009L55.051,603.633L55.051,603.633z"/>
	<g>
		<g opacity="0.3">
			<path fill="#1D1D1B" d="M40.178,615.134h-1.238c-0.73,0-1.344-0.521-1.461-1.24l-0.285-1.711
				c-0.727-0.211-1.407-0.514-2.039-0.903l-1.48,0.932c-0.236,0.148-0.508,0.229-0.787,0.229c-0.422,0-0.827-0.183-1.108-0.498
				l-0.82-0.926c-0.482-0.544-0.503-1.349-0.045-1.912l1.084-1.344c-0.187-0.394-0.348-0.81-0.473-1.244l-1.725-0.288
				c-0.717-0.117-1.236-0.731-1.236-1.46v-1.235c0-0.729,0.52-1.343,1.236-1.459l1.727-0.289c0.168-0.57,0.396-1.12,0.68-1.641
				l-0.987-1.384c-0.423-0.591-0.357-1.393,0.157-1.908l0.873-0.874c0.281-0.279,0.652-0.434,1.048-0.434
				c0.312,0,0.608,0.095,0.86,0.276l1.38,0.983c0.528-0.289,1.083-0.52,1.657-0.688l0.285-1.716
				c0.117-0.716,0.729-1.237,1.459-1.237h1.24c0.727,0,1.34,0.521,1.457,1.237l0.285,1.714c0.75,0.219,1.458,0.539,2.112,0.952
				l1.45-0.913c0.236-0.148,0.511-0.229,0.789-0.229c0.422,0,0.826,0.181,1.107,0.497l0.821,0.924
				c0.481,0.547,0.501,1.353,0.044,1.916l-1.092,1.354c0.174,0.375,0.32,0.768,0.436,1.171l1.705,0.284
				c0.715,0.116,1.234,0.729,1.234,1.459v1.235c0,0.729-0.518,1.344-1.234,1.461l-1.705,0.283c-0.166,0.571-0.395,1.123-0.682,1.647
				l1.033,1.447c0.422,0.587,0.357,1.392-0.157,1.906l-0.875,0.874c-0.279,0.279-0.649,0.436-1.046,0.436
				c-0.313,0-0.608-0.097-0.862-0.277l-1.448-1.035c-0.52,0.282-1.066,0.508-1.631,0.674l-0.285,1.715
				C41.518,614.612,40.904,615.134,40.178,615.134z M35.16,610.034c0.111,0,0.225,0.033,0.32,0.1
				c0.705,0.482,1.494,0.832,2.35,1.041c0.221,0.056,0.389,0.234,0.425,0.459l0.349,2.075c0.026,0.167,0.168,0.286,0.336,0.286
				h1.238c0.164,0,0.309-0.119,0.336-0.285l0.346-2.076c0.037-0.225,0.207-0.403,0.427-0.459c0.705-0.172,1.378-0.451,2.006-0.83
				c0.194-0.116,0.438-0.106,0.627,0.025l1.747,1.248c0.075,0.053,0.146,0.063,0.197,0.063c0.093,0,0.176-0.034,0.242-0.1
				l0.873-0.874c0.119-0.119,0.135-0.304,0.037-0.438l-1.246-1.748c-0.133-0.186-0.143-0.433-0.022-0.626
				c0.383-0.632,0.665-1.312,0.839-2.021c0.053-0.221,0.234-0.388,0.46-0.426l2.062-0.344c0.168-0.027,0.287-0.171,0.287-0.339
				v-1.235c0-0.168-0.119-0.311-0.287-0.336l-2.063-0.346c-0.225-0.038-0.404-0.206-0.458-0.427
				c-0.142-0.57-0.343-1.115-0.606-1.619c-0.104-0.198-0.078-0.442,0.063-0.619l1.319-1.639c0.105-0.131,0.103-0.315-0.01-0.443
				l-0.821-0.923c-0.107-0.12-0.3-0.15-0.438-0.063l-1.764,1.108c-0.195,0.123-0.443,0.117-0.631-0.014
				c-0.727-0.51-1.541-0.876-2.414-1.09c-0.221-0.055-0.389-0.236-0.426-0.46l-0.344-2.075c-0.029-0.166-0.173-0.285-0.336-0.285
				h-1.24c-0.168,0-0.309,0.119-0.334,0.283l-0.35,2.078c-0.035,0.225-0.204,0.406-0.425,0.46c-0.715,0.174-1.396,0.458-2.031,0.843
				c-0.192,0.119-0.44,0.109-0.627-0.022l-1.678-1.197c-0.134-0.095-0.325-0.078-0.438,0.037l-0.875,0.873
				c-0.118,0.119-0.133,0.305-0.035,0.439l1.202,1.684c0.133,0.186,0.141,0.432,0.022,0.627c-0.382,0.623-0.662,1.302-0.838,2.015
				c-0.054,0.22-0.235,0.389-0.46,0.425l-2.085,0.351c-0.168,0.025-0.287,0.168-0.287,0.336v1.236c0,0.168,0.119,0.311,0.287,0.338
				l2.085,0.348c0.225,0.038,0.406,0.205,0.46,0.426c0.149,0.605,0.364,1.171,0.638,1.685c0.109,0.2,0.087,0.448-0.057,0.627
				l-1.314,1.629c-0.106,0.131-0.102,0.315,0.01,0.44l0.82,0.926c0.107,0.119,0.303,0.147,0.438,0.063l1.791-1.125
				C34.949,610.063,35.057,610.034,35.16,610.034z M39.58,608.624c-2.469,0-4.477-2.008-4.477-4.477
				c0-2.468,2.008-4.476,4.477-4.476c2.467,0,4.475,2.008,4.475,4.476C44.055,606.616,42.047,608.624,39.58,608.624z M39.58,600.813
				c-1.842,0-3.338,1.497-3.338,3.336c0,1.841,1.496,3.338,3.338,3.338c1.84,0,3.335-1.497,3.335-3.338
				C42.915,602.31,41.42,600.813,39.58,600.813z"/>
		</g>
		<g>
			<g>
				<path fill="#FFFFFF" d="M39.623,614.579h-1.239c-0.729,0-1.343-0.521-1.46-1.24l-0.285-1.711
					c-0.727-0.211-1.408-0.514-2.039-0.904l-1.48,0.933c-0.236,0.147-0.508,0.228-0.787,0.228c-0.422,0-0.827-0.182-1.108-0.498
					l-0.82-0.925c-0.482-0.544-0.503-1.349-0.045-1.913l1.084-1.343c-0.187-0.395-0.348-0.811-0.473-1.244l-1.725-0.288
					c-0.717-0.118-1.236-0.731-1.236-1.46v-1.236c0-0.728,0.52-1.342,1.236-1.459l1.727-0.289c0.168-0.569,0.396-1.119,0.68-1.64
					l-0.987-1.384c-0.423-0.591-0.357-1.394,0.157-1.908l0.873-0.874c0.281-0.28,0.652-0.434,1.048-0.434
					c0.312,0,0.608,0.095,0.86,0.275l1.379,0.984c0.529-0.289,1.084-0.521,1.658-0.688l0.284-1.715
					c0.117-0.716,0.729-1.238,1.46-1.238h1.239c0.728,0,1.34,0.521,1.458,1.238l0.285,1.713c0.75,0.22,1.458,0.539,2.111,0.953
					l1.451-0.914c0.236-0.147,0.51-0.228,0.788-0.228c0.423,0,0.827,0.181,1.108,0.497l0.82,0.924
					c0.481,0.547,0.502,1.352,0.045,1.916l-1.092,1.354c0.174,0.375,0.319,0.769,0.436,1.172l1.705,0.283
					c0.715,0.117,1.234,0.73,1.234,1.459v1.236c0,0.729-0.519,1.343-1.234,1.461l-1.705,0.283c-0.166,0.571-0.395,1.123-0.682,1.646
					l1.033,1.448c0.422,0.587,0.357,1.392-0.158,1.906l-0.875,0.874c-0.278,0.279-0.648,0.435-1.045,0.435
					c-0.313,0-0.608-0.096-0.863-0.276l-1.447-1.035c-0.52,0.282-1.066,0.508-1.631,0.674l-0.286,1.714
					C40.963,614.058,40.35,614.579,39.623,614.579z M34.605,609.479c0.111,0,0.225,0.033,0.32,0.101
					c0.704,0.481,1.494,0.832,2.35,1.041c0.221,0.055,0.389,0.233,0.425,0.459l0.349,2.075c0.026,0.167,0.167,0.286,0.335,0.286
					h1.239c0.164,0,0.309-0.119,0.335-0.285l0.347-2.076c0.036-0.225,0.207-0.404,0.426-0.459c0.705-0.172,1.379-0.451,2.006-0.83
					c0.195-0.117,0.438-0.107,0.627,0.025l1.748,1.248c0.074,0.053,0.146,0.063,0.197,0.063c0.092,0,0.176-0.035,0.241-0.1
					l0.874-0.874c0.119-0.119,0.135-0.305,0.037-0.438l-1.247-1.748c-0.132-0.185-0.142-0.432-0.022-0.626
					c0.384-0.631,0.666-1.311,0.84-2.021c0.053-0.222,0.234-0.389,0.46-0.427l2.062-0.344c0.168-0.026,0.286-0.17,0.286-0.338
					v-1.236c0-0.168-0.118-0.31-0.286-0.336l-2.063-0.345c-0.225-0.038-0.405-0.206-0.458-0.427
					c-0.142-0.57-0.343-1.115-0.606-1.619c-0.104-0.199-0.078-0.443,0.063-0.619l1.32-1.639c0.105-0.131,0.103-0.316-0.011-0.443
					l-0.821-0.923c-0.106-0.121-0.3-0.151-0.438-0.063l-1.764,1.108c-0.195,0.123-0.443,0.117-0.631-0.014
					c-0.728-0.51-1.541-0.876-2.414-1.09c-0.222-0.056-0.389-0.236-0.426-0.46l-0.345-2.075c-0.028-0.166-0.172-0.285-0.336-0.285
					h-1.239c-0.168,0-0.309,0.119-0.335,0.283l-0.349,2.078c-0.036,0.225-0.204,0.405-0.426,0.46
					c-0.715,0.174-1.396,0.458-2.03,0.843c-0.193,0.119-0.44,0.109-0.627-0.023l-1.679-1.196c-0.133-0.096-0.324-0.078-0.438,0.037
					l-0.875,0.872c-0.118,0.119-0.133,0.306-0.035,0.44l1.201,1.683c0.133,0.187,0.142,0.433,0.022,0.627
					c-0.38,0.623-0.662,1.303-0.837,2.016c-0.054,0.22-0.235,0.388-0.46,0.425l-2.085,0.35c-0.168,0.026-0.287,0.169-0.287,0.337
					v1.235c0,0.168,0.119,0.312,0.287,0.338l2.085,0.349c0.225,0.038,0.406,0.205,0.46,0.426c0.149,0.604,0.364,1.171,0.638,1.684
					c0.109,0.201,0.087,0.449-0.057,0.627l-1.314,1.63c-0.106,0.131-0.102,0.315,0.01,0.44l0.82,0.925
					c0.108,0.12,0.302,0.148,0.438,0.063l1.79-1.125C34.395,609.509,34.501,609.479,34.605,609.479z M39.025,608.069
					c-2.469,0-4.477-2.009-4.477-4.478c0-2.467,2.008-4.475,4.477-4.475c2.467,0,4.474,2.008,4.474,4.475
					C43.499,606.063,41.492,608.069,39.025,608.069z M39.025,600.257c-1.842,0-3.338,1.498-3.338,3.336
					c0,1.841,1.496,3.338,3.338,3.338c1.84,0,3.334-1.497,3.334-3.338C42.359,601.755,40.865,600.257,39.025,600.257z"/>
			</g>
		</g>
	</g>
</g>
<g>
	<path fill="#57C9E8" d="M63.994,32.076c0-0.029,0-0.056,0-0.083c0-0.023,0-0.049,0-0.072c0-4.442-0.829-8.633-2.484-12.451
		c-1.66-3.837-3.96-7.248-6.844-10.137c-2.896-2.884-6.293-5.189-10.132-6.845C40.717,0.831,36.52,0,32.082,0h-0.156
		c-0.002,0-0.01,0-0.015,0c-0.004,0-0.008,0-0.018,0H0v31.92c0,0.029,0,0.058,0,0.085c0,0.023,0,0.045,0,0.07
		c0,4.444,0.825,8.633,2.485,12.455c1.66,3.834,3.961,7.245,6.845,10.134c2.891,2.888,6.292,5.191,10.129,6.846
		C23.277,63.163,27.472,64,31.911,64h0.154c0.006,0,0.013,0,0.017,0s0.01,0,0.016,0h31.897L63.994,32.076L63.994,32.076z"/>
</g>
<g>
	<g opacity="0.3">
		<path fill="#1D1D1B" d="M32.985,55.078c-12.364,0-22.423-10.06-22.423-22.424c0-7.874,6.359-16.832,13.608-19.17
			c1.029-0.333,2.132,0.233,2.464,1.262c0.332,1.029-0.233,2.133-1.262,2.465c-5.702,1.839-10.895,9.2-10.895,15.443
			c0,10.205,8.302,18.508,18.507,18.508c10.206,0,18.508-8.303,18.508-18.508c0-6.972-5.716-13.62-11.056-15.455
			c-1.022-0.352-1.567-1.465-1.215-2.488c0.352-1.023,1.466-1.566,2.488-1.216c7.553,2.596,13.698,11.191,13.698,19.159
			C55.409,45.019,45.351,55.078,32.985,55.078z"/>
	</g>
	<g>
		<path fill="#FFFFFF" d="M31.752,53.845c-12.364,0-22.423-10.06-22.423-22.423c0-7.875,6.359-16.833,13.608-19.171
			c1.029-0.333,2.132,0.233,2.464,1.262c0.332,1.029-0.233,2.133-1.262,2.465c-5.702,1.839-10.895,9.2-10.895,15.444
			c0,10.205,8.302,18.507,18.507,18.507c10.206,0,18.508-8.303,18.508-18.507c0-6.973-5.716-13.621-11.056-15.456
			c-1.022-0.352-1.567-1.465-1.215-2.488c0.352-1.023,1.466-1.566,2.488-1.216c7.553,2.596,13.698,11.191,13.698,19.159
			C54.176,43.785,44.117,53.845,31.752,53.845z"/>
	</g>
</g>
<g>
	<g opacity="0.3">
		<path fill="#1D1D1B" d="M33.064,39.622c-1.15,0-2.083-0.933-2.083-2.084V13.106c0-1.151,0.933-2.084,2.083-2.084
			c1.152,0,2.084,0.933,2.084,2.084v24.432C35.148,38.689,34.217,39.622,33.064,39.622z"/>
	</g>
	<g>
		<path fill="#FFFFFF" d="M31.752,38.31c-1.15,0-2.083-0.933-2.083-2.084V11.794c0-1.151,0.933-2.084,2.083-2.084
			c1.152,0,2.084,0.933,2.084,2.084v24.432C33.836,37.377,32.904,38.31,31.752,38.31z"/>
	</g>
</g>
</svg>
