<?xml version="1.0" encoding="utf-8"?>
<!-- Generator: Adobe Illustrator 16.0.0, SVG Export Plug-In . SVG Version: 6.00 Build 0)  -->
<!DOCTYPE svg PUBLIC "-//W3C//DTD SVG 1.1//EN" "http://www.w3.org/Graphics/SVG/1.1/DTD/svg11.dtd">
<svg version="1.1" id="Capa_1" xmlns="http://www.w3.org/2000/svg" xmlns:xlink="http://www.w3.org/1999/xlink" x="0px" y="0px"
	 width="1440px" height="629px" viewBox="0 0 1440 629" enable-background="new 0 0 1440 629" xml:space="preserve">
<g opacity="0.1">
	
		<rect x="1115.394" y="218.609" transform="matrix(0.9891 0.1471 -0.1471 0.9891 55.3236 -168.9865)" fill="#1D1D1B" width="109.78" height="141.949"/>
	
		<rect x="1115.394" y="218.609" transform="matrix(0.9891 0.1471 -0.1471 0.9891 55.3236 -168.9865)" fill="#1D1D1B" width="109.78" height="141.949"/>
	<g>
		<path fill="#1D1D1B" d="M1133.21,233.683l0.073-1.06c0.548-8.022,5.496-10.674,11.603-10.256
			c6.154,0.421,10.69,3.722,10.144,11.745l-1.039,15.186c-0.55,8.022-5.547,10.67-11.803,10.241
			c-7.114-0.486-10.393-5.169-10.096-9.51c0.096-1.412,0.833-1.817,2.146-1.727c1.11,0.074,2.192,0.555,2.105,1.815
			c-0.215,3.178,2.625,5.351,6.209,5.596c4.236,0.29,6.864-1.812,7.199-6.707l0.482-7.064c-1.814,2.107-4.553,2.831-7.579,2.625
			C1137.055,244.185,1132.679,241.453,1133.21,233.683z M1150.803,233.621c0.339-4.945-1.98-7.334-6.167-7.62
			c-4.138-0.284-6.763,1.766-7.102,6.71l-0.07,1.06c-0.338,4.945,2.002,7.031,6.189,7.318c4.035,0.276,6.729-1.314,7.048-5.957
			L1150.803,233.621z"/>
	</g>
	<g>
		<g>
			<path fill="#1D1D1B" d="M1133.21,233.683l0.073-1.06c0.548-8.022,5.496-10.674,11.603-10.256
				c6.154,0.421,10.69,3.722,10.144,11.745l-1.039,15.186c-0.55,8.022-5.547,10.67-11.803,10.241
				c-7.114-0.486-10.393-5.169-10.096-9.51c0.096-1.412,0.833-1.817,2.146-1.727c1.11,0.074,2.192,0.555,2.105,1.815
				c-0.215,3.178,2.625,5.351,6.209,5.596c4.236,0.29,6.864-1.812,7.199-6.707l0.482-7.064c-1.814,2.107-4.553,2.831-7.579,2.625
				C1137.055,244.185,1132.679,241.453,1133.21,233.683z M1150.803,233.621c0.339-4.945-1.98-7.334-6.167-7.62
				c-4.138-0.284-6.763,1.766-7.102,6.71l-0.07,1.06c-0.338,4.945,2.002,7.031,6.189,7.318c4.035,0.276,6.729-1.314,7.048-5.957
				L1150.803,233.621z"/>
		</g>
	</g>
	
		<rect x="1200.579" y="231.821" transform="matrix(0.9575 0.2883 -0.2883 0.9575 140.5846 -349.0638)" fill="#1D1D1B" width="109.779" height="141.949"/>
	
		<rect x="1200.579" y="231.821" transform="matrix(0.9575 0.2883 -0.2883 0.9575 140.5846 -349.0638)" fill="#1D1D1B" width="109.779" height="141.949"/>
	<line fill="#1D1D1B" x1="1221.1" y1="292.776" x2="1291.867" y2="314.081"/>
	<line fill="#1D1D1B" x1="1216.198" y1="309.059" x2="1286.966" y2="330.363"/>
	<line fill="#1D1D1B" x1="1206.395" y1="341.623" x2="1277.162" y2="362.928"/>
	<line fill="#1D1D1B" x1="1211.296" y1="325.34" x2="1282.064" y2="346.645"/>
	<line fill="#1D1D1B" x1="1134.83" y1="284.629" x2="1207.93" y2="295.5"/>
	<line fill="#1D1D1B" x1="1132.328" y1="301.449" x2="1205.429" y2="312.319"/>
	<line fill="#1D1D1B" x1="1127.326" y1="335.086" x2="1200.427" y2="345.957"/>
	<line fill="#1D1D1B" x1="1129.826" y1="318.268" x2="1202.929" y2="329.138"/>
	<g>
		<path fill="#1D1D1B" d="M1303.268,267.468c-1.777,4.866-4.751,6.908-8.137,7.026c3.031,2.887,4.253,7.157,2.099,13.054
			l-0.251,0.687c-3.115,8.529-9.403,9.802-15.955,7.245c-6.605-2.582-10.504-7.832-7.386-16.361l0.254-0.688
			c2.154-5.897,5.805-8.264,9.976-8.336c-2.517-2.423-3.442-5.991-1.662-10.854c2.741-7.502,8.176-8.321,14.242-5.952
			C1302.46,255.636,1306.01,259.968,1303.268,267.468z M1292.932,285.082c1.986-5.435,0.18-8.954-4.206-10.668
			c-4.439-1.733-8.047-0.33-10.033,5.107l-0.336,0.917c-2.052,5.61-0.263,9.187,4.177,10.92c4.438,1.734,8.055,0.137,10.063-5.357
			L1292.932,285.082z M1286.479,261.432c-1.676,4.582-0.09,7.357,3.756,8.86c3.789,1.48,6.807,0.501,8.482-4.08
			c1.672-4.58,0.015-7.32-3.777-8.801C1291.096,255.91,1288.151,256.852,1286.479,261.432z"/>
	</g>
	
		<rect x="1144.772" y="207.116" transform="matrix(0.9803 0.1975 -0.1975 0.9803 78.5536 -231.4575)" fill="#1D1D1B" width="109.78" height="141.95"/>
	
		<rect x="1146.982" y="199.357" transform="matrix(0.9803 0.1975 -0.1975 0.9803 75.5466 -222.035)" opacity="0.1" fill="#1D1D1B" width="7.847" height="136.731"/>
	<path fill="#1D1D1B" d="M1168.188,253.054c-1.555-0.313-2.562-1.827-2.247-3.382l6.818-33.844c0.313-1.554,1.827-2.56,3.381-2.247
		c1.555,0.313,2.562,1.827,2.248,3.381l-6.819,33.844C1171.256,252.36,1169.742,253.367,1168.188,253.054z"/>
	<path fill="#1D1D1B" d="M1195.915,261.005c-7.813-1.574-13.147-7.921-11.893-14.15l4.194-20.818
		c1.255-6.229,8.631-10.015,16.444-8.44c7.812,1.574,13.146,7.92,11.892,14.149l-4.193,20.818
		C1211.104,258.793,1203.728,262.579,1195.915,261.005z M1203.527,223.225c-4.629-0.933-9.063,0.875-9.682,3.946l-4.195,20.818
		c-0.618,3.071,2.77,6.455,7.398,7.387c4.627,0.933,9.063-0.875,9.681-3.946l4.195-20.818
		C1211.543,227.541,1208.155,224.157,1203.527,223.225z"/>
	
		<rect x="1144.772" y="207.116" transform="matrix(0.9803 0.1975 -0.1975 0.9803 78.5536 -231.4575)" fill="#1D1D1B" width="109.78" height="141.95"/>
	<line fill="#1D1D1B" x1="1164.507" y1="271.328" x2="1236.956" y2="285.925"/>
	<line fill="#1D1D1B" x1="1161.147" y1="287.997" x2="1233.598" y2="302.594"/>
	<line fill="#1D1D1B" x1="1154.431" y1="321.335" x2="1226.881" y2="335.932"/>
	<line fill="#1D1D1B" x1="1157.789" y1="304.666" x2="1230.238" y2="319.263"/>
	<g>
		<path fill="#1D1D1B" d="M1168.188,253.054c-1.555-0.313-2.562-1.827-2.247-3.382l6.818-33.844c0.313-1.554,1.827-2.56,3.381-2.247
			c1.555,0.313,2.562,1.827,2.248,3.381l-6.819,33.844C1171.256,252.36,1169.742,253.367,1168.188,253.054z"/>
	</g>
	<g>
		<path fill="#1D1D1B" d="M1195.915,261.005c-7.813-1.574-13.147-7.921-11.893-14.15l4.194-20.818
			c1.255-6.229,8.631-10.015,16.444-8.44c7.812,1.574,13.146,7.92,11.892,14.149l-4.193,20.818
			C1211.104,258.793,1203.728,262.579,1195.915,261.005z M1203.527,223.225c-4.629-0.933-9.063,0.875-9.682,3.946l-4.195,20.818
			c-0.618,3.071,2.77,6.455,7.398,7.387c4.627,0.933,9.063-0.875,9.681-3.946l4.195-20.818
			C1211.543,227.541,1208.155,224.157,1203.527,223.225z"/>
	</g>
	<g>
		<g>
			<path fill="#1D1D1B" d="M1303.268,267.468c-1.777,4.866-4.751,6.908-8.137,7.026c3.031,2.887,4.253,7.157,2.099,13.054
				l-0.251,0.687c-3.115,8.529-9.403,9.802-15.955,7.245c-6.605-2.582-10.504-7.832-7.386-16.361l0.254-0.688
				c2.154-5.897,5.805-8.264,9.976-8.336c-2.517-2.423-3.442-5.991-1.662-10.854c2.741-7.502,8.176-8.321,14.242-5.952
				C1302.46,255.636,1306.01,259.968,1303.268,267.468z M1292.932,285.082c1.986-5.435,0.18-8.954-4.206-10.668
				c-4.439-1.733-8.047-0.33-10.033,5.107l-0.336,0.917c-2.052,5.61-0.263,9.187,4.177,10.92c4.438,1.734,8.055,0.137,10.063-5.357
				L1292.932,285.082z M1286.479,261.432c-1.676,4.582-0.09,7.357,3.756,8.86c3.789,1.48,6.807,0.501,8.482-4.08
				c1.672-4.58,0.015-7.32-3.777-8.801C1291.096,255.91,1288.151,256.852,1286.479,261.432z"/>
		</g>
	</g>
</g>
<g opacity="0.2">
	
		<rect x="1045.367" y="292.297" transform="matrix(0.9753 -0.221 0.221 0.9753 -55.8113 242.6823)" fill="#1D1D1B" width="22.59" height="156.938"/>
	<path fill="#1D1D1B" d="M1038.097,294.515l3.539,15.616l12.77-2.894c4-0.906,7.977,1.602,8.885,5.602l3.824,16.874
		c0.904,4-1.604,7.976-5.604,8.882l-12.77,2.894l24.041,106.084l-9.793,2.219l-34.686-153.057L1038.097,294.515z"/>
	
		<rect x="953.7" y="305.082" transform="matrix(0.9753 -0.221 0.221 0.9753 -60.0352 230.5584)" fill="#1D1D1B" width="93.097" height="156.938"/>
	<polyline fill="#1D1D1B" points="1060.979,338.716 1085.021,444.799 1062.989,449.791 1028.304,296.734 1050.333,291.742 
		1053.874,307.358 	"/>
	
		<rect x="954.71" y="314.104" transform="matrix(-0.9753 0.221 -0.221 -0.9753 1981.2935 563.8009)" opacity="0.2" fill="#1D1D1B" width="8.804" height="157.235"/>
	<line fill="#1D1D1B" x1="932.146" y1="337.242" x2="950.94" y2="332.982"/>
	<line fill="#1D1D1B" x1="940.942" y1="376.061" x2="959.739" y2="371.801"/>
	<line fill="#1D1D1B" x1="949.739" y1="414.879" x2="968.536" y2="410.618"/>
	<line fill="#1D1D1B" x1="958.536" y1="453.697" x2="977.333" y2="449.438"/>
	
		<rect x="953.7" y="305.082" transform="matrix(0.9753 -0.221 0.221 0.9753 -60.0352 230.5584)" fill="#1D1D1B" width="93.097" height="156.938"/>
	<path fill="#1D1D1B" d="M1051.407,353.254l12.77-2.895c4.002-0.906,7.979,1.6,8.885,5.601l3.824,16.876
		c0.906,3.998-1.602,7.975-5.604,8.882l-12.768,2.894"/>
	<path fill="#1D1D1B" d="M1051.407,353.254l12.77-2.895c4.002-0.906,7.979,1.6,8.885,5.601l3.824,16.876
		c0.906,3.998-1.602,7.975-5.604,8.882l-12.768,2.894"/>
	<path fill="#1D1D1B" d="M1038.097,294.515l3.539,15.616l12.77-2.894c4-0.906,7.977,1.602,8.885,5.602l3.824,16.874
		c0.904,4-1.604,7.976-5.604,8.882l-12.77,2.894l24.041,106.084"/>
</g>
<g opacity="0.2">
	<path fill="#1D1D1B" d="M400.19,519.962c-1.994,9.653-11.438,15.862-21.092,13.868l-90.142-18.623l31.433-152.14l90.142,18.624
		c9.654,1.994,15.864,11.438,13.869,21.092L400.19,519.962z"/>
	
		<rect x="304.355" y="364.575" transform="matrix(-0.9793 -0.2023 0.2023 -0.9793 546.2244 940.6277)" fill="#1D1D1B" width="33.659" height="155.646"/>
	
		<rect x="304.613" y="362.052" transform="matrix(-0.9793 -0.2023 0.2023 -0.9793 522.5645 933.159)" opacity="0.2" fill="#1D1D1B" width="8.713" height="155.646"/>
	
		<rect x="392.717" y="379.589" transform="matrix(-0.9794 -0.2021 0.2021 -0.9794 687.1428 984.9752)" opacity="0.2" fill="#1D1D1B" width="2.266" height="155.645"/>
	
		<rect x="337.642" y="368.21" transform="matrix(-0.9793 -0.2025 0.2025 -0.9793 580.2148 951.4246)" opacity="0.2" fill="#1D1D1B" width="2.267" height="155.646"/>
	<path fill="#1D1D1B" d="M400.19,519.962c-1.994,9.653-11.438,15.862-21.092,13.868l-90.142-18.623l31.433-152.14l90.142,18.624
		c9.654,1.994,15.864,11.438,13.869,21.092L400.19,519.962z"/>
	<line fill="#1D1D1B" x1="406.206" y1="380.798" x2="374.773" y2="532.937"/>
	<line fill="#1D1D1B" x1="307.392" y1="378.832" x2="326.076" y2="382.692"/>
	<line fill="#1D1D1B" x1="299.42" y1="417.417" x2="318.104" y2="421.277"/>
	<line fill="#1D1D1B" x1="291.449" y1="456.004" x2="310.132" y2="459.863"/>
	<line fill="#1D1D1B" x1="283.476" y1="494.589" x2="302.16" y2="498.449"/>
</g>
<path opacity="0.1" d="M1124.054,54.906l-16.762,13.74c-15.883-12.841-38.25-12.886-54.196,0.187
	c-18.33,15.025-21.087,42.079-6.061,60.409c15.025,18.33,42.264,21.143,60.593,6.117c16.212-13.289,20.354-35.83,10.588-53.686
	l16.615-13.62c3.63-2.975,4.16-8.331,1.185-11.961C1133.039,52.461,1127.684,51.931,1124.054,54.906z"/>
<path opacity="0.2" fill="#1D1D1B" d="M497.208,134.319l-57.617-49.513l-0.844-11.678c-0.008-0.276,0.026-0.719-0.183-0.899
	l-28.375-24.384c-0.202-0.174-0.551-0.158-0.816-0.132l-12.341,0.515c-0.251,0.024-0.468,0.27-0.633,0.461l-60.525,70.431
	c-0.351,0.41-0.447,0.905-0.038,1.257l99.715,85.69c0.41,0.352,0.867,0.167,1.219-0.242l60.525-70.43
	C497.647,134.985,497.619,134.671,497.208,134.319z"/>
<path fill="#F9B036" stroke="#003973" stroke-width="4" stroke-linecap="round" stroke-linejoin="round" stroke-miterlimit="10" d="
	M491.208,137.319l-57.617-49.513l-0.844-11.678c-0.008-0.276,0.026-0.719-0.183-0.899l-28.375-24.384
	c-0.202-0.174-0.551-0.158-0.816-0.132l-12.341,0.515c-0.251,0.024-0.468,0.27-0.633,0.461l-60.525,70.431
	c-0.351,0.41-0.447,0.905-0.038,1.257l99.715,85.69c0.41,0.352,0.867,0.167,1.219-0.242l60.525-70.43
	C491.647,137.985,491.619,137.671,491.208,137.319z"/>
<path opacity="0.2" fill="#1D1D1B" d="M499.521,150.174l-64.678-39.85l-2.667-11.4c-0.051-0.271-0.087-0.715-0.322-0.859
	l-31.853-19.625c-0.227-0.14-0.569-0.069-0.827-0.003l-12.108,2.448c-0.244,0.062-0.419,0.339-0.552,0.554L337.801,160.5
	c-0.282,0.459-0.299,0.963,0.161,1.247l111.935,68.967c0.46,0.284,0.882,0.029,1.165-0.43l48.714-79.062
	C500.059,150.762,499.981,150.457,499.521,150.174z"/>
<path fill="#FFFFFF" d="M1117.928,51.735l-16.763,13.74c-15.883-12.841-38.407-13.079-54.354-0.007
	c-18.33,15.025-21.165,41.982-6.14,60.312c15.025,18.33,42.382,21.288,60.712,6.262c16.211-13.289,19.838-36.458,10.707-53.541
	l16.614-13.62c3.63-2.975,4.16-8.332,1.185-11.961C1126.913,49.291,1121.557,48.76,1117.928,51.735z M1090.238,118.447
	c-11.08,9.083-27.484,7.458-36.567-3.622c-9.083-11.081-7.458-27.484,3.622-36.567c11.081-9.083,27.485-7.459,36.568,3.622
	C1102.944,92.959,1101.318,109.364,1090.238,118.447z"/>
<path fill="#AD6E02" d="M1093.13,122.256c-13.226,10.842-32.807,8.902-43.649-4.323c-10.842-13.228-8.903-32.808,4.324-43.65
	c13.227-10.843,32.808-8.903,43.651,4.323C1108.298,91.833,1106.356,111.415,1093.13,122.256z"/>
<g>
	
		<rect x="1111.314" y="210.657" transform="matrix(0.9891 0.1471 -0.1471 0.9891 54.1056 -168.463)" fill="#FFFFFF" width="109.78" height="141.95"/>
	
		<rect x="1111.314" y="210.657" transform="matrix(0.9891 0.1471 -0.1471 0.9891 54.1056 -168.463)" fill="none" stroke="#003973" stroke-width="4" stroke-linecap="round" stroke-linejoin="round" stroke-miterlimit="10" width="109.78" height="141.95"/>
	
		<rect x="1196.499" y="223.869" transform="matrix(0.9576 0.2883 -0.2883 0.9576 138.1136 -348.2158)" fill="#FFFFFF" width="109.779" height="141.949"/>
	
		<rect x="1196.499" y="223.869" transform="matrix(0.9576 0.2883 -0.2883 0.9576 138.1136 -348.2158)" fill="none" stroke="#003973" stroke-width="4" stroke-linecap="round" stroke-linejoin="round" stroke-miterlimit="10" width="109.779" height="141.949"/>
	
		<line fill="none" stroke="#003973" stroke-width="4" stroke-linecap="round" stroke-linejoin="round" stroke-miterlimit="10" x1="1217.02" y1="284.825" x2="1287.787" y2="306.129"/>
	
		<line fill="none" stroke="#003973" stroke-width="4" stroke-linecap="round" stroke-linejoin="round" stroke-miterlimit="10" x1="1212.118" y1="301.107" x2="1282.886" y2="322.412"/>
	
		<line fill="none" stroke="#003973" stroke-width="4" stroke-linecap="round" stroke-linejoin="round" stroke-miterlimit="10" x1="1202.314" y1="333.672" x2="1273.082" y2="354.976"/>
	
		<line fill="none" stroke="#003973" stroke-width="4" stroke-linecap="round" stroke-linejoin="round" stroke-miterlimit="10" x1="1207.216" y1="317.389" x2="1277.984" y2="338.693"/>
	<g>
		<path fill="#F9B036" d="M1299.188,259.517c-1.777,4.866-4.751,6.908-8.137,7.026c3.031,2.887,4.253,7.157,2.099,13.054
			l-0.251,0.687c-3.115,8.529-9.403,9.802-15.955,7.245c-6.605-2.582-10.504-7.832-7.386-16.361l0.254-0.688
			c2.154-5.897,5.805-8.264,9.976-8.336c-2.517-2.423-3.442-5.991-1.662-10.854c2.741-7.502,8.176-8.321,14.242-5.952
			C1298.38,247.685,1301.93,252.017,1299.188,259.517z M1288.852,277.13c1.986-5.435,0.18-8.954-4.206-10.668
			c-4.439-1.733-8.047-0.33-10.033,5.107l-0.336,0.917c-2.052,5.61-0.263,9.187,4.177,10.92c4.438,1.734,8.055,0.137,10.063-5.357
			L1288.852,277.13z M1282.398,253.48c-1.676,4.582-0.09,7.357,3.756,8.86c3.789,1.48,6.807,0.501,8.482-4.08
			c1.672-4.58,0.015-7.32-3.777-8.801C1287.016,247.958,1284.071,248.9,1282.398,253.48z"/>
	</g>
	<g>
		<g>
			<path fill="#003973" d="M1286.86,244.158c1.729,0,3.586,0.431,5.507,1.181c6.013,2.346,9.563,6.678,6.82,14.178
				c-1.777,4.866-4.751,6.908-8.137,7.026c3.031,2.887,4.253,7.157,2.099,13.054l-0.251,0.687c-2.196,6.013-5.971,8.42-10.302,8.42
				c-1.812,0-3.721-0.421-5.653-1.175c-6.605-2.582-10.504-7.832-7.386-16.361l0.254-0.688c2.154-5.897,5.805-8.264,9.976-8.336
				c-2.517-2.423-3.442-5.991-1.662-10.854C1279.998,246.164,1283.13,244.158,1286.86,244.158 M1289.167,262.98
				c2.374,0,4.268-1.433,5.47-4.72c1.672-4.58,0.015-7.32-3.777-8.801c-1.104-0.431-2.133-0.661-3.08-0.661
				c-2.35,0-4.188,1.416-5.381,4.681c-1.676,4.582-0.09,7.357,3.756,8.86C1287.225,262.758,1288.232,262.98,1289.167,262.98
				 M1281.672,284.074c2.958,0,5.348-1.93,6.844-6.024l0.336-0.919c1.986-5.435,0.18-8.954-4.206-10.668
				c-1.182-0.461-2.305-0.701-3.354-0.701c-2.892,0-5.222,1.818-6.68,5.808l-0.336,0.917c-2.052,5.61-0.263,9.187,4.177,10.92
				C1279.584,283.848,1280.661,284.074,1281.672,284.074 M1286.861,241.158L1286.861,241.158c-3.754,0-8.805,1.58-11.554,9.103
				c-1.545,4.219-1.265,7.482-0.353,9.891c-2.874,1.227-5.973,3.854-7.961,9.299l-0.251,0.678
				c-3.333,9.117,0.073,16.663,9.108,20.194c2.348,0.917,4.617,1.381,6.745,1.381c3.482,0,9.817-1.35,13.12-10.391l0.25-0.687
				c1.97-5.392,1.436-9.44,0.005-12.392c2.217-1.211,4.499-3.487,6.034-7.688c2.982-8.157-0.134-14.719-8.548-18.002
				C1291.104,241.624,1288.884,241.158,1286.861,241.158L1286.861,241.158z M1289.167,259.98c-0.537,0-1.184-0.146-1.921-0.435
				c-2.247-0.878-3.178-1.898-2.03-5.036c0.99-2.711,2.053-2.711,2.563-2.711c0.547,0,1.215,0.153,1.988,0.455
				c2.245,0.877,3.179,1.887,2.051,4.978C1290.813,259.98,1289.66,259.98,1289.167,259.98L1289.167,259.98z M1281.672,281.074
				c-0.627,0-1.343-0.155-2.127-0.461c-2.294-0.896-4.178-2.375-2.451-7.096l0.336-0.916c1.402-3.839,3.189-3.839,3.862-3.839
				c0.66,0,1.421,0.167,2.263,0.495c2.263,0.885,4.13,2.327,2.479,6.844l-0.336,0.919
				C1284.217,281.074,1282.302,281.074,1281.672,281.074L1281.672,281.074z"/>
		</g>
	</g>
	
		<rect x="1144.772" y="205.703" transform="matrix(0.9803 0.1975 -0.1975 0.9803 78.2791 -231.495)" opacity="0.1" fill="#1D1D1B" width="109.78" height="141.949"/>
	<g>
		<path fill="#F9B036" d="M1129.13,225.731l0.073-1.06c0.548-8.022,5.496-10.674,11.603-10.256
			c6.154,0.421,10.69,3.722,10.144,11.745l-1.039,15.186c-0.55,8.022-5.547,10.67-11.803,10.241
			c-7.114-0.486-10.393-5.169-10.096-9.51c0.096-1.412,0.833-1.817,2.146-1.727c1.11,0.074,2.192,0.555,2.105,1.815
			c-0.215,3.178,2.625,5.351,6.209,5.596c4.236,0.29,6.864-1.812,7.199-6.707l0.482-7.064c-1.814,2.107-4.553,2.831-7.579,2.625
			C1132.975,236.233,1128.599,233.501,1129.13,225.731z M1146.723,225.669c0.339-4.945-1.98-7.334-6.167-7.62
			c-4.138-0.284-6.763,1.766-7.102,6.71l-0.07,1.06c-0.338,4.945,2.002,7.031,6.189,7.318c4.035,0.276,6.729-1.314,7.048-5.957
			L1146.723,225.669z"/>
	</g>
	<g>
		<g>
			<path fill="#003973" d="M1139.605,214.373c0.395,0,0.794,0.014,1.2,0.042c6.154,0.421,10.69,3.722,10.144,11.745l-1.039,15.186
				c-0.513,7.477-4.889,10.285-10.546,10.285c-0.413,0-0.831-0.015-1.257-0.044c-7.114-0.486-10.393-5.169-10.096-9.51
				c0.087-1.289,0.709-1.739,1.814-1.739c0.106,0,0.217,0.004,0.332,0.012c1.11,0.074,2.192,0.555,2.105,1.815
				c-0.215,3.178,2.625,5.351,6.209,5.596c0.256,0.018,0.506,0.026,0.749,0.026c3.796,0,6.136-2.133,6.45-6.733l0.482-7.064
				c-1.618,1.879-3.972,2.658-6.607,2.658c-0.32,0-0.645-0.011-0.972-0.034c-5.601-0.383-9.977-3.115-9.445-10.885l0.073-1.06
				C1129.715,217.183,1134.062,214.374,1139.605,214.373 M1140.427,233.168c3.559,0,5.899-1.68,6.194-5.987l0.102-1.512
				c0.339-4.945-1.98-7.334-6.167-7.62c-0.25-0.017-0.495-0.026-0.733-0.026c-3.713,0-6.05,2.09-6.368,6.736l-0.07,1.06
				c-0.338,4.945,2.002,7.031,6.189,7.318C1139.864,233.158,1140.149,233.168,1140.427,233.168 M1139.606,211.502L1139.606,211.502
				c-7.869,0-12.704,4.729-13.268,12.973l-0.073,1.058c-0.4,5.86,1.684,10.116,5.854,12.311c-0.537-0.195-1.131-0.315-1.771-0.358
				c-0.176-0.012-0.353-0.019-0.522-0.019c-2.701,0-4.494,1.692-4.679,4.415c-0.208,3.041,0.901,6.09,3.044,8.363
				c1.626,1.727,4.633,3.857,9.721,4.205c0.49,0.034,0.979,0.051,1.452,0.051c7.958,0,12.846-4.724,13.41-12.96l1.039-15.187
				c0.592-8.681-4.198-14.215-12.812-14.805C1140.529,211.519,1140.061,211.502,1139.606,211.502L1139.606,211.502z
				 M1140.427,230.297c-0.214,0-0.434-0.008-0.657-0.023c-2.571-0.176-3.754-0.859-3.521-4.258l0.07-1.065
				c0.257-3.742,1.872-4.056,3.504-4.056c0.175,0,0.354,0.007,0.537,0.02c1.333,0.091,2.271,0.446,2.787,1.055
				c0.729,0.859,0.789,2.38,0.712,3.504l-0.102,1.516C1143.565,229.785,1142.484,230.297,1140.427,230.297L1140.427,230.297z
				 M1139.222,244.918c-0.18,0-0.364-0.007-0.553-0.02c-1.486-0.101-3.654-0.861-3.541-2.538c0.082-1.196-0.287-2.333-1.042-3.197
				c-0.305-0.349-0.661-0.646-1.064-0.89c1.544,0.66,3.336,1.068,5.357,1.207c0.395,0.027,0.787,0.041,1.168,0.041
				c1.199,0,2.329-0.134,3.379-0.396l-0.118,1.735C1142.552,244.604,1140.822,244.918,1139.222,244.918L1139.222,244.918z"/>
		</g>
	</g>
	
		<line fill="none" stroke="#003973" stroke-width="4" stroke-linecap="round" stroke-linejoin="round" stroke-miterlimit="10" x1="1130.75" y1="276.678" x2="1203.85" y2="287.548"/>
	
		<line fill="none" stroke="#003973" stroke-width="4" stroke-linecap="round" stroke-linejoin="round" stroke-miterlimit="10" x1="1128.248" y1="293.497" x2="1201.349" y2="304.368"/>
	
		<line fill="none" stroke="#003973" stroke-width="4" stroke-linecap="round" stroke-linejoin="round" stroke-miterlimit="10" x1="1123.246" y1="327.135" x2="1196.347" y2="338.005"/>
	
		<line fill="none" stroke="#003973" stroke-width="4" stroke-linecap="round" stroke-linejoin="round" stroke-miterlimit="10" x1="1125.746" y1="310.316" x2="1198.849" y2="321.186"/>
	
		<rect x="1140.692" y="199.164" transform="matrix(0.9803 0.1975 -0.1975 0.9803 76.9072 -230.818)" fill="#FFFFFF" width="109.78" height="141.949"/>
	
		<rect x="1142.902" y="191.405" transform="matrix(0.9803 0.1975 -0.1975 0.9803 73.8958 -221.3858)" opacity="0.1" width="7.847" height="136.73"/>
	<path fill="#F9B036" d="M1164.108,245.102c-1.555-0.313-2.562-1.827-2.247-3.382l6.818-33.844c0.313-1.554,1.827-2.56,3.381-2.247
		c1.555,0.313,2.562,1.827,2.248,3.381l-6.819,33.844C1167.176,244.409,1165.662,245.415,1164.108,245.102z"/>
	<path fill="#F9B036" d="M1191.835,253.053c-7.813-1.574-13.147-7.921-11.893-14.15l4.194-20.818
		c1.255-6.229,8.631-10.015,16.444-8.44c7.812,1.574,13.146,7.92,11.892,14.149l-4.193,20.818
		C1207.023,250.841,1199.647,254.627,1191.835,253.053z M1199.447,215.273c-4.629-0.933-9.063,0.875-9.682,3.946l-4.195,20.818
		c-0.618,3.071,2.77,6.455,7.398,7.387c4.627,0.933,9.063-0.875,9.681-3.946l4.195-20.818
		C1207.463,219.589,1204.075,216.206,1199.447,215.273z"/>
	
		<rect x="1140.692" y="199.164" transform="matrix(0.9803 0.1975 -0.1975 0.9803 76.9072 -230.818)" fill="none" stroke="#003973" stroke-width="4" stroke-linecap="round" stroke-linejoin="round" stroke-miterlimit="10" width="109.78" height="141.949"/>
	
		<line fill="none" stroke="#003973" stroke-width="4" stroke-linecap="round" stroke-linejoin="round" stroke-miterlimit="10" x1="1160.427" y1="263.376" x2="1232.876" y2="277.974"/>
	
		<line fill="none" stroke="#003973" stroke-width="4" stroke-linecap="round" stroke-linejoin="round" stroke-miterlimit="10" x1="1157.067" y1="280.045" x2="1229.518" y2="294.643"/>
	
		<line fill="none" stroke="#003973" stroke-width="4" stroke-linecap="round" stroke-linejoin="round" stroke-miterlimit="10" x1="1150.351" y1="313.383" x2="1222.801" y2="327.98"/>
	
		<line fill="none" stroke="#003973" stroke-width="4" stroke-linecap="round" stroke-linejoin="round" stroke-miterlimit="10" x1="1153.709" y1="296.714" x2="1226.158" y2="311.311"/>
	<g>
		<path fill="#003973" d="M1171.491,205.572c0.188,0,0.378,0.019,0.569,0.057c1.555,0.313,2.562,1.827,2.248,3.381l-6.819,33.844
			c-0.274,1.363-1.473,2.305-2.812,2.305c-0.188,0-0.378-0.019-0.569-0.057c-1.555-0.313-2.562-1.827-2.247-3.382l6.818-33.844
			C1168.955,206.513,1170.152,205.572,1171.491,205.572 M1171.491,202.701L1171.491,202.701c-2.722,0-5.087,1.938-5.626,4.607
			l-6.818,33.845c-0.304,1.502-0.003,3.034,0.846,4.313c0.85,1.277,2.145,2.147,3.648,2.45c0.375,0.076,0.757,0.114,1.137,0.114
			c2.722,0,5.087-1.938,5.626-4.608l6.819-33.845c0.303-1.503,0.002-3.035-0.848-4.313c-0.849-1.277-2.145-2.147-3.648-2.45
			C1172.253,202.739,1171.871,202.701,1171.491,202.701L1171.491,202.701z"/>
	</g>
	<g>
		<path fill="#003973" d="M1197.04,209.289c1.156,0,2.344,0.115,3.541,0.356c7.812,1.574,13.146,7.92,11.892,14.149l-4.193,20.818
			c-1.063,5.274-6.516,8.797-12.904,8.797c-1.156,0-2.343-0.115-3.54-0.356c-7.813-1.574-13.147-7.921-11.893-14.15l4.194-20.818
			C1185.199,212.811,1190.65,209.289,1197.04,209.289 M1195.411,247.671c3.648,0,6.73-1.67,7.238-4.192l4.195-20.818
			c0.618-3.071-2.77-6.455-7.397-7.388c-0.827-0.167-1.648-0.246-2.443-0.246c-3.649,0-6.73,1.67-7.238,4.192l-4.195,20.818
			c-0.618,3.071,2.77,6.455,7.398,7.387C1193.796,247.591,1194.617,247.671,1195.411,247.671 M1197.04,206.417L1197.04,206.417
			c-7.938,0-14.401,4.565-15.718,11.101l-4.194,20.818c-1.567,7.78,4.776,15.645,14.14,17.531c1.361,0.274,2.742,0.413,4.107,0.413
			c7.938,0,14.4-4.565,15.719-11.101l4.193-20.818c1.567-7.78-4.775-15.644-14.139-17.531
			C1199.787,206.557,1198.405,206.417,1197.04,206.417L1197.04,206.417z M1195.411,244.8c-0.621,0-1.252-0.063-1.875-0.189
			c-3.321-0.669-5.383-2.858-5.151-4.007l4.195-20.818c0.159-0.792,1.785-1.888,4.424-1.888c0.621,0,1.253,0.063,1.876,0.189
			c3.321,0.669,5.382,2.858,5.15,4.007l-4.195,20.817C1199.676,243.704,1198.05,244.8,1195.411,244.8L1195.411,244.8z"/>
	</g>
</g>
<g>
	<path fill="#F9B036" d="M394.709,511.586c-1.994,9.653-11.438,15.863-21.092,13.868l-90.142-18.624l31.433-152.139l90.142,18.624
		c9.654,1.995,15.864,11.438,13.869,21.091L394.709,511.586z"/>
	
		<rect x="298.874" y="356.199" transform="matrix(-0.9793 -0.2023 0.2023 -0.9793 537.0576 922.9456)" fill="#FFFFFF" width="33.659" height="155.646"/>
	
		<rect x="299.132" y="353.676" transform="matrix(-0.9793 -0.2024 0.2024 -0.9793 513.3582 915.4937)" opacity="0.2" fill="#1D1D1B" width="8.714" height="155.646"/>
	
		<rect x="387.237" y="371.212" transform="matrix(-0.9793 -0.2025 0.2025 -0.9793 677.7689 967.4099)" opacity="0.2" fill="#1D1D1B" width="2.267" height="155.647"/>
	
		<rect x="332.162" y="359.834" transform="matrix(-0.9793 -0.2025 0.2025 -0.9793 571.0635 933.7365)" opacity="0.2" fill="#1D1D1B" width="2.267" height="155.646"/>
	<path fill="none" stroke="#003973" stroke-width="4" stroke-linecap="round" stroke-linejoin="round" stroke-miterlimit="10" d="
		M394.709,511.586c-1.994,9.653-11.438,15.863-21.092,13.868l-90.142-18.624l31.433-152.139l90.142,18.624
		c9.654,1.995,15.864,11.438,13.869,21.091L394.709,511.586z"/>
	
		<line fill="none" stroke="#003973" stroke-width="4" stroke-linecap="round" stroke-linejoin="round" stroke-miterlimit="10" x1="400.725" y1="372.422" x2="369.292" y2="524.561"/>
	
		<line fill="none" stroke="#003973" stroke-width="4" stroke-linecap="round" stroke-linejoin="round" stroke-miterlimit="10" x1="301.912" y1="370.456" x2="320.595" y2="374.316"/>
	
		<line fill="none" stroke="#003973" stroke-width="4" stroke-linecap="round" stroke-linejoin="round" stroke-miterlimit="10" x1="293.94" y1="409.041" x2="312.624" y2="412.901"/>
	
		<line fill="none" stroke="#003973" stroke-width="4" stroke-linecap="round" stroke-linejoin="round" stroke-miterlimit="10" x1="285.968" y1="447.628" x2="304.652" y2="451.488"/>
	
		<line fill="none" stroke="#003973" stroke-width="4" stroke-linecap="round" stroke-linejoin="round" stroke-miterlimit="10" x1="277.996" y1="486.213" x2="296.679" y2="490.072"/>
</g>
<path fill="#F9B036" stroke="#003973" stroke-width="4" stroke-linecap="round" stroke-linejoin="round" stroke-miterlimit="10" d="
	M492.521,152.174l-64.678-39.85l-2.667-11.4c-0.051-0.271-0.087-0.715-0.322-0.859l-31.853-19.625
	c-0.227-0.14-0.569-0.069-0.827-0.003l-12.108,2.448c-0.244,0.062-0.419,0.339-0.552,0.554L330.801,162.5
	c-0.282,0.459-0.299,0.963,0.161,1.247l111.935,68.967c0.46,0.284,0.882,0.029,1.165-0.43l48.714-79.062
	C493.059,152.762,492.981,152.457,492.521,152.174z"/>
<g>
	
		<rect x="1036.988" y="287.445" transform="matrix(0.9753 -0.221 0.221 0.9753 -54.946 240.7106)" fill="#F9B036" width="22.59" height="156.938"/>
	<path fill="#FFFFFF" d="M1029.718,289.663l3.539,15.616l12.77-2.894c4-0.906,7.977,1.602,8.885,5.602l3.824,16.875
		c0.904,3.998-1.604,7.975-5.604,8.881l-12.77,2.894l24.041,106.083l-9.793,2.22l-34.686-153.057L1029.718,289.663z"/>
	
		<rect x="945.321" y="300.229" transform="matrix(0.9753 -0.221 0.221 0.9753 -59.1699 228.5865)" fill="#F9B036" width="93.097" height="156.938"/>
	
		<polyline fill="none" stroke="#003973" stroke-width="4" stroke-linecap="round" stroke-linejoin="round" stroke-miterlimit="10" points="
		1052.601,333.863 1076.642,439.946 1054.61,444.938 1019.925,291.881 1041.954,286.889 1045.495,302.505 	"/>
	
		<rect x="946.331" y="309.252" transform="matrix(-0.9753 0.2211 -0.2211 -0.9753 1963.6887 555.9576)" opacity="0.2" fill="#1D1D1B" width="8.804" height="157.234"/>
	
		<line fill="none" stroke="#003973" stroke-width="4" stroke-linecap="round" stroke-linejoin="round" stroke-miterlimit="10" x1="923.767" y1="332.389" x2="942.562" y2="328.13"/>
	
		<line fill="none" stroke="#003973" stroke-width="4" stroke-linecap="round" stroke-linejoin="round" stroke-miterlimit="10" x1="932.563" y1="371.207" x2="951.36" y2="366.948"/>
	
		<line fill="none" stroke="#003973" stroke-width="4" stroke-linecap="round" stroke-linejoin="round" stroke-miterlimit="10" x1="941.36" y1="410.025" x2="960.157" y2="405.766"/>
	
		<line fill="none" stroke="#003973" stroke-width="4" stroke-linecap="round" stroke-linejoin="round" stroke-miterlimit="10" x1="950.157" y1="448.844" x2="968.954" y2="444.584"/>
	
		<rect x="945.321" y="300.229" transform="matrix(0.9753 -0.221 0.221 0.9753 -59.1699 228.5865)" fill="none" stroke="#003973" stroke-width="4" stroke-linecap="round" stroke-linejoin="round" stroke-miterlimit="10" width="93.097" height="156.938"/>
	<path fill="#3065AF" d="M1043.028,348.4l12.77-2.894c4.002-0.906,7.979,1.601,8.885,5.601l3.824,16.876
		c0.906,3.999-1.602,7.976-5.604,8.882l-12.768,2.894"/>
	<path fill="none" stroke="#003973" stroke-width="4" stroke-linecap="round" stroke-linejoin="round" stroke-miterlimit="10" d="
		M1043.028,348.4l12.77-2.894c4.002-0.906,7.979,1.601,8.885,5.601l3.824,16.876c0.906,3.999-1.602,7.976-5.604,8.882l-12.768,2.894
		"/>
	<path fill="none" stroke="#003973" stroke-width="4" stroke-linecap="round" stroke-linejoin="round" stroke-miterlimit="10" d="
		M1029.718,289.663l3.539,15.616l12.77-2.894c4-0.906,7.977,1.602,8.885,5.602l3.824,16.875c0.904,3.998-1.604,7.975-5.604,8.881
		l-12.77,2.894l24.041,106.083"/>
</g>
<g>
	
		<rect x="161.714" y="188.7" transform="matrix(0.999 -0.0455 0.0455 0.999 -11.4945 10.046)" opacity="0.2" fill="#1D1D1B" width="106.548" height="137.771"/>
	
		<rect x="154.552" y="182.48" transform="matrix(0.999 -0.0455 0.0455 0.999 -11.219 9.7138)" fill="#FFFFFF" width="106.549" height="137.771"/>
	
		<rect x="155.67" y="186.694" transform="matrix(0.999 -0.0455 0.0455 0.999 -11.3558 7.5234)" fill="#D9D9D9" width="7.614" height="132.706"/>
	
		<rect x="154.552" y="182.48" transform="matrix(0.999 -0.0455 0.0455 0.999 -11.219 9.7138)" fill="none" stroke="#003973" stroke-width="4" stroke-linecap="round" stroke-linejoin="round" stroke-miterlimit="10" width="106.549" height="137.771"/>
	
		<line fill="none" stroke="#003973" stroke-width="4" stroke-linecap="round" stroke-linejoin="round" stroke-miterlimit="10" x1="167.298" y1="219.597" x2="206.3" y2="217.821"/>
	
		<polyline fill="none" stroke="#003973" stroke-width="4" stroke-linecap="round" stroke-linejoin="round" stroke-miterlimit="10" points="
		223.146,214.38 226.473,221.054 244.637,208.117 	"/>
	
		<line fill="none" stroke="#003973" stroke-width="4" stroke-linecap="round" stroke-linejoin="round" stroke-miterlimit="10" x1="168.802" y1="252.622" x2="207.803" y2="250.846"/>
	
		<polyline fill="none" stroke="#003973" stroke-width="4" stroke-linecap="round" stroke-linejoin="round" stroke-miterlimit="10" points="
		224.611,246.545 227.938,253.219 246.102,240.282 	"/>
	
		<line fill="none" stroke="#003973" stroke-width="4" stroke-linecap="round" stroke-linejoin="round" stroke-miterlimit="10" x1="170.306" y1="285.647" x2="209.307" y2="283.872"/>
	
		<polyline fill="none" stroke="#003973" stroke-width="4" stroke-linecap="round" stroke-linejoin="round" stroke-miterlimit="10" points="
		226.076,278.71 229.403,285.384 247.567,272.448 	"/>
</g>
<g>
	
		<rect x="289.154" y="226.886" transform="matrix(0.6058 -0.7956 0.7956 0.6058 -102.6165 344.4234)" opacity="0.2" fill="#1D1D1B" width="14.257" height="97.772"/>
	<polygon opacity="0.2" fill="#1D1D1B" points="242.114,234.52 253.071,251.825 261.709,240.482 	"/>
	
		<rect x="288.437" y="220.016" transform="matrix(0.6058 -0.7956 0.7956 0.6058 -97.4357 341.1349)" fill="#F9B036" width="14.257" height="97.772"/>
	
		<rect x="292.019" y="222.4" transform="matrix(0.6057 -0.7957 0.7957 0.6057 -100.0366 340.6949)" opacity="0.2" fill="#1D1D1B" width="3.462" height="97.772"/>
	
		<rect x="296.081" y="217.069" transform="matrix(0.6061 -0.7954 0.7954 0.6061 -94.2339 341.6128)" opacity="0.2" fill="#FFFFFF" width="3.461" height="97.772"/>
	<polygon fill="#FFFFFF" points="241.397,227.65 252.354,244.955 260.993,233.613 	"/>
	
		<rect x="288.437" y="220.016" transform="matrix(0.6058 -0.7956 0.7956 0.6058 -97.4357 341.1349)" fill="none" stroke="#003973" stroke-width="4" stroke-linecap="round" stroke-linejoin="round" stroke-miterlimit="10" width="14.257" height="97.772"/>
	
		<polygon fill="none" stroke="#003973" stroke-width="4" stroke-linecap="round" stroke-linejoin="round" stroke-miterlimit="10" points="
		241.397,227.65 252.354,244.955 260.993,233.613 	"/>
</g>
<g>
	
		<rect x="157.377" y="417.242" transform="matrix(0.7341 0.679 -0.679 0.7341 360.2357 12.2257)" opacity="0.2" fill="#1D1D1B" width="14.257" height="97.77"/>
	<polygon opacity="0.2" fill="#1D1D1B" points="210.736,416.139 192.465,425.397 202.932,435.077 	"/>
	
		<rect x="164.284" y="417.182" transform="matrix(0.7341 0.679 -0.679 0.7341 362.0302 7.5204)" fill="#F9B036" width="14.256" height="97.773"/>
	
		<rect x="167.481" y="415.147" transform="matrix(0.7342 0.6789 -0.6789 0.7342 360.0189 8.4539)" opacity="0.2" fill="#1D1D1B" width="3.462" height="97.773"/>
	
		<rect x="172.402" y="419.699" transform="matrix(0.7341 0.6791 -0.6791 0.7341 364.4979 6.3568)" opacity="0.2" fill="#FFFFFF" width="3.46" height="97.773"/>
	<polygon fill="#FFFFFF" points="217.643,416.082 199.371,425.338 209.838,435.021 	"/>
	
		<rect x="164.284" y="417.182" transform="matrix(0.7341 0.679 -0.679 0.7341 362.0302 7.5204)" fill="none" stroke="#003973" stroke-width="4" stroke-linecap="round" stroke-linejoin="round" stroke-miterlimit="10" width="14.256" height="97.773"/>
	
		<polygon fill="none" stroke="#003973" stroke-width="4" stroke-linecap="round" stroke-linejoin="round" stroke-miterlimit="10" points="
		217.643,416.082 199.371,425.338 209.838,435.021 	"/>
</g>
<g>
	
		<rect x="154.133" y="456.434" transform="matrix(0.3965 0.918 -0.918 0.3965 561.2073 156.9001)" opacity="0.2" fill="#1D1D1B" width="14.257" height="97.771"/>
	<polygon opacity="0.2" fill="#1D1D1B" points="223.767,478.318 203.313,479.391 208.967,492.478 	"/>
	
		<rect x="160.472" y="459.174" transform="matrix(0.3966 0.918 -0.918 0.3966 567.5267 152.71)" fill="#F9B036" width="14.257" height="97.773"/>
	
		<rect x="164.681" y="456.424" transform="matrix(0.3963 0.9181 -0.9181 0.3963 564.3981 152.2693)" opacity="0.2" fill="#1D1D1B" width="3.462" height="97.771"/>
	
		<rect x="167.338" y="462.577" transform="matrix(0.3962 0.9182 -0.9182 0.3962 571.7041 153.6033)" opacity="0.2" fill="#FFFFFF" width="3.461" height="97.773"/>
	<polygon fill="#FFFFFF" points="230.105,481.062 209.651,482.131 215.305,495.221 	"/>
	
		<rect x="160.472" y="459.174" transform="matrix(0.3966 0.918 -0.918 0.3966 567.5267 152.71)" fill="none" stroke="#003973" stroke-width="4" stroke-linecap="round" stroke-linejoin="round" stroke-miterlimit="10" width="14.257" height="97.773"/>
	
		<polygon fill="none" stroke="#003973" stroke-width="4" stroke-linecap="round" stroke-linejoin="round" stroke-miterlimit="10" points="
		230.105,481.062 209.651,482.131 215.305,495.221 	"/>
</g>
<path opacity="0.2" fill="#1D1D1B" d="M469.576,138.236l-71.432-25.858l-4.931-10.62c-0.105-0.255-0.231-0.682-0.49-0.775
	l-35.179-12.735c-0.25-0.091-0.571,0.048-0.81,0.167l-11.357,4.858c-0.227,0.112-0.342,0.418-0.428,0.656l-31.61,87.319
	c-0.184,0.507-0.097,1.004,0.41,1.188l123.625,44.752c0.508,0.184,0.87-0.151,1.054-0.658l31.61-87.319
	C470.223,138.703,470.084,138.419,469.576,138.236z"/>
<path fill="#F9B036" stroke="#003973" stroke-width="4" stroke-linecap="round" stroke-linejoin="round" stroke-miterlimit="10" d="
	M463.576,142.236l-71.432-25.858l-4.931-10.62c-0.105-0.255-0.231-0.682-0.49-0.775l-35.179-12.735
	c-0.25-0.091-0.571,0.048-0.81,0.167l-11.357,4.858c-0.227,0.112-0.342,0.418-0.428,0.656l-31.61,87.319
	c-0.184,0.507-0.097,1.004,0.41,1.188l123.625,44.752c0.508,0.184,0.87-0.151,1.054-0.658l31.61-87.319
	C464.223,142.703,464.084,142.419,463.576,142.236z"/>
<path opacity="0.2" fill="#1D1D1B" d="M1315.393,465.599l-70.465-28.39l-4.549-10.789c-0.096-0.258-0.207-0.689-0.463-0.793
	l-34.701-13.98c-0.248-0.1-0.574,0.029-0.816,0.137l-11.523,4.451c-0.23,0.104-0.355,0.406-0.45,0.641l-34.705,86.136
	c-0.2,0.5-0.132,1.001,0.369,1.202l121.95,49.134c0.501,0.202,0.875-0.12,1.076-0.62l34.704-86.137
	C1316.021,466.09,1315.895,465.801,1315.393,465.599z"/>
<path fill="#F9B036" stroke="#003973" stroke-width="4" stroke-linecap="round" stroke-linejoin="round" stroke-miterlimit="10" d="
	M1310.674,470.366l-70.465-28.39l-4.549-10.789c-0.097-0.258-0.207-0.689-0.463-0.791l-34.702-13.982
	c-0.247-0.1-0.573,0.028-0.815,0.137l-11.522,4.451c-0.231,0.104-0.356,0.406-0.451,0.641l-34.705,86.135
	c-0.2,0.502-0.132,1.002,0.369,1.203l121.949,49.134c0.502,0.202,0.875-0.12,1.077-0.62l34.704-86.136
	C1311.302,470.856,1311.175,470.568,1310.674,470.366z"/>
<path opacity="0.2" fill="#1D1D1B" d="M1263.093,468.772l-75.943-1.983l-8.031-8.519c-0.181-0.21-0.435-0.575-0.71-0.581
	l-37.399-0.977c-0.266-0.008-0.528,0.226-0.718,0.412l-9.241,8.197c-0.18,0.177-0.192,0.504-0.199,0.756l-2.425,92.834
	c-0.014,0.539,0.226,0.982,0.765,0.998l131.432,3.432c0.542,0.014,0.779-0.418,0.792-0.957l2.425-92.832
	C1263.853,469.012,1263.633,468.787,1263.093,468.772z"/>
<path fill="#F9B036" stroke="#003973" stroke-width="4" stroke-linecap="round" stroke-linejoin="round" stroke-miterlimit="10" d="
	M1258.044,474.018l-75.943-1.984l-8.031-8.518c-0.181-0.211-0.435-0.576-0.711-0.582l-37.398-0.977
	c-0.267-0.008-0.528,0.227-0.718,0.414l-9.241,8.196c-0.181,0.175-0.193,0.504-0.199,0.756l-2.425,92.833
	c-0.014,0.539,0.226,0.983,0.765,0.998l131.431,3.432c0.542,0.014,0.779-0.418,0.793-0.956l2.425-92.833
	C1258.804,474.256,1258.583,474.031,1258.044,474.018z"/>
<path opacity="0.2" fill="#1D1D1B" d="M1308.691,490.361l-75.514,8.289l-9.109-7.355c-0.207-0.184-0.507-0.51-0.781-0.48
	l-37.19,4.083c-0.265,0.028-0.491,0.295-0.652,0.507l-8.052,9.369c-0.153,0.199-0.121,0.525-0.094,0.776l10.134,92.31
	c0.059,0.536,0.354,0.943,0.892,0.885l130.691-14.346c0.537-0.061,0.715-0.52,0.655-1.056l-10.133-92.31
	C1309.479,490.494,1309.229,490.303,1308.691,490.361z"/>
<path fill="#F9B036" stroke="#003973" stroke-width="4" stroke-linecap="round" stroke-linejoin="round" stroke-miterlimit="10" d="
	M1305.071,496.597l-75.515,8.29l-9.109-7.356c-0.207-0.183-0.508-0.511-0.781-0.479l-37.191,4.083
	c-0.264,0.028-0.489,0.296-0.651,0.506l-8.052,9.368c-0.154,0.201-0.122,0.527-0.095,0.777l10.134,92.31
	c0.06,0.536,0.355,0.944,0.893,0.886l130.691-14.347c0.536-0.06,0.714-0.521,0.655-1.056l-10.134-92.311
	C1305.857,496.73,1305.607,496.538,1305.071,496.597z"/>
<path fill="none" stroke="#003973" stroke-width="4" stroke-miterlimit="10" d="M1117.61,51.349l-16.762,13.74
	c-15.883-12.841-38.25-12.886-54.196,0.187c-18.33,15.025-21.087,42.079-6.061,60.409c15.025,18.33,42.264,21.143,60.593,6.117
	c16.212-13.289,20.354-35.83,10.588-53.686l16.615-13.62c3.63-2.975,4.16-8.331,1.185-11.961
	C1126.596,48.904,1121.24,48.374,1117.61,51.349z"/>
<path opacity="0.1" d="M1073.468,67.266c0,0-35.242,22.062-12.182,59.515c0,0-25.8-13.298-17.537-37.355
	S1073.468,67.266,1073.468,67.266z"/>
<path fill="none" stroke="#003973" stroke-width="4" stroke-miterlimit="10" d="M1093.13,122.256
	c-13.226,10.842-32.807,8.902-43.649-4.323c-10.842-13.228-8.903-32.808,4.324-43.65c13.227-10.843,32.808-8.903,43.651,4.323
	C1108.298,91.833,1106.356,111.415,1093.13,122.256z"/>
<g>
	<g>
		<g opacity="0.2">
			<circle cx="1236.058" cy="115.813" r="50.712"/>
			<circle fill="none" stroke="#000000" stroke-width="4" stroke-miterlimit="10" cx="1236.058" cy="115.813" r="50.712"/>
		</g>
		<g>
			<circle fill="#F9B036" cx="1231.058" cy="110.813" r="50.712"/>
			<circle fill="none" stroke="#003973" stroke-width="4" stroke-miterlimit="10" cx="1231.058" cy="110.813" r="50.712"/>
		</g>
	</g>
	<circle fill="#003973" cx="1233.058" cy="112.125" r="10.664"/>
	<g>
		<path fill="#AD6E02" d="M1230.259,113.362c-1.104-0.05-1.958-0.984-1.908-2.088c0.326-7.265-7.299-14.118-7.661-14.437
			c-0.745-0.61-0.959-1.688-0.462-2.547l3.004-5.193c0.371-0.641,1.043-0.999,1.733-0.999c0.34,0,0.684,0.087,0.999,0.269
			c0.131,0.076,13.001,9.492,12.377,23.356c-0.049,1.073-0.934,1.91-1.996,1.91C1236.313,113.634,1230.259,113.362,1230.259,113.362
			z"/>
		<g>
			<path fill="#003973" d="M1224.963,90.099c0.711,0.411,11.928,9.368,11.38,21.535l-5.994-0.27
				c0.382-8.498-8.353-16.05-8.39-16.072L1224.963,90.099 M1224.967,86.098c-1.382,0-2.725,0.716-3.467,1.998l-3.004,5.193
				c-0.988,1.71-0.571,3.851,0.9,5.075c0.451,0.405,7.234,6.627,6.956,12.82c-0.099,2.207,1.609,4.077,3.816,4.176l5.994,0.27
				c0.062,0.002,0.122,0.004,0.183,0.004c2.127,0,3.896-1.674,3.993-3.82c0.623-13.832-11.52-24.105-13.374-25.178
				C1226.335,86.271,1225.646,86.098,1224.967,86.098L1224.967,86.098z"/>
		</g>
	</g>
	
		<path fill="#3065AF" stroke="#003973" stroke-width="4" stroke-linecap="round" stroke-linejoin="round" stroke-miterlimit="10" d="
		M1229.943,111.455c0,0,16.615-27.914,48.164-8.374C1278.107,103.081,1262.511,132.235,1229.943,111.455z"/>
</g>
<rect opacity="0.9" fill="#FFFFFF" width="1440" height="629"/>
<g>
</g>
<g>
</g>
<g>
</g>
<g>
</g>
<g>
</g>
<g>
</g>
<g>
</g>
<g>
</g>
<g>
</g>
<g>
</g>
<g>
</g>
<g>
</g>
<g>
</g>
<g>
</g>
<g>
</g>
</svg>
