<?xml version="1.0" encoding="utf-8"?>
<!-- Generator: Adobe Illustrator 16.0.0, SVG Export Plug-In . SVG Version: 6.00 Build 0)  -->
<!DOCTYPE svg PUBLIC "-//W3C//DTD SVG 1.1//EN" "http://www.w3.org/Graphics/SVG/1.1/DTD/svg11.dtd">
<svg version="1.1" id="Capa_1" xmlns="http://www.w3.org/2000/svg" xmlns:xlink="http://www.w3.org/1999/xlink" x="0px" y="0px"
	 width="200px" height="200px" viewBox="0 0 200 200" enable-background="new 0 0 200 200" xml:space="preserve">
<path fill="#57C9E8" d="M196,99.406c0-0.085,0.207-0.17,0.207-0.255c0-0.064,0.108-0.129,0.108-0.195
	c0-13.374-2.462-25.987-7.428-37.481c-4.99-11.546-11.896-21.806-20.579-30.487c-8.688-8.695-18.935-15.766-30.475-20.751
	C126.339,5.272,113.741,3,100.359,3H4v95.956c0,0.075-0.077,0.15-0.077,0.226s-0.042,0.15-0.042,0.225
	c0,13.374,2.495,25.986,7.459,37.482c4.99,11.544,11.914,21.805,20.596,30.485c8.69,8.694,18.944,15.893,30.483,20.878
	C73.914,193.216,86.522,196,99.903,196H196V99.406z"/>
</svg>
