<?xml version="1.0" encoding="utf-8"?>
<!-- Generator: Adobe Illustrator 16.0.0, SVG Export Plug-In . SVG Version: 6.00 Build 0)  -->
<!DOCTYPE svg PUBLIC "-//W3C//DTD SVG 1.1//EN" "http://www.w3.org/Graphics/SVG/1.1/DTD/svg11.dtd">
<svg version="1.1" id="Capa_1" xmlns="http://www.w3.org/2000/svg" xmlns:xlink="http://www.w3.org/1999/xlink" x="0px" y="0px"
	 width="960px" height="560px" viewBox="0 0 960 560" enable-background="new 0 0 960 560" xml:space="preserve">
<g>
	<path fill="#FFFFFF" d="M846.832,269.543c0,20.63-16.723,37.353-37.355,37.353c-20.623,0-37.348-16.723-37.348-37.353
		c0-20.624,16.725-37.348,37.348-37.348C830.109,232.196,846.832,248.919,846.832,269.543z"/>
	<path fill="#FFFFFF" d="M662.384,197.949c-9.124-9.118-19.895-16.396-32.006-21.629c-12.061-5.211-25.298-7.853-39.345-7.853
		h-72.515v-29.552c-0.363-6.181-6.698-11.127-14.415-11.127c-7.706,0-14.028,4.946-14.393,11.255v130.266
		c0,13.743,2.648,26.914,7.862,39.136c5.228,12.264,12.584,23.186,21.865,32.461c9.269,9.273,20.186,16.628,32.46,21.857
		c12.217,5.219,25.384,7.864,39.135,7.864c14.051,0,27.286-2.639,39.345-7.853c12.101-5.223,22.853-12.565,31.971-21.832
		c9.124-9.273,16.411-20.208,21.655-32.498c5.219-12.24,7.866-25.406,7.866-39.136c0-14.045-2.642-27.284-7.851-39.354
		C678.781,217.841,671.503,207.072,662.384,197.949z M657.464,297.55c-3.722,8.851-8.932,16.652-15.476,23.19
		c-6.549,6.544-14.258,11.747-22.908,15.457c-8.716,3.732-18.151,5.621-28.047,5.621c-9.88,0-19.385-1.881-28.242-5.601
		c-8.846-3.717-16.649-8.923-23.194-15.479c-6.555-6.546-11.762-14.348-15.473-23.188c-3.719-8.837-5.605-18.339-5.605-28.242
		v-72.032h72.515c9.906,0,19.344,1.891,28.045,5.621c8.625,3.694,16.333,8.892,22.902,15.445
		c6.556,6.563,11.758,14.278,15.46,22.917c3.731,8.708,5.626,18.146,5.626,28.049C663.066,279.198,661.182,288.701,657.464,297.55z"
		/>
	<path fill="#FFFFFF" d="M881.071,197.949c-9.116-9.114-19.888-16.391-32.006-21.629c-12.065-5.211-25.305-7.853-39.345-7.853
		c-13.734,0-26.901,2.648-39.134,7.864c-12.297,5.253-23.233,12.538-32.501,21.659c-9.265,9.115-16.611,19.872-21.834,31.965
		c-5.208,12.046-7.849,25.285-7.849,39.354c0,13.757,2.641,26.922,7.857,39.136c5.239,12.279,12.597,23.195,21.863,32.461
		c9.26,9.271,20.181,16.625,32.457,21.857c12.223,5.219,25.391,7.864,39.14,7.864h100.842V269.308
		c0-14.046-2.644-27.286-7.854-39.354C897.477,217.841,890.197,207.072,881.071,197.949z M881.759,341.818h-72.038
		c-9.885,0-19.387-1.881-28.244-5.601c-8.85-3.72-16.654-8.926-23.195-15.479c-6.552-6.546-11.76-14.348-15.466-23.188
		c-3.725-8.847-5.613-18.352-5.613-28.242c0-9.903,1.901-19.341,5.635-28.049c3.708-8.651,8.901-16.359,15.453-22.908
		c6.546-6.553,14.35-11.76,23.193-15.472c8.843-3.722,18.342-5.604,28.237-5.604c9.908,0,19.346,1.891,28.049,5.621
		c8.643,3.702,16.347,8.901,22.905,15.447c6.556,6.571,11.756,14.279,15.455,22.915c3.731,8.708,5.629,18.146,5.629,28.049V341.818z
		"/>
	<path fill="#FFFFFF" d="M457.248,168.842c-7.905,0-14.585,5.509-14.585,12.029v88.436c0,9.89-1.887,19.394-5.604,28.242
		c-3.709,8.829-8.915,16.634-15.476,23.194c-6.556,6.551-14.36,11.757-23.194,15.474c-8.867,3.72-18.367,5.601-28.24,5.601
		c-9.909,0-19.346-1.889-28.054-5.621c-8.667-3.718-16.377-8.918-22.906-15.453c-6.552-6.542-11.756-14.352-15.471-23.194
		c-3.717-8.845-5.602-18.35-5.602-28.242v-88.806c0-6.541-6.327-11.66-14.402-11.66c-7.94,0-14.404,5.296-14.404,11.813v88.652
		c0,13.755,2.646,26.919,7.861,39.136c5.238,12.285,12.525,23.222,21.66,32.498c9.097,9.248,19.923,16.591,32.176,21.82
		c12.223,5.219,25.391,7.864,39.142,7.864c14.047,0,27.286-2.639,39.343-7.853c12.115-5.228,22.967-12.588,32.252-21.869
		c9.27-9.273,16.624-20.197,21.859-32.461c5.254-12.313,7.918-25.479,7.918-39.136v-88.652
		C471.521,174.139,465.119,168.842,457.248,168.842z"/>
	<path fill="#FFFFFF" d="M250.521,254.707c-1.227-8.336-3.487-16.382-6.764-24.055c-3.601-8.435-8.221-16.213-13.758-23.272
		c-2.453-3.159-5.064-6.184-7.873-9.037c-9.097-9.256-19.922-16.597-32.181-21.824c-1.624-0.696-3.269-1.336-4.926-1.938
		c-10.958-4.055-22.61-6.114-34.72-6.114H49.46l-0.024,190.157c0,6.521,6.4,11.817,14.269,11.817c7.908,0,14.587-5.51,14.587-12.032
		l-0.029-161.132h72.036c9.887,0,19.389,1.882,28.245,5.602c8.849,3.718,16.656,8.926,23.194,15.479
		c3.935,3.927,7.371,8.319,10.302,13.104c-0.024,0.011-0.048,0.022-0.072,0.029c1.992,3.237,3.758,6.65,5.266,10.245
		c2.316,5.508,3.922,11.269,4.802,17.23c0.517,3.547,0.778,7.155,0.778,10.823c0,0.903,0.025,88.992,0.025,88.992
		c0,6.537,6.324,11.66,14.401,11.66c7.943,0,14.402-5.297,14.402-11.817v-88.648C251.643,264.795,251.267,259.699,250.521,254.707z"
		/>
</g>
</svg>
